<?xml version="1.0" encoding="UTF-8" standalone="no"?>
<!-- Created with Inkscape (http://www.inkscape.org/) -->

<svg
   xmlns:dc="http://purl.org/dc/elements/1.1/"
   xmlns:cc="http://creativecommons.org/ns#"
   xmlns:rdf="http://www.w3.org/1999/02/22-rdf-syntax-ns#"
   xmlns:svg="http://www.w3.org/2000/svg"
   xmlns="http://www.w3.org/2000/svg"
   xmlns:xlink="http://www.w3.org/1999/xlink"
   xmlns:sodipodi="http://sodipodi.sourceforge.net/DTD/sodipodi-0.dtd"
   xmlns:inkscape="http://www.inkscape.org/namespaces/inkscape"
   width="48"
   height="48"
   viewBox="0 0 48.000001 48.000001"
   id="svg3623"
   version="1.1"
   inkscape:version="0.91 r13725"
   sodipodi:docname="assistant-qt4.svg">
  <defs
     id="defs3625">
    <radialGradient
       inkscape:collect="always"
       xlink:href="#linearGradient2431"
       id="radialGradient2437"
       cx="-19.515638"
       cy="16.855663"
       fx="-19.515638"
       fy="16.855663"
       r="8.753643"
       gradientTransform="matrix(4.445991,0,0,6.8665,67.25071,-104.6679)"
       gradientUnits="userSpaceOnUse" />
    <linearGradient
       id="linearGradient2431">
      <stop
         style="stop-color:#ffffff;stop-opacity:1;"
         offset="0"
         id="stop2433" />
      <stop
         style="stop-color:#b8b8b8;stop-opacity:1;"
         offset="1"
         id="stop2435" />
    </linearGradient>
    <radialGradient
       inkscape:collect="always"
       xlink:href="#linearGradient2933"
       id="radialGradient2207"
       cx="26.544321"
       cy="28.458725"
       fx="26.544321"
       fy="28.458725"
       r="22.376116"
       gradientUnits="userSpaceOnUse"
       gradientTransform="matrix(0.62411454,0.00295465,-0.00327987,0.67046784,21.310963,1024.12)" />
    <linearGradient
       id="linearGradient2933">
      <stop
         id="stop2935"
         offset="0"
         style="stop-color:#9cbcde;stop-opacity:1" />
      <stop
         id="stop2937"
         offset="1"
         style="stop-color:#204a87" />
    </linearGradient>
    <radialGradient
       inkscape:collect="always"
       xlink:href="#linearGradient29433"
       id="radialGradient21650"
       cx="25.125"
       cy="36.75"
       fx="25.125"
       fy="36.75"
       r="15.75"
       gradientTransform="matrix(0.63039317,0,0,0.18878152,21.307526,1043.5528)"
       gradientUnits="userSpaceOnUse" />
    <linearGradient
       inkscape:collect="always"
       id="linearGradient29433">
      <stop
         style="stop-color:#000000;stop-opacity:1;"
         offset="0"
         id="stop29435" />
      <stop
         style="stop-color:#000000;stop-opacity:0;"
         offset="1"
         id="stop29437" />
    </linearGradient>
    <linearGradient
       inkscape:collect="always"
       xlink:href="#linearGradient29418"
       id="linearGradient29443"
       gradientUnits="userSpaceOnUse"
       gradientTransform="matrix(-0.97722802,0,0,0.99587809,143.78097,1031.8224)"
       x1="35.003674"
       y1="10.957423"
       x2="27.2733"
       y2="24.143761" />
    <linearGradient
       id="linearGradient29418">
      <stop
         style="stop-color:#f5f5f5;stop-opacity:1.0000000;"
         offset="0.0000000"
         id="stop29420" />
      <stop
         style="stop-color:#e9e9e9;stop-opacity:1.0000000;"
         offset="1.0000000"
         id="stop29422" />
    </linearGradient>
    <linearGradient
       inkscape:collect="always"
       xlink:href="#linearGradient29418"
       id="linearGradient29429"
       gradientUnits="userSpaceOnUse"
       x1="26.011957"
       y1="10.916001"
       x2="39.037319"
       y2="26.257807"
       gradientTransform="matrix(1.007553,0,0,0.98764705,90.106274,1022.9814)" />
    <radialGradient
       inkscape:collect="always"
       xlink:href="#linearGradient29433"
       id="radialGradient29439"
       cx="29.496454"
       cy="27.645426"
       fx="29.496454"
       fy="27.645426"
       r="11.515739"
       gradientTransform="matrix(1.372807,0,0,0.37851028,82.840874,1042.6785)"
       gradientUnits="userSpaceOnUse" />
    <linearGradient
       inkscape:collect="always"
       xlink:href="#linearGradient5048"
       id="linearGradient6873"
       gradientUnits="userSpaceOnUse"
       gradientTransform="matrix(2.774389,0,0,1.969706,-1892.179,-872.8854)"
       x1="302.85715"
       y1="366.64789"
       x2="302.85715"
       y2="609.50507" />
    <linearGradient
       id="linearGradient5048">
      <stop
         style="stop-color:black;stop-opacity:0;"
         offset="0"
         id="stop5050" />
      <stop
         id="stop5056"
         offset="0.5"
         style="stop-color:black;stop-opacity:1;" />
      <stop
         style="stop-color:black;stop-opacity:0;"
         offset="1"
         id="stop5052" />
    </linearGradient>
    <radialGradient
       inkscape:collect="always"
       xlink:href="#linearGradient29433"
       id="radialGradient6875"
       gradientUnits="userSpaceOnUse"
       gradientTransform="matrix(2.774389,0,0,1.969706,-1891.633,-872.8854)"
       cx="605.71429"
       cy="486.64789"
       fx="605.71429"
       fy="486.64789"
       r="117.14286" />
    <radialGradient
       inkscape:collect="always"
       xlink:href="#linearGradient29433"
       id="radialGradient6877"
       gradientUnits="userSpaceOnUse"
       gradientTransform="matrix(-2.774389,0,0,1.969706,112.7623,-872.8854)"
       cx="605.71429"
       cy="486.64789"
       fx="605.71429"
       fy="486.64789"
       r="117.14286" />
    <radialGradient
       inkscape:collect="always"
       xlink:href="#linearGradient29433"
       id="radialGradient6717"
       gradientUnits="userSpaceOnUse"
       gradientTransform="matrix(2.774389,0,0,1.969706,-1891.633,-872.8854)"
       cx="605.71429"
       cy="486.64789"
       fx="605.71429"
       fy="486.64789"
       r="117.14286" />
    <radialGradient
       inkscape:collect="always"
       xlink:href="#linearGradient29433"
       id="radialGradient6719"
       gradientUnits="userSpaceOnUse"
       gradientTransform="matrix(-2.774389,0,0,1.969706,112.7623,-872.8854)"
       cx="605.71429"
       cy="486.64789"
       fx="605.71429"
       fy="486.64789"
       r="117.14286" />
    <linearGradient
       inkscape:collect="always"
       xlink:href="#linearGradient5048"
       id="linearGradient3858"
       gradientUnits="userSpaceOnUse"
       gradientTransform="matrix(2.774389,0,0,1.969706,-1892.179,-872.8854)"
       x1="302.85715"
       y1="366.64789"
       x2="302.85715"
       y2="609.50507" />
  </defs>
  <sodipodi:namedview
     id="base"
     pagecolor="#ffffff"
     bordercolor="#666666"
     borderopacity="1.0"
     inkscape:pageopacity="0.0"
     inkscape:pageshadow="2"
     inkscape:zoom="3.959798"
     inkscape:cx="60.664127"
     inkscape:cy="-5.4814259"
     inkscape:document-units="px"
     inkscape:current-layer="layer1"
     showgrid="false"
     units="px"
     inkscape:window-width="1360"
     inkscape:window-height="712"
     inkscape:window-x="0"
     inkscape:window-y="32"
     inkscape:window-maximized="1" />
  <metadata
     id="metadata3628">
    <rdf:RDF>
      <cc:Work
         rdf:about="">
        <dc:format>image/svg+xml</dc:format>
        <dc:type
           rdf:resource="http://purl.org/dc/dcmitype/StillImage" />
        <dc:title></dc:title>
      </cc:Work>
    </rdf:RDF>
  </metadata>
  <g
     inkscape:label="Layer 1"
     inkscape:groupmode="layer"
     id="layer1"
     transform="translate(0,-1004.3622)">
    <g
       transform="matrix(0.60578463,0,0,0.55329043,-103.25268,686.26659)"
       id="layer1-3">
      <path
         inkscape:connector-curvature="0"
         d="m 189.35054,579.28163 c -0.79538,-0.13125 -1.57562,-0.1625 -2.32963,-0.105 l -10e-4,0 c 0,0 -5.15188,0.35 -5.38625,0.36875 -4.70263,0.37625 -8.2725,4.2425 -8.2725,9.5825 l 0,62.96625 5.26612,4.91 52.92288,-8.895 c 3.64212,-0.6325 6.518,-4.9275 6.518,-9.56625 l 0,-51.275 -48.71725,-7.98625"
         id="path2464"
         style="fill:#006325;fill-opacity:1;fill-rule:nonzero;stroke:none" />
      <path
         inkscape:connector-curvature="0"
         d="m 238.06779,638.54413 c 0,4.6375 -2.87588,8.9325 -6.518,9.565 l -52.92288,8.895 0,-68.21 c 0,-6.20375 4.95126,-10.46375 10.72363,-9.5125 l 48.71725,7.98625 0,51.27625"
         id="path2466"
         style="fill:#80c341;fill-opacity:1;fill-rule:nonzero;stroke:none" />
      <path
         inkscape:connector-curvature="0"
         d="m 201.42966,593.55413 c -3.771,0 -6.75787,1.44375 -8.90625,4.4375 -2.545,3.54875 -3.84375,9.16875 -3.84375,16.75 0,7.0325 0.92376,12.38625 2.78125,16.0625 1.83,3.6175 4.48438,5.7775 7.875,6.5 0.73776,3.5775 1.877,5.99625 3.4375,7.25 1.17926,0.95 2.75,1.4375 4.6875,1.4375 0.58551,0 1.22263,-0.04 1.875,-0.125 l 2.21875,-0.3125 0,-4.84375 c -0.34137,0.0388 -0.66937,0.0312 -0.96875,0.0312 -1.03512,0 -1.81062,-0.20625 -2.3125,-0.65625 -0.64699,-0.58625 -1.1475,-1.6925 -1.46875,-3.34375 3.1885,-1.09125 5.53563,-3.46 7.0625,-7.0625 1.5005,-3.5525 2.25001,-8.35125 2.25,-14.46875 0,-6.67875 -1.00737,-11.765 -3.0625,-15.3125 -2.09275,-3.6275 -5.314,-5.73875 -9.75,-6.25 -0.64312,-0.0762 -1.2715,-0.0937 -1.875,-0.0937 z m 20.34375,2.625 -1.78125,7.53125 -2.8125,-0.1875 0,5.03125 2.3125,0.125 0,19.0625 c 0,2.495 0.48776,4.305 1.5,5.4375 0.86863,0.9775 2.1495,1.46875 3.8125,1.46875 0.24863,0 0.51513,-0.0113 0.78125,-0.0312 1.8365,-0.1575 3.6875,-0.66375 5.59375,-1.5 l 0,-4.34375 c -1.12162,0.51125 -2.14699,0.82 -3.09375,0.875 -0.0615,0.004 -0.12788,0 -0.1875,0 -0.61813,0 -1.07661,-0.1975 -1.375,-0.59375 -0.331,-0.4325 -0.5,-1.37875 -0.5,-2.875 l 0,-17.21875 4.8125,0.21875 0,-4.6875 -4.8125,-0.34375 0,-7.5 -4.25,-0.46875 z m -18.875,3.09375 c 0.1275,0 0.27288,0.02 0.40625,0.0312 1.73926,0.1525 3.03913,1.3575 3.90625,3.59375 0.86676,2.225 1.28126,6.26 1.28125,12.15625 0,6.57 -0.4395,10.975 -1.3125,13.21875 -0.87887,2.26625 -2.15525,3.45375 -3.875,3.5625 -0.0776,0.005 -0.17387,0.0312 -0.25,0.0312 -1.71725,0 -3.00137,-1.2425 -3.875,-3.71875 -0.92624,-2.6 -1.40625,-7.00875 -1.40625,-13.25 0,-6.4575 0.47126,-10.7225 1.40625,-12.78125 0.86325,-1.88875 2.107,-2.84375 3.71875,-2.84375 z"
         id="path2468"
         style="fill:#ffffff;fill-opacity:1;fill-rule:nonzero;stroke:none" />
      <path
         inkscape:connector-curvature="0"
         d="m 199.04829,593.55505 c -3.76663,0.002 -6.75975,1.44625 -8.90625,4.4375 -2.54551,3.54875 -3.8125,9.16875 -3.8125,16.75 1e-5,7.0325 0.92375,12.38625 2.78125,16.0625 1.83051,3.6175 4.48488,5.7775 7.875,6.5 0.73775,3.5775 1.87701,5.99625 3.4375,7.25 1.17924,0.95 2.75,1.4375 4.6875,1.4375 0.0366,0 0.0889,10e-4 0.125,0 l 2.0625,0 c -1.26513,-0.02 -2.37587,-0.25375 -3.3125,-0.6875 -0.0425,-0.0188 -0.0835,-0.0425 -0.125,-0.0625 -0.004,-0.003 -0.0267,0.002 -0.0312,0 -0.038,-0.0188 -0.0561,-0.0425 -0.0937,-0.0625 -0.007,-0.004 -0.0235,0.004 -0.0312,0 -0.0343,-0.0188 -0.06,-0.0438 -0.0937,-0.0625 -0.0108,-0.006 -0.0205,-0.025 -0.0312,-0.0312 -0.0303,-0.0163 -0.064,-0.0138 -0.0937,-0.0312 -0.0146,-0.008 -0.0484,-0.0225 -0.0625,-0.0312 -0.0264,-0.015 -0.0361,-0.0463 -0.0625,-0.0625 -0.0176,-0.01 -0.0454,-0.02 -0.0625,-0.0312 -0.023,-0.015 -0.0405,-0.0175 -0.0625,-0.0312 -0.0215,-0.0138 -0.0415,-0.0175 -0.0625,-0.0312 -0.0181,-0.0125 -0.0439,-0.05 -0.0625,-0.0625 -0.0244,-0.0163 -0.038,-0.015 -0.0625,-0.0312 -0.0141,-0.0113 -0.017,-0.02 -0.0312,-0.0312 -0.0283,-0.02 -0.0655,-0.0413 -0.0937,-0.0625 -0.009,-0.008 -0.0215,-0.0238 -0.0312,-0.0312 -0.0371,-0.0288 -0.0884,-0.0638 -0.125,-0.0937 -1.56051,-1.25375 -2.69974,-3.6725 -3.4375,-7.25 -3.39063,-0.7225 -6.045,-2.8825 -7.875,-6.5 -1.8575,-3.67625 -2.78125,-9.03 -2.78125,-16.0625 0,-7.58125 1.29875,-13.20125 3.84375,-16.75 2.14837,-2.99375 5.13525,-4.4375 8.90625,-4.4375 0.0122,0 -2.375,0 -2.375,0 z m 20.46875,2.625 -1.71875,7.375 2.1875,0.15625 1.78125,-7.53125 -2.25,0 z m -16.625,3.09375 c -0.40526,0 -0.76662,0.0675 -1.125,0.1875 1.33637,0.415 2.33638,1.56375 3.0625,3.4375 0.86725,2.225 1.3125,6.26 1.3125,12.15625 0,6.57 -0.4395,10.975 -1.3125,13.21875 -0.70263,1.81125 -1.668,2.94125 -2.90625,3.375 0.35787,0.135 0.72213,0.21875 1.125,0.21875 0.0761,0 0.17238,-0.0263 0.25,-0.0312 1.71974,-0.10875 2.99613,-1.29625 3.875,-3.5625 0.87299,-2.24375 1.3125,-6.64875 1.3125,-13.21875 0,-5.89625 -0.41449,-9.93125 -1.28125,-12.15625 -0.86713,-2.23625 -2.16699,-3.44125 -3.90625,-3.59375 -0.13338,-0.0113 -0.27875,-0.0312 -0.40625,-0.0312 z m 12.03125,4.25 0,1.125 c 0.32225,1.21375 0.59375,2.5175 0.78125,3.9375 l 1.53125,0.0937 0,19.0625 c 0,2.495 0.5195,4.305 1.53125,5.4375 0.86862,0.9775 2.14988,1.46875 3.8125,1.46875 l 2.21875,0 c -1.66301,0 -2.94387,-0.49125 -3.8125,-1.46875 -1.01225,-1.1325 -1.5,-2.9425 -1.5,-5.4375 l 0,-19.0625 -2.3125,-0.125 0,-5.03125 -2.25,0 z m 11.125,5.4375 0,0.125 2.5625,0.0937 2.25,0 -4.8125,-0.21875 z m 2.90625,19.8125 c -0.67576,0.3075 -1.29588,0.54375 -1.90625,0.6875 0.24512,0.12125 0.53225,0.1875 0.875,0.1875 0.0596,0 0.12599,0.004 0.1875,0 0.94675,-0.055 1.97213,-0.36375 3.09375,-0.875 l -2.25,0 z m -19.21875,11.90625 c 0.25,0.0387 0.54874,0.0625 0.84375,0.0625 0.29923,0 0.6275,-0.0238 0.96875,-0.0625 l -1.8125,0 z"
         id="path2470"
         style="fill:#006325;fill-opacity:1;fill-rule:nonzero;stroke:none" />
    </g>
    <g
       transform="matrix(0.01518741,0,0,0.0208676,125.68637,1054.6104)"
       id="g6707"
       style="opacity:0.62886598">
      <rect
         style="color:#000000;display:inline;overflow:visible;visibility:visible;opacity:0.40206185;fill:url(#linearGradient3858);fill-opacity:1;fill-rule:nonzero;stroke:none;stroke-width:1;stroke-linecap:round;stroke-linejoin:miter;stroke-miterlimit:4;stroke-dasharray:none;stroke-dashoffset:0;stroke-opacity:1;marker:none;marker-start:none;marker-mid:none;marker-end:none"
         id="rect6709"
         width="1339.6335"
         height="478.35718"
         x="-1559.2523"
         y="-150.69685" />
      <path
         inkscape:connector-curvature="0"
         style="color:#000000;display:inline;overflow:visible;visibility:visible;opacity:0.40206185;fill:url(#radialGradient6717);fill-opacity:1;fill-rule:nonzero;stroke:none;stroke-width:1;stroke-linecap:round;stroke-linejoin:miter;stroke-miterlimit:4;stroke-dasharray:none;stroke-dashoffset:0;stroke-opacity:1;marker:none;marker-start:none;marker-mid:none;marker-end:none"
         d="m -219.61876,-150.68038 c 0,0 0,478.33079 0,478.33079 142.874166,0.90045 345.40022,-107.16966 345.40014,-239.196175 0,-132.026537 -159.436816,-239.134595 -345.40014,-239.134615 z"
         id="path6711"
         sodipodi:nodetypes="cccc" />
      <path
         inkscape:connector-curvature="0"
         sodipodi:nodetypes="cccc"
         id="path6713"
         d="m -1559.2523,-150.68038 c 0,0 0,478.33079 0,478.33079 -142.8742,0.90045 -345.4002,-107.16966 -345.4002,-239.196175 0,-132.026537 159.4368,-239.134595 345.4002,-239.134615 z"
         style="color:#000000;display:inline;overflow:visible;visibility:visible;opacity:0.40206185;fill:url(#radialGradient6719);fill-opacity:1;fill-rule:nonzero;stroke:none;stroke-width:1;stroke-linecap:round;stroke-linejoin:miter;stroke-miterlimit:4;stroke-dasharray:none;stroke-dashoffset:0;stroke-opacity:1;marker:none;marker-start:none;marker-mid:none;marker-end:none" />
    </g>
    <g
       id="g6865"
       transform="matrix(0.01518741,0,0,0.0208676,135.43637,1044.6104)">
      <rect
         y="-150.69685"
         x="-1559.2523"
         height="478.35718"
         width="1339.6335"
         id="rect6867"
         style="color:#000000;display:inline;overflow:visible;visibility:visible;opacity:0.40206185;fill:url(#linearGradient6873);fill-opacity:1;fill-rule:nonzero;stroke:none;stroke-width:1;stroke-linecap:round;stroke-linejoin:miter;stroke-miterlimit:4;stroke-dasharray:none;stroke-dashoffset:0;stroke-opacity:1;marker:none;marker-start:none;marker-mid:none;marker-end:none" />
      <path
         inkscape:connector-curvature="0"
         sodipodi:nodetypes="cccc"
         id="path6869"
         d="m -219.61876,-150.68038 c 0,0 0,478.33079 0,478.33079 142.874166,0.90045 345.40022,-107.16966 345.40014,-239.196175 0,-132.026537 -159.436816,-239.134595 -345.40014,-239.134615 z"
         style="color:#000000;display:inline;overflow:visible;visibility:visible;opacity:0.40206185;fill:url(#radialGradient6875);fill-opacity:1;fill-rule:nonzero;stroke:none;stroke-width:1;stroke-linecap:round;stroke-linejoin:miter;stroke-miterlimit:4;stroke-dasharray:none;stroke-dashoffset:0;stroke-opacity:1;marker:none;marker-start:none;marker-mid:none;marker-end:none" />
      <path
         inkscape:connector-curvature="0"
         style="color:#000000;display:inline;overflow:visible;visibility:visible;opacity:0.40206185;fill:url(#radialGradient6877);fill-opacity:1;fill-rule:nonzero;stroke:none;stroke-width:1;stroke-linecap:round;stroke-linejoin:miter;stroke-miterlimit:4;stroke-dasharray:none;stroke-dashoffset:0;stroke-opacity:1;marker:none;marker-start:none;marker-mid:none;marker-end:none"
         d="m -1559.2523,-150.68038 c 0,0 0,478.33079 0,478.33079 -142.8742,0.90045 -345.4002,-107.16966 -345.4002,-239.196175 0,-132.026537 159.4368,-239.134595 345.4002,-239.134615 z"
         id="path6871"
         sodipodi:nodetypes="cccc" />
    </g>
    <ellipse
       ry="4.3588281"
       rx="15.808887"
       cy="1053.1425"
       cx="123.33384"
       style="color:#000000;display:block;overflow:visible;visibility:visible;opacity:0.12025314;fill:url(#radialGradient29439);fill-opacity:1;fill-rule:nonzero;stroke:none;stroke-width:1;stroke-linecap:butt;stroke-linejoin:miter;stroke-miterlimit:4;stroke-dashoffset:0;stroke-opacity:1;marker:none;marker-start:none;marker-mid:none;marker-end:none"
       id="path29431" />
    <path
       inkscape:connector-curvature="0"
       style="color:#000000;display:block;overflow:visible;visibility:visible;fill:url(#linearGradient29429);fill-opacity:1;fill-rule:nonzero;stroke:#787878;stroke-width:0.99999976;stroke-linecap:butt;stroke-linejoin:miter;stroke-miterlimit:4;stroke-dashoffset:0;stroke-opacity:1;marker:none;marker-start:none;marker-mid:none;marker-end:none"
       d="m 111.57977,1029.2777 c -1.0713,0 -1.9207,0.8634 -1.9207,1.9135 l 0,15.0616 c 0,1.0502 0.8498,1.8827 1.9207,1.8827 l 14.1372,0 c 0.8563,1.1037 2.5227,2.8932 6.5176,4.3827 -1.7786,-2.0489 -1.7748,-3.4403 -1.5743,-4.3827 l 2.8967,0 c 1.0714,0 1.9522,-0.8325 1.9522,-1.8827 l 0,-15.0616 c 0,-1.0501 -0.8807,-1.9135 -1.9522,-1.9135 l -21.9772,0 z"
       id="rect29408" />
    <path
       inkscape:connector-curvature="0"
       id="path29445"
       d="m 111.99127,1030.2823 c -0.9182,0 -1.2925,0.4369 -1.2925,1.337 l 0,13.868 c 0,0.9 0.7277,1.6135 1.6461,1.6135 l 13.8838,0 c 0.7343,0.9459 1.3035,1.9745 3.5151,3.0995 -0.4132,-0.8974 -0.066,-2.1513 0.2169,-3.0995 l 3.4927,0 c 0.9183,0 1.0164,-0.36 1.0164,-1.26 l 0,-14.2215 c 0,-0.9001 -0.2497,-1.2865 -1.1679,-1.2865 l -21.3102,-0.051 z"
       style="color:#000000;display:block;overflow:visible;visibility:visible;fill:none;fill-opacity:1;fill-rule:nonzero;stroke:#ffffff;stroke-width:0.9999994;stroke-linecap:butt;stroke-linejoin:miter;stroke-miterlimit:4;stroke-dashoffset:0;stroke-opacity:1;marker:none;marker-start:none;marker-mid:none;marker-end:none"
       sodipodi:nodetypes="cccccccccccc" />
    <path
       inkscape:connector-curvature="0"
       id="path29441"
       d="m 122.95377,1038.1712 c 1.039,0 1.8628,0.8705 1.8628,1.9295 l 0,15.1871 c 0,1.0589 -0.8234,1.8984 -1.8628,1.8984 l -13.7117,0 c -0.831,1.1129 -2.4469,2.9173 -6.3215,4.4192 1.7251,-2.066 1.7214,-3.469 1.5269,-4.4192 l -2.8096,0 c -1.039,0 -1.893296,-0.8395 -1.893296,-1.8984 l 0,-15.1871 c 0,-1.0589 0.854396,-1.9295 1.893296,-1.9295 l 21.3159,0 z"
       style="color:#000000;display:block;overflow:visible;visibility:visible;fill:url(#linearGradient29443);fill-opacity:1;fill-rule:nonzero;stroke:#787878;stroke-width:0.99999952;stroke-linecap:butt;stroke-linejoin:miter;stroke-miterlimit:4;stroke-dashoffset:0;stroke-opacity:1;marker:none;marker-start:none;marker-mid:none;marker-end:none" />
    <path
       inkscape:connector-curvature="0"
       style="color:#000000;display:block;overflow:visible;visibility:visible;fill:none;fill-opacity:1;fill-rule:nonzero;stroke:#ffffff;stroke-width:0.99999994;stroke-linecap:butt;stroke-linejoin:miter;stroke-miterlimit:4;stroke-dashoffset:0;stroke-opacity:1;marker:none;marker-start:none;marker-mid:none;marker-end:none"
       d="m 122.56737,1039.1597 c 0.9424,0 1.2351,0.4614 1.2351,1.4218 l 0,14.2042 c 0,0.9605 -0.2423,1.3683 -1.1846,1.3683 l -13.9014,0 c -0.7531,1.0095 -2.0678,2.5956 -3.5113,3.2507 0.4028,-1.1668 0.2479,-2.1363 0.1727,-3.2507 l -3.4069,0 c -0.9424,0 -1.2123,-0.4078 -1.2123,-1.3683 l 0,-14.0779 c 0,-0.9605 0.2695,-1.5481 1.2123,-1.5481 l 20.5964,0 z"
       id="path29449"
       sodipodi:nodetypes="cccccccccccc" />
    <ellipse
       ry="2.9733098"
       rx="9.9286928"
       cy="1050.4905"
       cx="37.146175"
       style="color:#000000;display:inline;overflow:visible;visibility:visible;opacity:0.63068183;fill:url(#radialGradient21650);fill-opacity:1;fill-rule:evenodd;stroke:none;stroke-width:1;stroke-linecap:round;stroke-linejoin:round;stroke-miterlimit:4;stroke-dasharray:none;stroke-dashoffset:0;stroke-opacity:1;marker:none;marker-start:none;marker-mid:none;marker-end:none"
       id="path21642" />
    <ellipse
       ry="10.854387"
       rx="11.02539"
       cy="1040.777"
       cx="36.88512"
       style="fill:url(#radialGradient2207);fill-opacity:1;stroke:#204a87;stroke-width:0.50006843"
       id="path2093" />
    <ellipse
       ry="9.8892212"
       rx="10.046273"
       cy="1040.7782"
       cx="36.884399"
       id="path2209"
       style="opacity:0.96022728;fill:none;fill-opacity:1;stroke:#ffffff;stroke-width:1.38091481;stroke-miterlimit:4;stroke-dasharray:none;stroke-opacity:1" />
    <path
       inkscape:href="#text2215"
       sodipodi:type="inkscape:offset"
       inkscape:radius="0.13495015"
       inkscape:original="M -20.25 6 C -21.298341 6.000026 -22.372769 6.1244771 -23.5 6.34375 C -24.627244 6.563073 -25.886043 6.8832479 -27.25 7.34375 L -27.25 12.5 C -26.100219 11.776335 -24.997109 11.236862 -23.9375 10.875 C -22.877902 10.502213 -21.881822 10.312521 -20.96875 10.3125 C -19.999334 10.312521 -19.259834 10.530174 -18.71875 10.96875 C -18.177686 11.396402 -17.906262 12.013726 -17.90625 12.78125 C -17.906261 13.285654 -18.039408 13.776881 -18.34375 14.28125 C -18.636843 14.785651 -19.107484 15.33609 -19.75 15.90625 L -20.84375 16.84375 C -22.038631 17.918325 -22.815518 18.829509 -23.1875 19.53125 C -23.559495 20.22205 -23.750005 21.007137 -23.75 21.90625 L -23.75 22.71875 L -17.65625 22.71875 L -17.65625 21.96875 C -17.656262 21.475338 -17.517981 21.030712 -17.28125 20.625 C -17.044542 20.208345 -16.547785 19.648586 -15.78125 18.96875 L -14.71875 18.03125 C -13.659161 17.055386 -12.908389 16.156813 -12.46875 15.3125 C -12.029144 14.457253 -11.781268 13.480828 -11.78125 12.40625 C -11.781268 10.311973 -12.525902 8.7417969 -13.96875 7.65625 C -15.41163 6.559783 -17.499549 6.0000261 -20.25 6 z M -23.75 25.15625 L -23.75 31 L -17.65625 31 L -17.65625 25.15625 L -23.75 25.15625 z "
       xlink:href="#text2215"
       style="font-style:normal;font-variant:normal;font-weight:bold;font-stretch:normal;font-size:34.15322876px;line-height:125%;font-family:'Bitstream Vera Sans';text-align:start;writing-mode:lr-tb;text-anchor:start;fill:url(#radialGradient2437);fill-opacity:1;stroke:#ffffff;stroke-width:1.09947276px;stroke-linecap:butt;stroke-linejoin:miter;stroke-opacity:0.78612713"
       id="path1554"
       d="m -20.25,5.8652344 c -1.059019,2.62e-5 -2.141777,0.1251887 -3.275391,0.3457031 -1.132924,0.2204283 -2.39774,0.5433719 -3.767578,1.0058594 a 0.13496364,0.13496364 0 0 0 -0.0918,0.1269531 l 0,5.15625 a 0.13496364,0.13496364 0 0 0 0.207032,0.113281 c 1.142437,-0.719043 2.235305,-1.253465 3.283203,-1.611328 a 0.13496364,0.13496364 0 0 0 0.002,0 c 1.048141,-0.368756 2.029444,-0.554667 2.923828,-0.554687 0.949218,2e-5 1.652737,0.212498 2.164062,0.626953 a 0.13496364,0.13496364 0 0 0 0.002,0 c 0.508723,0.40209 0.761707,0.971321 0.761718,1.707031 -10e-6,0.480657 -0.124656,0.943598 -0.417968,1.429688 a 0.13496364,0.13496364 0 0 0 -0.002,0.002 c -0.28299,0.487015 -0.744171,1.028541 -1.378906,1.591797 l -1.091797,0.9375 a 0.13496364,0.13496364 0 0 0 -0.002,0.002 c -1.201459,1.08049 -1.987289,1.996881 -2.373047,2.724609 -0.382558,0.711068 -0.57813,1.519995 -0.578125,2.4375 l 0,0.8125 A 0.13496364,0.13496364 0 0 0 -23.75,22.853516 l 6.09375,0 a 0.13496364,0.13496364 0 0 0 0.134766,-0.134766 l 0,-0.75 c -1.2e-5,-0.468196 0.130791,-0.88699 0.357422,-1.275391 a 0.13496364,0.13496364 0 0 0 0,-0.002 c 0.222294,-0.391284 0.711979,-0.946453 1.472656,-1.621094 l 1.0625,-0.9375 a 0.13496364,0.13496364 0 0 0 0.002,-0.002 c 1.066588,-0.98231 1.826753,-1.890513 2.277344,-2.755859 0.449268,-0.874046 0.703106,-1.87342 0.703125,-2.96875 -1.9e-5,-2.126265 -0.765254,-3.7476994 -2.240235,-4.8574219 C -15.361916,6.4278029 -17.48124,5.8652606 -20.25,5.8652344 Z m -3.513672,19.1562496 a 0.13496364,0.13496364 0 0 0 -0.121094,0.134766 l 0,5.84375 A 0.13496364,0.13496364 0 0 0 -23.75,31.134766 l 6.09375,0 A 0.13496364,0.13496364 0 0 0 -17.521484,31 l 0,-5.84375 a 0.13496364,0.13496364 0 0 0 -0.134766,-0.134766 l -6.09375,0 a 0.13496364,0.13496364 0 0 0 -0.01367,0 z"
       transform="matrix(0.45643776,0,0,0.44147962,46.406164,1032.61)" />
  </g>
</svg>
