<?xml version="1.0" encoding="UTF-8" standalone="no"?>
<!-- Created with Inkscape (http://www.inkscape.org/) -->

<svg
   xmlns:dc="http://purl.org/dc/elements/1.1/"
   xmlns:cc="http://creativecommons.org/ns#"
   xmlns:rdf="http://www.w3.org/1999/02/22-rdf-syntax-ns#"
   xmlns:svg="http://www.w3.org/2000/svg"
   xmlns="http://www.w3.org/2000/svg"
   xmlns:xlink="http://www.w3.org/1999/xlink"
   xmlns:sodipodi="http://sodipodi.sourceforge.net/DTD/sodipodi-0.dtd"
   xmlns:inkscape="http://www.inkscape.org/namespaces/inkscape"
   width="48.000000px"
   height="48.000000px"
   id="svg2327"
   sodipodi:version="0.32"
   inkscape:version="0.91 r13725"
   sodipodi:docname="cs-desktop-effects.svg"
   inkscape:output_extension="org.inkscape.output.svg.inkscape"
   version="1.1">
  <defs
     id="defs3">
    <inkscape:perspective
       sodipodi:type="inkscape:persp3d"
       inkscape:vp_x="0 : 24 : 1"
       inkscape:vp_y="0 : 1000 : 0"
       inkscape:vp_z="48 : 24 : 1"
       inkscape:persp3d-origin="24 : 16 : 1"
       id="perspective71" />
    <linearGradient
       id="linearGradient2329">
      <stop
         id="stop2331"
         offset="0.0000000"
         style="stop-color:#ffffff;stop-opacity:1.0000000;" />
      <stop
         id="stop2333"
         offset="1.0000000"
         style="stop-color:#ffffff;stop-opacity:0.0000000;" />
    </linearGradient>
    <linearGradient
       id="linearGradient2321"
       inkscape:collect="always">
      <stop
         id="stop2323"
         offset="0"
         style="stop-color:#7b7f7a;stop-opacity:1;" />
      <stop
         id="stop2325"
         offset="1"
         style="stop-color:#7b7f7a;stop-opacity:0;" />
    </linearGradient>
    <linearGradient
       id="linearGradient2711">
      <stop
         id="stop2713"
         offset="0.0000000"
         style="stop-color:#909090;stop-opacity:1.0000000;" />
      <stop
         id="stop2715"
         offset="1.0000000"
         style="stop-color:#bebebe;stop-opacity:0.0000000;" />
    </linearGradient>
    <linearGradient
       id="linearGradient2701">
      <stop
         id="stop2703"
         offset="0.0000000"
         style="stop-color:#585956;stop-opacity:1.0000000;" />
      <stop
         id="stop2705"
         offset="1.0000000"
         style="stop-color:#bbbeb8;stop-opacity:1.0000000;" />
    </linearGradient>
    <linearGradient
       id="linearGradient2683"
       inkscape:collect="always">
      <stop
         id="stop2685"
         offset="0"
         style="stop-color:#000000;stop-opacity:1;" />
      <stop
         id="stop2687"
         offset="1"
         style="stop-color:#000000;stop-opacity:0;" />
    </linearGradient>
    <linearGradient
       id="linearGradient2675">
      <stop
         id="stop2677"
         offset="0.0000000"
         style="stop-color:#5b5b97;stop-opacity:1.0000000;" />
      <stop
         id="stop2679"
         offset="1.0000000"
         style="stop-color:#1b1b43;stop-opacity:1.0000000;" />
    </linearGradient>
    <linearGradient
       id="linearGradient2667">
      <stop
         id="stop2669"
         offset="0.0000000"
         style="stop-color:#ffffff;stop-opacity:1.0000000;" />
      <stop
         id="stop2671"
         offset="1.0000000"
         style="stop-color:#fcfcff;stop-opacity:0.0000000;" />
    </linearGradient>
    <linearGradient
       inkscape:collect="always"
       id="linearGradient2454">
      <stop
         style="stop-color:#000000;stop-opacity:1;"
         offset="0"
         id="stop2456" />
      <stop
         style="stop-color:#000000;stop-opacity:0;"
         offset="1"
         id="stop2458" />
    </linearGradient>
    <linearGradient
       inkscape:collect="always"
       id="linearGradient2415">
      <stop
         style="stop-color:#ffffff;stop-opacity:1;"
         offset="0"
         id="stop2417" />
      <stop
         style="stop-color:#ffffff;stop-opacity:0;"
         offset="1"
         id="stop2419" />
    </linearGradient>
    <linearGradient
       id="linearGradient2253">
      <stop
         style="stop-color:#8f8f8f;stop-opacity:1.0000000;"
         offset="0.0000000"
         id="stop2255" />
      <stop
         style="stop-color:#494949;stop-opacity:1.0000000;"
         offset="1.0000000"
         id="stop2257" />
    </linearGradient>
    <linearGradient
       id="linearGradient2245">
      <stop
         style="stop-color:#dde1d9;stop-opacity:1.0000000;"
         offset="0.0000000"
         id="stop2247" />
      <stop
         style="stop-color:#cacdc6;stop-opacity:1.0000000;"
         offset="1.0000000"
         id="stop2249" />
    </linearGradient>
    <linearGradient
       inkscape:collect="always"
       xlink:href="#linearGradient2245"
       id="linearGradient2251"
       gradientTransform="matrix(1.129863,0.000000,0.000000,0.885063,2.875000,1.570628)"
       x1="8.6116238"
       y1="7.2293582"
       x2="34.784473"
       y2="33.339787"
       gradientUnits="userSpaceOnUse" />
    <linearGradient
       inkscape:collect="always"
       xlink:href="#linearGradient2415"
       id="linearGradient2421"
       gradientTransform="matrix(1.108069,0.000000,0.000000,0.902471,5.500000,3.875000)"
       x1="17.698339"
       y1="13.004725"
       x2="34.974548"
       y2="55.200756"
       gradientUnits="userSpaceOnUse" />
    <radialGradient
       inkscape:collect="always"
       xlink:href="#linearGradient2454"
       id="radialGradient2460"
       gradientTransform="scale(1.925808,0.519262)"
       cx="12.575710"
       cy="67.501709"
       fx="12.575710"
       fy="67.501709"
       r="8.7662794"
       gradientUnits="userSpaceOnUse" />
    <linearGradient
       gradientUnits="userSpaceOnUse"
       y2="26.729263"
       x2="17.199417"
       y1="1.6537577"
       x1="11.492236"
       gradientTransform="matrix(1.238977,0.000000,0.000000,0.895955,5.090553,1.543476)"
       id="linearGradient2673"
       xlink:href="#linearGradient2667"
       inkscape:collect="always" />
    <linearGradient
       gradientUnits="userSpaceOnUse"
       y2="8.8666229"
       x2="16.315819"
       y1="32.622238"
       x1="19.150396"
       gradientTransform="matrix(1.174139,0.000000,0.000000,0.945431,5.221825,1.543476)"
       id="linearGradient2681"
       xlink:href="#linearGradient2675"
       inkscape:collect="always" />
    <linearGradient
       gradientUnits="userSpaceOnUse"
       y2="162.45061"
       x2="3.7069974"
       y1="171.29134"
       x1="3.7069976"
       gradientTransform="matrix(5.705159,0.000000,0.000000,0.175280,5.500000,2.195627)"
       id="linearGradient2689"
       xlink:href="#linearGradient2683"
       inkscape:collect="always" />
    <linearGradient
       gradientUnits="userSpaceOnUse"
       y2="64.892525"
       x2="12.127711"
       y1="53.535141"
       x1="12.206709"
       gradientTransform="matrix(1.816345,0.000000,0.000000,1.278927,2.500000,-40.24508)"
       id="linearGradient2707"
       xlink:href="#linearGradient2701"
       inkscape:collect="always" />
    <linearGradient
       gradientUnits="userSpaceOnUse"
       y2="3.8451097"
       x2="35.520542"
       y1="3.9384086"
       x1="34.300991"
       id="linearGradient2717"
       xlink:href="#linearGradient2711"
       inkscape:collect="always" />
    <linearGradient
       y2="3.8451097"
       x2="35.520542"
       y1="3.9384086"
       x1="34.300991"
       gradientUnits="userSpaceOnUse"
       id="linearGradient2721"
       xlink:href="#linearGradient2711"
       inkscape:collect="always" />
    <linearGradient
       y2="3.8451097"
       x2="35.520542"
       y1="3.9384086"
       x1="34.300991"
       gradientUnits="userSpaceOnUse"
       id="linearGradient2725"
       xlink:href="#linearGradient2711"
       inkscape:collect="always" />
    <linearGradient
       y2="3.8451097"
       x2="35.520542"
       y1="3.9384086"
       x1="34.300991"
       gradientUnits="userSpaceOnUse"
       id="linearGradient2729"
       xlink:href="#linearGradient2711"
       inkscape:collect="always" />
    <linearGradient
       y2="3.8451097"
       x2="35.520542"
       y1="3.9384086"
       x1="34.300991"
       gradientUnits="userSpaceOnUse"
       id="linearGradient2733"
       xlink:href="#linearGradient2711"
       inkscape:collect="always" />
    <linearGradient
       y2="31.246054"
       x2="32.536823"
       y1="5.3817744"
       x1="10.390738"
       gradientTransform="matrix(1.104397,0.000000,0.000000,0.905471,4.500000,2.875000)"
       gradientUnits="userSpaceOnUse"
       id="linearGradient1561"
       xlink:href="#linearGradient2253"
       inkscape:collect="always" />
    <linearGradient
       gradientUnits="userSpaceOnUse"
       y2="28.205938"
       x2="-35.658386"
       y1="33.416473"
       x1="-35.658386"
       id="linearGradient2327"
       xlink:href="#linearGradient2321"
       inkscape:collect="always" />
    <linearGradient
       gradientUnits="userSpaceOnUse"
       y2="30.962345"
       x2="-35.074745"
       y1="34.242237"
       x1="-35.122688"
       id="linearGradient2337"
       xlink:href="#linearGradient2329"
       inkscape:collect="always" />
    <linearGradient
       id="linearGradient3338">
      <stop
         id="stop3340"
         offset="0"
         style="stop-color:#eeeeec;stop-opacity:1" />
      <stop
         style="stop-color:#ffffff;stop-opacity:1;"
         offset="0.78888887"
         id="stop3346" />
      <stop
         id="stop3342"
         offset="1"
         style="stop-color:#eeeeec;stop-opacity:1" />
    </linearGradient>
    <linearGradient
       y2="16.859249"
       x2="37.723743"
       y1="16.859249"
       x1="31.994286"
       gradientUnits="userSpaceOnUse"
       id="linearGradient7240"
       xlink:href="#linearGradient3338"
       inkscape:collect="always" />
    <linearGradient
       id="linearGradient3220">
      <stop
         id="stop3222"
         offset="0"
         style="stop-color:#2e3436;stop-opacity:1" />
      <stop
         style="stop-color:#888a85;stop-opacity:1;"
         offset="0.64444447"
         id="stop3228" />
      <stop
         id="stop3224"
         offset="1"
         style="stop-color:#555753;stop-opacity:1" />
    </linearGradient>
    <linearGradient
       y2="41.40625"
       x2="44.8125"
       y1="42.21875"
       x1="42.90625"
       gradientTransform="matrix(0.98896244,0,0,0.99130846,0.72460765,-2.2926577)"
       gradientUnits="userSpaceOnUse"
       id="linearGradient7238"
       xlink:href="#linearGradient3220"
       inkscape:collect="always" />
    <linearGradient
       id="linearGradient3241">
      <stop
         id="stop3243"
         offset="0"
         style="stop-color:#1b1f20;stop-opacity:1;" />
      <stop
         id="stop3245"
         offset="1"
         style="stop-color:#babdb6;stop-opacity:1" />
    </linearGradient>
    <linearGradient
       y2="20.4375"
       x2="36.375"
       y1="26.125"
       x1="39"
       gradientTransform="matrix(0.98896244,0,0,0.99130846,0.72460765,-2.2926577)"
       gradientUnits="userSpaceOnUse"
       id="linearGradient7236"
       xlink:href="#linearGradient3241"
       inkscape:collect="always" />
    <radialGradient
       r="14.4375"
       fy="16.5625"
       fx="32.5"
       cy="16.5625"
       cx="32.5"
       gradientUnits="userSpaceOnUse"
       id="radialGradient7234"
       xlink:href="#linearGradient2329"
       inkscape:collect="always"
       gradientTransform="matrix(0.65857966,0,0,0.66014194,11.462049,4.0596846)" />
    <linearGradient
       y2="24.893845"
       x2="3.2591991"
       y1="12.875"
       x1="31"
       gradientTransform="matrix(0.98896244,0,0,0.99130846,0.72460765,4.6465015)"
       gradientUnits="userSpaceOnUse"
       id="linearGradient7232"
       xlink:href="#linearGradient2329"
       inkscape:collect="always" />
    <linearGradient
       gradientUnits="userSpaceOnUse"
       y2="57.714287"
       x2="25.285715"
       y1="-0.050762694"
       x1="25"
       id="linearGradient6270"
       xlink:href="#linearGradient2329"
       inkscape:collect="always"
       gradientTransform="translate(-27.029087,69.320698)" />
    <linearGradient
       id="linearGradient6252">
      <stop
         id="stop6254"
         offset="0"
         style="stop-color:#8fb3d9;stop-opacity:1" />
      <stop
         style="stop-color:#729fcf;stop-opacity:1"
         offset="0.25"
         id="stop7998" />
      <stop
         id="stop8000"
         offset="0.68000001"
         style="stop-color:#3465a4;stop-opacity:1" />
      <stop
         id="stop6256"
         offset="1"
         style="stop-color:#204a87;stop-opacity:1" />
    </linearGradient>
    <linearGradient
       id="linearGradient5048">
      <stop
         id="stop5050"
         offset="0"
         style="stop-color:black;stop-opacity:0;" />
      <stop
         style="stop-color:black;stop-opacity:1;"
         offset="0.5"
         id="stop5056" />
      <stop
         id="stop5052"
         offset="1"
         style="stop-color:black;stop-opacity:0;" />
    </linearGradient>
  </defs>
  <sodipodi:namedview
     id="base"
     pagecolor="#ffffff"
     bordercolor="#666666"
     borderopacity="0.12156863"
     inkscape:pageopacity="0.0"
     inkscape:pageshadow="2"
     inkscape:zoom="5.6568542"
     inkscape:cx="26.164437"
     inkscape:cy="12.355857"
     inkscape:current-layer="layer1"
     showgrid="false"
     inkscape:grid-bbox="true"
     inkscape:document-units="px"
     inkscape:window-width="854"
     inkscape:window-height="704"
     inkscape:window-x="575"
     inkscape:window-y="57"
     inkscape:showpageshadow="false"
     inkscape:window-maximized="0" />
  <metadata
     id="metadata4">
    <rdf:RDF>
      <cc:Work
         rdf:about="">
        <dc:format>image/svg+xml</dc:format>
        <dc:type
           rdf:resource="http://purl.org/dc/dcmitype/StillImage" />
        <dc:title></dc:title>
        <dc:date />
        <dc:creator>
          <cc:Agent>
            <dc:title>Jakub Steiner</dc:title>
          </cc:Agent>
        </dc:creator>
        <dc:subject>
          <rdf:Bag>
            <rdf:li>video</rdf:li>
            <rdf:li>display</rdf:li>
            <rdf:li>monitor</rdf:li>
            <rdf:li>LCD</rdf:li>
            <rdf:li>CRT</rdf:li>
          </rdf:Bag>
        </dc:subject>
        <cc:license
           rdf:resource="http://creativecommons.org/licenses/publicdomain/" />
        <dc:source>http://jimmac.musichall.cz/</dc:source>
      </cc:Work>
      <cc:License
         rdf:about="http://creativecommons.org/licenses/publicdomain/">
        <cc:permits
           rdf:resource="http://creativecommons.org/ns#Reproduction" />
        <cc:permits
           rdf:resource="http://creativecommons.org/ns#Distribution" />
        <cc:permits
           rdf:resource="http://creativecommons.org/ns#DerivativeWorks" />
      </cc:License>
    </rdf:RDF>
  </metadata>
  <g
     id="layer1"
     inkscape:label="Layer 1"
     inkscape:groupmode="layer">
    <path
       sodipodi:type="arc"
       style="opacity:0.50857143;overflow:visible;display:inline;visibility:visible;stroke-opacity:0.70063692;stroke-dashoffset:0.0000000;stroke-miterlimit:4.0000000;marker-end:none;marker-mid:none;marker-start:none;marker:none;stroke-linejoin:miter;stroke-linecap:round;stroke-width:1.0000000;stroke:none;fill-rule:evenodd;fill-opacity:1.0000000;fill:url(#radialGradient2460);color:#000000"
       id="path2452"
       sodipodi:cx="24.218407"
       sodipodi:cy="35.051105"
       sodipodi:rx="16.882174"
       sodipodi:ry="4.5520000"
       d="M 41.100580 35.051105 A 16.882174 4.5520000 0 1 1  7.3362331,35.051105 A 16.882174 4.5520000 0 1 1  41.100580 35.051105 z"
       transform="matrix(1.050251,0.000000,0.000000,1.867888,-0.945558,-28.10611)" />
    <path
       sodipodi:type="arc"
       style="color:#000000;fill:#adb0aa;fill-opacity:1.0000000;fill-rule:evenodd;stroke:#4b4d4a;stroke-width:1.0000000;stroke-linecap:butt;stroke-linejoin:miter;marker:none;marker-start:none;marker-mid:none;marker-end:none;stroke-miterlimit:4.0000000;stroke-dashoffset:0.0000000;stroke-opacity:1.0000000;visibility:visible;display:inline;overflow:visible"
       id="path2407"
       sodipodi:cx="-35.658386"
       sodipodi:cy="29.716238"
       sodipodi:rx="9.3944187"
       sodipodi:ry="3.9395950"
       d="M -26.263968 29.716238 A 9.3944187 3.9395950 0 1 1  -45.052805,29.716238 A 9.3944187 3.9395950 0 1 1  -26.263968 29.716238 z"
       transform="translate(60.03339,8.078430)" />
    <path
       transform="matrix(0.902373,0.000000,0.000000,0.827650,56.55215,12.86792)"
       d="M -26.263968 29.716238 A 9.3944187 3.9395950 0 1 1  -45.052805,29.716238 A 9.3944187 3.9395950 0 1 1  -26.263968 29.716238 z"
       sodipodi:ry="3.9395950"
       sodipodi:rx="9.3944187"
       sodipodi:cy="29.716238"
       sodipodi:cx="-35.658386"
       id="path1825"
       style="color:#000000;fill:none;fill-opacity:1.0000000;fill-rule:evenodd;stroke:url(#linearGradient2327);stroke-width:1.1571338;stroke-linecap:butt;stroke-linejoin:miter;marker:none;marker-start:none;marker-mid:none;marker-end:none;stroke-miterlimit:4.0000000;stroke-dasharray:none;stroke-dashoffset:0.0000000;stroke-opacity:1.0000000;visibility:visible;display:inline;overflow:visible"
       sodipodi:type="arc" />
    <path
       sodipodi:type="arc"
       style="color:#000000;fill:none;fill-opacity:1.0000000;fill-rule:evenodd;stroke:url(#linearGradient2337);stroke-width:1.1833371;stroke-linecap:butt;stroke-linejoin:miter;marker:none;marker-start:none;marker-mid:none;marker-end:none;stroke-miterlimit:4.0000000;stroke-dasharray:none;stroke-dashoffset:0.0000000;stroke-opacity:1.0000000;visibility:visible;display:inline;overflow:visible"
       id="path2983"
       sodipodi:cx="-35.658386"
       sodipodi:cy="29.716238"
       sodipodi:rx="9.3944187"
       sodipodi:ry="3.9395950"
       d="M -26.263968 29.716238 A 9.3944187 3.9395950 0 1 1  -45.052805,29.716238 A 9.3944187 3.9395950 0 1 1  -26.263968 29.716238 z"
       transform="matrix(0.837548,0.000000,0.000000,0.852655,54.17811,11.00615)" />
    <rect
       y="31.078613"
       x="19.972397"
       height="6.3650389"
       width="9.0396729"
       id="rect2699"
       style="color:#000000;fill:url(#linearGradient2707);fill-opacity:1.0000000;fill-rule:evenodd;stroke:none;stroke-width:0.60872948;stroke-linecap:butt;stroke-linejoin:miter;marker:none;marker-start:none;marker-mid:none;marker-end:none;stroke-miterlimit:4.0000000;stroke-dashoffset:0.0000000;stroke-opacity:1.0000000;visibility:visible;display:inline;overflow:visible" />
    <path
       style="color:#000000;fill:url(#linearGradient2251);fill-opacity:1.0000000;fill-rule:evenodd;stroke:url(#linearGradient1561);stroke-width:1.0000000;stroke-linecap:butt;stroke-linejoin:miter;marker:none;marker-start:none;marker-mid:none;marker-end:none;stroke-miterlimit:4.0000000;stroke-dashoffset:0.0000000;stroke-opacity:1.0000000;visibility:visible;display:inline;overflow:visible"
       d="M 7.5809024,4.5706221 L 41.169097,4.5706221 C 42.080439,4.5706221 42.793244,5.1541039 42.835849,5.9722091 L 44.167893,31.550323 C 44.226102,32.668058 43.266837,33.570628 42.147588,33.570628 L 6.6024120,33.570628 C 5.4831629,33.570628 4.5238980,32.668058 4.5821068,31.550323 L 5.9141506,5.9722091 C 5.9544343,5.1986745 6.4616533,4.5706221 7.5809024,4.5706221 z "
       id="rect2404"
       sodipodi:nodetypes="cssssssss" />
    <path
       sodipodi:nodetypes="ccccc"
       id="path2377"
       d="M 8.9105350,7.1808270 L 7.6683398,29.226144 L 39.318729,29.226144 L 37.983712,7.2742560 L 8.9105350,7.1808270 z "
       style="fill:url(#linearGradient2681);fill-opacity:1.0000000;fill-rule:evenodd;stroke:#000079;stroke-width:0.50000000;stroke-linecap:butt;stroke-linejoin:round;stroke-miterlimit:4.0000000;stroke-dasharray:none;stroke-opacity:1.0000000" />
    <path
       sodipodi:nodetypes="cc"
       style="fill:none;fill-opacity:0.75000000;fill-rule:evenodd;stroke:url(#linearGradient2689);stroke-width:0.99618119;stroke-linecap:round;stroke-linejoin:miter;stroke-miterlimit:4.0000000;stroke-opacity:0.24840762"
       d="M 6.6774331,31.610789 L 42.105910,31.610789"
       id="path2393" />
    <path
       sodipodi:nodetypes="cssssssss"
       id="path2397"
       d="M 7.4145985,5.5813396 L 41.260101,5.5435383 C 41.543798,5.5432214 41.819403,5.7807881 41.842206,6.1960820 L 43.204098,30.999330 C 43.262137,32.056361 42.664349,32.785201 41.605727,32.785201 L 7.0817583,32.785201 C 6.0231355,32.785201 5.4887439,32.056410 5.5458869,30.999330 L 6.8699773,6.5051630 C 6.9086732,5.7893326 7.0363626,5.5817620 7.4145985,5.5813396 z "
       style="color:#000000;fill:none;fill-opacity:1.0000000;fill-rule:evenodd;stroke:url(#linearGradient2421);stroke-width:0.99999964;stroke-linecap:butt;stroke-linejoin:miter;marker:none;marker-start:none;marker-mid:none;marker-end:none;stroke-miterlimit:4.0000000;stroke-dashoffset:0.0000000;stroke-opacity:0.70063692;visibility:visible;display:inline;overflow:visible" />
    <path
       sodipodi:nodetypes="ccccc"
       style="opacity:0.53142858;fill:url(#linearGradient2673);fill-opacity:1.0000000;fill-rule:evenodd;stroke:none;stroke-width:0.25000000pt;stroke-linecap:butt;stroke-linejoin:miter;stroke-opacity:1.0000000"
       d="M 9.2115360,7.6213630 L 8.4090070,25.491693 C 19.453645,23.091063 23.830470,14.999494 37.563039,12.344943 L 37.401567,7.6874270 L 9.2115360,7.6213630 z "
       id="path2443" />
    <path
       transform="matrix(1.331237,0.000000,0.000000,0.658449,-5.919330,5.728866)"
       d="M 35.620504 3.9384086 A 0.83968931 0.83968931 0 1 1  33.941126,3.9384086 A 0.83968931 0.83968931 0 1 1  35.620504 3.9384086 z"
       sodipodi:ry="0.83968931"
       sodipodi:rx="0.83968931"
       sodipodi:cy="3.9384086"
       sodipodi:cx="34.780815"
       id="path2709"
       style="color:#000000;fill:url(#linearGradient2717);fill-opacity:1.0000000;fill-rule:evenodd;stroke:none;stroke-width:0.50000000;stroke-linecap:butt;stroke-linejoin:miter;marker:none;marker-start:none;marker-mid:none;marker-end:none;stroke-miterlimit:4.0000000;stroke-dashoffset:0.0000000;stroke-opacity:1.0000000;visibility:visible;display:inline;overflow:visible"
       sodipodi:type="arc" />
    <path
       sodipodi:type="arc"
       style="color:#000000;fill:url(#linearGradient2721);fill-opacity:1.0000000;fill-rule:evenodd;stroke:none;stroke-width:0.50000000;stroke-linecap:butt;stroke-linejoin:miter;marker:none;marker-start:none;marker-mid:none;marker-end:none;stroke-miterlimit:4.0000000;stroke-dashoffset:0.0000000;stroke-opacity:1.0000000;visibility:visible;display:inline;overflow:visible"
       id="path2719"
       sodipodi:cx="34.780815"
       sodipodi:cy="3.9384086"
       sodipodi:rx="0.83968931"
       sodipodi:ry="0.83968931"
       d="M 35.620504 3.9384086 A 0.83968931 0.83968931 0 1 1  33.941126,3.9384086 A 0.83968931 0.83968931 0 1 1  35.620504 3.9384086 z"
       transform="matrix(1.331237,0.000000,0.000000,0.658449,-5.805730,7.834650)" />
    <path
       transform="matrix(1.331237,0.000000,0.000000,0.658449,-5.692130,9.834650)"
       d="M 35.620504 3.9384086 A 0.83968931 0.83968931 0 1 1  33.941126,3.9384086 A 0.83968931 0.83968931 0 1 1  35.620504 3.9384086 z"
       sodipodi:ry="0.83968931"
       sodipodi:rx="0.83968931"
       sodipodi:cy="3.9384086"
       sodipodi:cx="34.780815"
       id="path2723"
       style="color:#000000;fill:url(#linearGradient2725);fill-opacity:1.0000000;fill-rule:evenodd;stroke:none;stroke-width:0.50000000;stroke-linecap:butt;stroke-linejoin:miter;marker:none;marker-start:none;marker-mid:none;marker-end:none;stroke-miterlimit:4.0000000;stroke-dashoffset:0.0000000;stroke-opacity:1.0000000;visibility:visible;display:inline;overflow:visible"
       sodipodi:type="arc" />
    <path
       sodipodi:type="arc"
       style="color:#000000;fill:url(#linearGradient2729);fill-opacity:1.0000000;fill-rule:evenodd;stroke:none;stroke-width:0.50000000;stroke-linecap:butt;stroke-linejoin:miter;marker:none;marker-start:none;marker-mid:none;marker-end:none;stroke-miterlimit:4.0000000;stroke-dashoffset:0.0000000;stroke-opacity:1.0000000;visibility:visible;display:inline;overflow:visible"
       id="path2727"
       sodipodi:cx="34.780815"
       sodipodi:cy="3.9384086"
       sodipodi:rx="0.83968931"
       sodipodi:ry="0.83968931"
       d="M 35.620504 3.9384086 A 0.83968931 0.83968931 0 1 1  33.941126,3.9384086 A 0.83968931 0.83968931 0 1 1  35.620504 3.9384086 z"
       transform="matrix(1.331237,0.000000,0.000000,0.658449,-5.578530,11.83465)" />
    <path
       transform="matrix(1.331237,0.000000,0.000000,0.658449,-5.464930,13.83465)"
       d="M 35.620504 3.9384086 A 0.83968931 0.83968931 0 1 1  33.941126,3.9384086 A 0.83968931 0.83968931 0 1 1  35.620504 3.9384086 z"
       sodipodi:ry="0.83968931"
       sodipodi:rx="0.83968931"
       sodipodi:cy="3.9384086"
       sodipodi:cx="34.780815"
       id="path2731"
       style="color:#000000;fill:url(#linearGradient2733);fill-opacity:1.0000000;fill-rule:evenodd;stroke:none;stroke-width:0.50000000;stroke-linecap:butt;stroke-linejoin:miter;marker:none;marker-start:none;marker-mid:none;marker-end:none;stroke-miterlimit:4.0000000;stroke-dashoffset:0.0000000;stroke-opacity:1.0000000;visibility:visible;display:inline;overflow:visible"
       sodipodi:type="arc" />
    <path
       id="text2735"
       d="M 22.500000,30.192666 L 22.781716,30.192666 C 22.865481,30.192667 22.929701,30.211330 22.974376,30.248656 C 23.019345,30.285690 23.041829,30.338594 23.041830,30.407370 C 23.041829,30.476440 23.019345,30.529638 22.974376,30.566965 C 22.929701,30.603998 22.865481,30.622515 22.781716,30.622515 L 22.669735,30.622515 L 22.669735,30.850885 L 22.500000,30.850885 L 22.500000,30.192666 M 22.669735,30.315669 L 22.669735,30.499512 L 22.763640,30.499512 C 22.796558,30.499512 22.821982,30.491576 22.839911,30.475705 C 22.857839,30.459540 22.866804,30.436762 22.866804,30.407370 C 22.866804,30.377979 22.857839,30.355348 22.839911,30.339476 C 22.821982,30.323605 22.796558,30.315669 22.763640,30.315669 L 22.669735,30.315669 M 23.461979,30.303765 C 23.410250,30.303766 23.370131,30.322870 23.341621,30.361078 C 23.313112,30.399288 23.298857,30.453074 23.298857,30.522437 C 23.298857,30.591507 23.313112,30.645146 23.341621,30.683355 C 23.370131,30.721564 23.410250,30.740668 23.461979,30.740668 C 23.514001,30.740668 23.554267,30.721564 23.582778,30.683355 C 23.611287,30.645146 23.625541,30.591507 23.625542,30.522437 C 23.625541,30.453074 23.611287,30.399288 23.582778,30.361078 C 23.554267,30.322870 23.514001,30.303766 23.461979,30.303765 M 23.461979,30.180762 C 23.567787,30.180763 23.650671,30.211036 23.710630,30.271582 C 23.770588,30.332128 23.800567,30.415747 23.800568,30.522437 C 23.800567,30.628834 23.770588,30.712305 23.710630,30.772851 C 23.650671,30.833398 23.567787,30.863671 23.461979,30.863671 C 23.356464,30.863671 23.273580,30.833398 23.213328,30.772851 C 23.153370,30.712305 23.123391,30.628834 23.123391,30.522437 C 23.123391,30.415747 23.153370,30.332128 23.213328,30.271582 C 23.273580,30.211036 23.356464,30.180763 23.461979,30.180762 M 23.928420,30.192666 L 24.117994,30.192666 L 24.357387,30.644117 L 24.357387,30.192666 L 24.518305,30.192666 L 24.518305,30.850885 L 24.328730,30.850885 L 24.089338,30.399434 L 24.089338,30.850885 L 23.928420,30.850885 L 23.928420,30.192666 M 24.591489,30.192666 L 24.777095,30.192666 L 24.926991,30.427209 L 25.076887,30.192666 L 25.262935,30.192666 L 25.012079,30.573578 L 25.012079,30.850885 L 24.842344,30.850885 L 24.842344,30.573578 L 24.591489,30.192666"
       style="font-size:0.90290260;font-style:normal;font-variant:normal;font-weight:bold;font-stretch:normal;writing-mode:lr-tb;text-anchor:start;fill:#4a4a4a;fill-opacity:1.0000000;stroke:none;stroke-width:1.0000000pt;stroke-linecap:butt;stroke-linejoin:miter;stroke-opacity:1.0000000;font-family:Bitstream Vera Sans" />
    <g
       id="g13071"
       transform="matrix(0.02337934,0,0,0.0227955,44.724036,38.317616)"
       style="display:inline" />
    <rect
       style="opacity:0.5;fill:none;fill-opacity:1;fill-rule:nonzero;stroke:url(#linearGradient6270);stroke-width:1;stroke-linecap:butt;stroke-linejoin:round;stroke-miterlimit:4;stroke-dasharray:none;stroke-opacity:1"
       id="rect6260"
       width="36.996883"
       height="37.00732"
       x="-21.527332"
       y="74.810272"
       rx="1.5067923"
       ry="1.4971586" />
    <g
       id="g2424"
       transform="matrix(0.190868,0.16126,0.16126,-0.190868,-19.748171,93.626827)"
       inkscape:r_cx="true"
       inkscape:r_cy="true"
       style="opacity:0.5;fill:#ffffff;fill-opacity:1;stroke:#ffffff;stroke-opacity:1" />
    <rect
       style="fill:none;fill-opacity:0.75;fill-rule:evenodd;stroke:none;stroke-width:1px;stroke-linecap:butt;stroke-linejoin:miter;stroke-opacity:1"
       id="rect4784"
       width="48"
       height="48"
       x="-27.029087"
       y="73.320702" />
    <path
       inkscape:connector-curvature="0"
       style="display:inline;opacity:0.44444442;fill:url(#linearGradient7232);fill-opacity:1;fill-rule:evenodd;stroke:none;stroke-width:1px;stroke-linecap:butt;stroke-linejoin:miter;stroke-opacity:1"
       d="M 1.0954686,26.703115 C 28.036378,28.415652 11.05807,12.825854 31.876924,12.329143 l 5.230834,11.018431 C 27.607326,18.907196 21.108785,41.719489 0.97184826,28.313991 L 1.0954686,26.703115 Z"
       id="path3337"
       sodipodi:nodetypes="ccccc" />
    <ellipse
       cy="14.993284"
       cx="32.865887"
       style="display:inline;opacity:1;fill:url(#radialGradient7234);fill-opacity:1;stroke:none;stroke-width:5;stroke-linecap:round;stroke-linejoin:round;stroke-miterlimit:4;stroke-dasharray:none;stroke-dashoffset:0;stroke-opacity:1"
       id="path3249"
       rx="9.5082436"
       ry="9.5307989" />
    <path
       inkscape:connector-curvature="0"
       style="display:inline;fill:none;fill-opacity:1;fill-rule:evenodd;stroke:url(#linearGradient7236);stroke-width:3.9605391;stroke-linecap:round;stroke-linejoin:miter;stroke-miterlimit:4;stroke-dasharray:none;stroke-opacity:1"
       d="M 32.865886,14.063933 45.722398,42.811881"
       id="path3218"
       sodipodi:nodetypes="cc" />
    <path
       inkscape:connector-curvature="0"
       style="display:inline;fill:#ffffff;fill-opacity:1;fill-rule:evenodd;stroke:url(#linearGradient7238);stroke-width:1.98026955;stroke-linecap:round;stroke-linejoin:miter;stroke-miterlimit:4;stroke-dasharray:none;stroke-opacity:1"
       d="M 32.865886,14.063933 45.722398,42.811881"
       id="path2243"
       sodipodi:nodetypes="cc" />
    <path
       sodipodi:type="star"
       style="display:inline;opacity:1;fill:#ffffff;fill-opacity:1;stroke:none;stroke-width:4;stroke-linecap:round;stroke-linejoin:round;stroke-miterlimit:4;stroke-dasharray:none;stroke-dashoffset:0;stroke-opacity:1"
       id="path3331"
       sodipodi:sides="5"
       sodipodi:cx="25.575945"
       sodipodi:cy="19.792494"
       sodipodi:r1="7.0156236"
       sodipodi:r2="3.296165"
       sodipodi:arg1="0.57542465"
       sodipodi:arg2="1.2349717"
       inkscape:flatsided="false"
       inkscape:rounded="0"
       inkscape:randomized="0"
       d="m 31.461781,23.610334 -4.799592,-0.705803 -2.898402,3.665503 -0.811898,-4.782788 -4.381756,-1.623842 4.297812,-2.250123 0.190328,-4.669093 3.468092,3.392136 4.499385,-1.261816 -2.154414,4.346579 z"
       transform="matrix(0.98896244,0,0,0.99130846,0.52662356,0.39795789)" />
    <path
       sodipodi:type="star"
       style="display:inline;opacity:1;fill:#ffffff;fill-opacity:1;stroke:none;stroke-width:4;stroke-linecap:round;stroke-linejoin:round;stroke-miterlimit:4;stroke-dasharray:none;stroke-dashoffset:0;stroke-opacity:1"
       id="path3333"
       sodipodi:sides="5"
       sodipodi:cx="10.875"
       sodipodi:cy="21.75"
       sodipodi:r1="5.5127692"
       sodipodi:r2="2.590076"
       sodipodi:arg1="0.57542465"
       sodipodi:arg2="1.2349717"
       inkscape:flatsided="false"
       inkscape:rounded="0"
       inkscape:randomized="0"
       d="m 15.5,24.75 -3.771446,-0.554609 -2.2775199,2.880296 -0.6379769,-3.758241 -3.4431165,-1.27599 3.3771546,-1.768113 0.1495569,-3.668901 2.7251728,2.665488 3.535548,-0.991515 -1.692905,3.415474 z"
       transform="matrix(0.57743905,0.57880885,-0.57743905,0.57880885,24.405593,8.5903003)" />
    <path
       sodipodi:type="star"
       style="display:inline;opacity:1;fill:#ffffff;fill-opacity:1;stroke:none;stroke-width:4;stroke-linecap:round;stroke-linejoin:round;stroke-miterlimit:4;stroke-dasharray:none;stroke-dashoffset:0;stroke-opacity:1"
       id="path3335"
       sodipodi:sides="5"
       sodipodi:cx="10.875"
       sodipodi:cy="21.75"
       sodipodi:r1="5.5127692"
       sodipodi:r2="2.590076"
       sodipodi:arg1="0.57542465"
       sodipodi:arg2="1.2349717"
       inkscape:flatsided="false"
       inkscape:rounded="0"
       inkscape:randomized="0"
       d="m 15.5,24.75 -3.771446,-0.554609 -2.2775199,2.880296 -0.6379769,-3.758241 -3.4431165,-1.27599 3.3771546,-1.768113 0.1495569,-3.668901 2.7251728,2.665488 3.535548,-0.991515 -1.692905,3.415474 z"
       transform="matrix(0.57271072,0.12748594,-0.12718423,0.57406931,5.3812203,15.64953)" />
    <path
       sodipodi:type="inkscape:offset"
       inkscape:radius="0.026945664"
       inkscape:original="M 33.125 11.96875 C 33.008736 11.954002 32.901006 11.971586 32.78125 12 C 32.489313 12.073339 32.252292 12.289732 32.125 12.5625 C 31.997708 12.835268 31.993687 13.135395 32.125 13.40625 L 35.875 21.75 C 36.112714 21.338591 36.476318 21.053356 36.9375 20.9375 C 37.190796 20.877401 37.445043 20.885783 37.6875 20.9375 L 33.9375 12.59375 C 33.797448 12.252099 33.473792 12.012993 33.125 11.96875 z "
       style="display:inline;fill:url(#linearGradient7240);fill-opacity:1;fill-rule:evenodd;stroke:none;stroke-width:2;stroke-linecap:round;stroke-linejoin:miter;stroke-miterlimit:4;stroke-dasharray:none;stroke-opacity:1"
       id="path3336"
       d="m 32.951172,11.941406 c -0.05811,0.0063 -0.115352,0.01887 -0.175781,0.0332 -0.300742,0.07555 -0.545378,0.296738 -0.675782,0.576172 -0.130403,0.279435 -0.132862,0.589107 0.002,0.867188 l -0.002,0 3.75,8.34375 a 0.02694836,0.02694836 0 0 0 0.002,0.002 0.02694836,0.02694836 0 0 0 0.002,0.002 0.02694836,0.02694836 0 0 0 0.002,0.002 0.02694836,0.02694836 0 0 0 0.002,0.002 0.02694836,0.02694836 0 0 0 0.002,0.002 0.02694836,0.02694836 0 0 0 0.002,0.002 0.02694836,0.02694836 0 0 0 0.002,0 0.02694836,0.02694836 0 0 0 0.002,0.002 0.02694836,0.02694836 0 0 0 0.0059,0.002 0.02694836,0.02694836 0 0 0 0.002,0 0.02694836,0.02694836 0 0 0 0.0059,0 0.02694836,0.02694836 0 0 0 0.002,-0.002 0.02694836,0.02694836 0 0 0 0.0059,-0.002 0.02694836,0.02694836 0 0 0 0.002,0 0.02694836,0.02694836 0 0 0 0.002,-0.002 0.02694836,0.02694836 0 0 0 0.002,-0.002 0.02694836,0.02694836 0 0 0 0.002,-0.002 0.02694836,0.02694836 0 0 0 0.002,-0.002 0.02694836,0.02694836 0 0 0 0.002,-0.002 c 0.234458,-0.405775 0.590629,-0.686656 1.044921,-0.800781 0.248808,-0.05903 0.499002,-0.05104 0.738282,0 a 0.02694836,0.02694836 0 0 0 0.002,0.002 0.02694836,0.02694836 0 0 0 0.0059,0 0.02694836,0.02694836 0 0 0 0.0059,-0.002 0.02694836,0.02694836 0 0 0 0.002,0 0.02694836,0.02694836 0 0 0 0.002,-0.002 0.02694836,0.02694836 0 0 0 0.0059,-0.002 0.02694836,0.02694836 0 0 0 0.002,-0.002 0.02694836,0.02694836 0 0 0 0.002,-0.002 0.02694836,0.02694836 0 0 0 0.002,-0.002 0.02694836,0.02694836 0 0 0 0.002,-0.0059 0.02694836,0.02694836 0 0 0 0,-0.002 0.02694836,0.02694836 0 0 0 0.002,-0.0059 0.02694836,0.02694836 0 0 0 0,-0.002 0.02694836,0.02694836 0 0 0 -0.002,-0.0059 0.02694836,0.02694836 0 0 0 0,-0.002 0.02694836,0.02694836 0 0 0 0,-0.0039 l -3.75,-8.341797 0,-0.002 c -0.144261,-0.350177 -0.475789,-0.595189 -0.833985,-0.640625 -0.06049,-0.0077 -0.119623,-0.0063 -0.177734,0 z"
       transform="translate(-0.17110805,1.0709192)" />
  </g>
</svg>
