<?xml version="1.0" encoding="UTF-8" standalone="no"?>
<!-- Created with Inkscape (http://www.inkscape.org/) -->
<svg
   xmlns:dc="http://purl.org/dc/elements/1.1/"
   xmlns:cc="http://web.resource.org/cc/"
   xmlns:rdf="http://www.w3.org/1999/02/22-rdf-syntax-ns#"
   xmlns:svg="http://www.w3.org/2000/svg"
   xmlns="http://www.w3.org/2000/svg"
   xmlns:xlink="http://www.w3.org/1999/xlink"
   xmlns:sodipodi="http://sodipodi.sourceforge.net/DTD/sodipodi-0.dtd"
   xmlns:inkscape="http://www.inkscape.org/namespaces/inkscape"
   width="48px"
   height="48px"
   id="svg1869"
   sodipodi:version="0.32"
   inkscape:version="0.43+devel"
   sodipodi:docbase="/home/andreas/projekt/tango/scalable"
   sodipodi:docname="kiten.svg">
  <defs
     id="defs1871">
    <linearGradient
       id="linearGradient2837">
      <stop
         id="stop2839"
         offset="0"
         style="stop-color:black;stop-opacity:0;" />
      <stop
         style="stop-color:black;stop-opacity:1;"
         offset="0.5"
         id="stop2841" />
      <stop
         id="stop2843"
         offset="1"
         style="stop-color:black;stop-opacity:0;" />
    </linearGradient>
    <linearGradient
       id="linearGradient2823">
      <stop
         style="stop-color:white;stop-opacity:0;"
         offset="0"
         id="stop2825" />
      <stop
         id="stop2831"
         offset="0.5"
         style="stop-color:white;stop-opacity:1;" />
      <stop
         style="stop-color:white;stop-opacity:0;"
         offset="1"
         id="stop2827" />
    </linearGradient>
    <linearGradient
       inkscape:collect="always"
       xlink:href="#linearGradient2837"
       id="linearGradient2829"
       x1="7.5"
       y1="28.071428"
       x2="22.428572"
       y2="28.142857"
       gradientUnits="userSpaceOnUse" />
    <linearGradient
       inkscape:collect="always"
       xlink:href="#linearGradient2823"
       id="linearGradient2835"
       gradientUnits="userSpaceOnUse"
       x1="7.8571429"
       y1="27.5"
       x2="21.142857"
       y2="27.5"
       gradientTransform="matrix(1,0,0,-1,21,46.57143)" />
  </defs>
  <sodipodi:namedview
     id="base"
     pagecolor="#ffffff"
     bordercolor="#666666"
     borderopacity="1.0"
     inkscape:pageopacity="0.0"
     inkscape:pageshadow="2"
     inkscape:zoom="14"
     inkscape:cx="20.759188"
     inkscape:cy="18.153472"
     inkscape:current-layer="layer1"
     showgrid="false"
     inkscape:grid-bbox="true"
     inkscape:document-units="px"
     inkscape:window-width="1280"
     inkscape:window-height="949"
     inkscape:window-x="0"
     inkscape:window-y="25" />
  <metadata
     id="metadata1874">
    <rdf:RDF>
      <cc:Work
         rdf:about="">
        <dc:format>image/svg+xml</dc:format>
        <dc:type
           rdf:resource="http://purl.org/dc/dcmitype/StillImage" />
      </cc:Work>
    </rdf:RDF>
  </metadata>
  <g
     id="layer1"
     inkscape:label="Layer 1"
     inkscape:groupmode="layer">
    <path
       style="fill:#ededeb;fill-opacity:1;fill-rule:evenodd;stroke:#888a85;stroke-width:0.99999988px;stroke-linecap:butt;stroke-linejoin:miter;stroke-opacity:1"
       d="M 2.4999995,9.5 L 2.4999995,38.428571 C 2.4999995,38.428571 2.9634968,41.446429 11.056874,41.571429 C 19.078943,41.696429 29.720344,35.571442 36.014424,35.5 C 42.307291,35.428571 44.499991,37.571429 44.499991,37.571429 L 44.499991,8.5 C 44.499991,8.5 43.733438,6.6607141 35.016122,6.5714285 C 26.44142,6.4821429 18.971982,11.625 11.056874,11.571429 C 3.1419257,11.517859 2.4999995,9.5 2.4999995,9.5 z "
       id="path2799"
       sodipodi:nodetypes="cczzcczzc" />
    <path
       sodipodi:type="arc"
       style="opacity:1;fill:#c00;fill-opacity:1;fill-rule:nonzero;stroke:none;stroke-width:1;stroke-linecap:butt;stroke-linejoin:miter;stroke-miterlimit:4;stroke-dasharray:none;stroke-dashoffset:0;stroke-opacity:1"
       id="path2797"
       sodipodi:cx="24.464285"
       sodipodi:cy="26.178572"
       sodipodi:rx="6.0357141"
       sodipodi:ry="7.6785712"
       d="M 30.499999 26.178572 A 6.0357141 7.6785712 0 1 1  18.428571,26.178572 A 6.0357141 7.6785712 0 1 1  30.499999 26.178572 z"
       transform="matrix(0.831287,0.831287,-0.811629,0.811629,23.91045,-17.58415)" />
    <path
       style="fill:url(#linearGradient2829);fill-opacity:1.0;fill-rule:evenodd;stroke:none;stroke-width:1px;stroke-linecap:butt;stroke-linejoin:miter;stroke-opacity:1;opacity:0.1"
       d="M 3,38 C 3,38 3.5511235,40.924983 10.924982,41.025998 C 18.349348,41.127013 23,38 23,38 L 23,10 C 23,10 14.787817,12.077556 11,12.075018 C 7.2118802,12.07248 3,11 3,11 L 3,38 z "
       id="path2821"
       sodipodi:nodetypes="czcczcc" />
    <path
       style="opacity:1;fill:url(#linearGradient2835);fill-opacity:1;fill-rule:evenodd;stroke:none;stroke-width:1px;stroke-linecap:butt;stroke-linejoin:miter;stroke-opacity:1"
       d="M 24,9.2142861 C 24,9.2142861 31.142858,7.1607143 36.142858,7 C 41.142858,6.8392857 44,8.571429 44,8.571429 L 44,36.571429 C 44,36.571429 41.071429,34.803572 36.142858,34.785715 C 31.21351,34.767855 24,38.214286 24,38.214286 L 24,9.2142861 z "
       id="path2833"
       sodipodi:nodetypes="czcczcc" />
    <path
       style="fill:none;fill-opacity:1;fill-rule:evenodd;stroke:white;stroke-width:1px;stroke-linecap:butt;stroke-linejoin:miter;stroke-opacity:1"
       d="M 3.5,11.616428 L 3.5,37.892078 C 3.5,37.892078 3.9422148,40.380359 11.66396,40.498217 C 19.317673,40.616075 30.184728,34.483914 36.189796,34.416554 C 42.193708,34.349206 43.571437,35.941055 43.571437,35.941055 L 43.571437,9.316423 C 43.571437,9.316423 43.411512,7.5822303 35.094477,7.4980463 C 26.913509,7.4138623 19.215623,12.62001 11.66396,12.5695 C 4.1124502,12.518991 3.5,11.616428 3.5,11.616428 z "
       id="path2845"
       sodipodi:nodetypes="cczzcczzc" />
  </g>
</svg>
