<?xml version="1.0" encoding="UTF-8" standalone="no"?>
<!-- Generator: Adobe Illustrator 13.0.2, SVG Export Plug-In . SVG Version: 6.00 Build 14948)  -->

<svg
   xmlns:dc="http://purl.org/dc/elements/1.1/"
   xmlns:cc="http://creativecommons.org/ns#"
   xmlns:rdf="http://www.w3.org/1999/02/22-rdf-syntax-ns#"
   xmlns:svg="http://www.w3.org/2000/svg"
   xmlns="http://www.w3.org/2000/svg"
   xmlns:xlink="http://www.w3.org/1999/xlink"
   xmlns:sodipodi="http://sodipodi.sourceforge.net/DTD/sodipodi-0.dtd"
   xmlns:inkscape="http://www.inkscape.org/namespaces/inkscape"
   version="1.0"
   id="Layer_1"
   x="0px"
   y="0px"
   width="120"
   height="120"
   viewBox="0 0 120 120"
   enable-background="new 0 0 180 180"
   xml:space="preserve"
   inkscape:version="0.91 r13725"
   sodipodi:docname="pix.svg"><metadata
     id="metadata9"><rdf:RDF><cc:Work
         rdf:about=""><dc:format>image/svg+xml</dc:format><dc:type
           rdf:resource="http://purl.org/dc/dcmitype/StillImage" /></cc:Work></rdf:RDF></metadata><defs
     id="defs7"><linearGradient
       inkscape:collect="always"
       id="linearGradient5222"><stop
         style="stop-color:#ff8080;stop-opacity:1;"
         offset="0"
         id="stop5224" /><stop
         style="stop-color:#ff8080;stop-opacity:0;"
         offset="1"
         id="stop5226" /></linearGradient><linearGradient
       id="linearGradient3710"><stop
         style="stop-color:#c9332e;stop-opacity:1;"
         offset="0"
         id="stop3712" /><stop
         style="stop-color:#87231f;stop-opacity:1;"
         offset="1"
         id="stop3714" /></linearGradient><linearGradient
       id="linearGradient3665"><stop
         style="stop-color:#667f2e;stop-opacity:1;"
         offset="0"
         id="stop3667" /><stop
         style="stop-color:#94b641;stop-opacity:1;"
         offset="1"
         id="stop3669" /></linearGradient><linearGradient
       id="linearGradient3628"><stop
         style="stop-color:#099bd1;stop-opacity:1;"
         offset="0"
         id="stop3630" /><stop
         style="stop-color:#035fa9;stop-opacity:1;"
         offset="1"
         id="stop3632" /></linearGradient><linearGradient
       id="linearGradient3607"><stop
         style="stop-color:#fffbf7;stop-opacity:1;"
         offset="0"
         id="stop3609" /><stop
         style="stop-color:#fed697;stop-opacity:1;"
         offset="1"
         id="stop3611" /></linearGradient><radialGradient
       inkscape:collect="always"
       xlink:href="#linearGradient8155"
       id="radialGradient8161"
       cx="12.700491"
       cy="10.404876"
       fx="12.700491"
       fy="10.404876"
       r="19.96875"
       gradientTransform="matrix(1.4022599,0,0,0.92641953,162.57636,70.930619)"
       gradientUnits="userSpaceOnUse" /><linearGradient
       inkscape:collect="always"
       id="linearGradient8155"><stop
         style="stop-color:#ffffff;stop-opacity:1;"
         offset="0"
         id="stop8157" /><stop
         style="stop-color:#ffffff;stop-opacity:0;"
         offset="1"
         id="stop8159" /></linearGradient><linearGradient
       inkscape:collect="always"
       xlink:href="#linearGradient8155"
       id="linearGradient8166"
       gradientUnits="userSpaceOnUse"
       gradientTransform="translate(-136.4167,38.122519)"
       x1="33.396004"
       y1="36.921333"
       x2="34.170048"
       y2="38.070381" /><linearGradient
       id="linearGradient2224"><stop
         style="stop-color:#7c7c7c;stop-opacity:1;"
         offset="0"
         id="stop2226" /><stop
         style="stop-color:#b8b8b8;stop-opacity:1;"
         offset="1"
         id="stop2228" /></linearGradient><linearGradient
       id="linearGradient8171"><stop
         style="stop-color:#bbbdba;stop-opacity:1;"
         offset="0"
         id="stop8173" /><stop
         style="stop-color:#70746e;stop-opacity:1;"
         offset="1"
         id="stop8175" /></linearGradient><linearGradient
       id="linearGradient7648"
       gradientUnits="userSpaceOnUse"
       x1="21.9326"
       y1="24.627399"
       x2="21.9326"
       y2="7.1090999"><stop
         offset="0"
         style="stop-color:#8595bc;stop-opacity:1;"
         id="stop7650" /><stop
         offset="1"
         style="stop-color:#041a3b;stop-opacity:1;"
         id="stop7652" /></linearGradient><linearGradient
       y2="7.1090999"
       x2="21.9326"
       y1="24.627399"
       x1="21.9326"
       gradientUnits="userSpaceOnUse"
       id="aigrd3"><stop
         id="stop16199"
         style="stop-color:#D0D6E5;stroke-dasharray:none;stroke-miterlimit:4.0000000;stroke-width:1.2166667"
         offset="0" /><stop
         id="stop16201"
         style="stop-color:#093A80;stroke-dasharray:none;stroke-miterlimit:4.0000000;stroke-width:1.2166667"
         offset="1" /></linearGradient><linearGradient
       y2="36.032799"
       x2="31.081301"
       y1="3.7319"
       x1="12.4873"
       gradientUnits="userSpaceOnUse"
       id="aigrd1"><stop
         id="stop16177"
         style="stop-color:#D2D2D2;stroke-dasharray:none;stroke-miterlimit:4.0000000;stroke-width:1.2166667"
         offset="0" /><stop
         id="stop16179"
         style="stop-color:#EDEDED;stroke-dasharray:none;stroke-miterlimit:4.0000000;stroke-width:1.2166667"
         offset="1" /></linearGradient><linearGradient
       id="linearGradient5048"><stop
         style="stop-color:black;stop-opacity:0;"
         offset="0"
         id="stop5050" /><stop
         id="stop5056"
         offset="0.5"
         style="stop-color:black;stop-opacity:1;" /><stop
         style="stop-color:black;stop-opacity:0;"
         offset="1"
         id="stop5052" /></linearGradient><linearGradient
       inkscape:collect="always"
       id="linearGradient5060"><stop
         style="stop-color:black;stop-opacity:1;"
         offset="0"
         id="stop5062" /><stop
         style="stop-color:black;stop-opacity:0;"
         offset="1"
         id="stop5064" /></linearGradient><linearGradient
       id="linearGradient2222"><stop
         style="stop-color:#5187d6;stop-opacity:1;"
         offset="0"
         id="stop2224" /><stop
         style="stop-color:#1e4580;stop-opacity:1;"
         offset="1"
         id="stop2227" /></linearGradient><linearGradient
       id="linearGradient2206"><stop
         style="stop-color:#c3c6c0;stop-opacity:1.0000000;"
         offset="0.0000000"
         id="stop2208" /><stop
         style="stop-color:#e8eae6;stop-opacity:1.0000000;"
         offset="1.0000000"
         id="stop2210" /></linearGradient><linearGradient
       id="linearGradient2214"><stop
         style="stop-color:#a9aaa7;stop-opacity:1.0000000;"
         offset="0.0000000"
         id="stop2216" /><stop
         style="stop-color:#676964;stop-opacity:1.0000000;"
         offset="1.0000000"
         id="stop2218" /></linearGradient><radialGradient
       inkscape:collect="always"
       xlink:href="#linearGradient5060"
       id="radialGradient4774"
       gradientUnits="userSpaceOnUse"
       gradientTransform="matrix(9.2653556,0,0,2.1856693,-455.73127,63.382822)"
       cx="30.203562"
       cy="44.565483"
       fx="30.203562"
       fy="44.565483"
       r="6.5659914" /><radialGradient
       inkscape:collect="always"
       xlink:href="#linearGradient3607"
       id="radialGradient5032"
       gradientUnits="userSpaceOnUse"
       gradientTransform="matrix(0.58338762,-3.8867653e-8,3.7255198e-8,0.44716241,-75.32896,39.063789)"
       cx="-165.3261"
       cy="58.559208"
       fx="-165.3261"
       fy="58.559208"
       r="8.9683418" /><linearGradient
       inkscape:collect="always"
       xlink:href="#linearGradient8155"
       id="linearGradient5212"
       gradientUnits="userSpaceOnUse"
       gradientTransform="translate(-136.4167,38.122519)"
       x1="33.396004"
       y1="36.921333"
       x2="34.170048"
       y2="38.070381" /><radialGradient
       inkscape:collect="always"
       xlink:href="#linearGradient3607"
       id="radialGradient5214"
       gradientUnits="userSpaceOnUse"
       gradientTransform="matrix(0.58338762,-3.8867653e-8,3.7255198e-8,0.44716241,-75.32896,39.063789)"
       cx="-165.3261"
       cy="58.559208"
       fx="-165.3261"
       fy="58.559208"
       r="8.9683418" /><linearGradient
       inkscape:collect="always"
       xlink:href="#linearGradient7648"
       id="linearGradient5216"
       gradientUnits="userSpaceOnUse"
       gradientTransform="matrix(2.5471121,0,0,-1.8690801,-216.36668,121.19326)"
       x1="21.9326"
       y1="24.627399"
       x2="21.9326"
       y2="7.1090999" /><linearGradient
       inkscape:collect="always"
       xlink:href="#aigrd3"
       id="linearGradient5218"
       gradientUnits="userSpaceOnUse"
       gradientTransform="matrix(2.5471121,0,0,2.5929015,-216.36668,22.213237)"
       x1="21.9326"
       y1="24.627399"
       x2="21.9326"
       y2="7.1090999" /><radialGradient
       inkscape:collect="always"
       xlink:href="#linearGradient5060"
       id="radialGradient5220"
       gradientUnits="userSpaceOnUse"
       gradientTransform="matrix(9.2653556,0,0,2.1856693,-455.73127,63.382822)"
       cx="30.203562"
       cy="44.565483"
       fx="30.203562"
       fy="44.565483"
       r="6.5659914" /><linearGradient
       inkscape:collect="always"
       xlink:href="#linearGradient5222"
       id="linearGradient5228"
       x1="-157.60634"
       y1="80.986855"
       x2="-157.55603"
       y2="102.60142"
       gradientUnits="userSpaceOnUse"
       gradientTransform="translate(0.00279254,-0.07962322)" /><linearGradient
       inkscape:collect="always"
       xlink:href="#linearGradient5222"
       id="linearGradient5252"
       x1="-153.338"
       y1="91.501923"
       x2="-167.24486"
       y2="15.529459"
       gradientUnits="userSpaceOnUse" /></defs><sodipodi:namedview
     pagecolor="#ffffff"
     bordercolor="#e7e7e7"
     borderopacity="1"
     objecttolerance="10"
     gridtolerance="10"
     guidetolerance="10"
     inkscape:pageopacity="0"
     inkscape:pageshadow="2"
     inkscape:window-width="1360"
     inkscape:window-height="711"
     id="namedview5"
     showgrid="false"
     inkscape:zoom="2.8284271"
     inkscape:cx="160.30709"
     inkscape:cy="62.532658"
     inkscape:window-x="0"
     inkscape:window-y="33"
     inkscape:window-maximized="1"
     inkscape:current-layer="Layer_1"
     showguides="true"
     inkscape:guide-bbox="true"
     inkscape:snap-grids="false"
     inkscape:showpageshadow="false"><inkscape:grid
       type="xygrid"
       id="grid2819"
       empspacing="5"
       visible="true"
       enabled="true"
       snapvisiblegridlinesonly="true" /></sodipodi:namedview><path
     inkscape:connector-curvature="0"
     style="color:#000000;display:inline;overflow:visible;visibility:visible;opacity:0.30113639;fill:url(#radialGradient8161);fill-opacity:1;fill-rule:nonzero;stroke:none;stroke-width:1;stroke-linecap:butt;stroke-linejoin:miter;stroke-miterlimit:4;stroke-dasharray:none;stroke-dashoffset:0;stroke-opacity:1;marker:none;marker-start:none;marker-mid:none;marker-end:none"
     d="m 174.57042,76.03478 0,18.170555 c 18.30249,0.731649 20.3487,-10.758204 32.73999,-10.758204 l 0,-7.412351 -32.73999,0 z"
     id="rect8150"
     sodipodi:nodetypes="ccccc" /><g
     id="g5254"
     transform="matrix(0.76428183,0,0,0.81869442,188.79847,-23.400618)"><ellipse
       ry="14.351066"
       rx="60.836239"
       cy="160.78812"
       cx="-175.88452"
       id="ellipse4429"
       style="color:#000000;display:inline;overflow:visible;visibility:visible;opacity:0.40641713;fill:url(#radialGradient4774);fill-opacity:1;fill-rule:evenodd;stroke:none;stroke-width:2.81415844;stroke-linecap:butt;stroke-linejoin:miter;stroke-miterlimit:10;stroke-dasharray:none;stroke-dashoffset:0;stroke-opacity:1;marker:none;marker-start:none;marker-mid:none;marker-end:none" /><ellipse
       style="color:#000000;display:inline;overflow:visible;visibility:visible;opacity:0.40641713;fill:url(#radialGradient5220);fill-opacity:1;fill-rule:evenodd;stroke:none;stroke-width:2.81415844;stroke-linecap:butt;stroke-linejoin:miter;stroke-miterlimit:10;stroke-dasharray:none;stroke-dashoffset:0;stroke-opacity:1;marker:none;marker-start:none;marker-mid:none;marker-end:none"
       id="ellipse4776"
       cx="-175.88452"
       cy="160.78812"
       rx="60.836239"
       ry="14.351066" /><g
       transform="matrix(0.97310421,-0.23036534,0.23036534,0.97310421,-13.396705,-10.677886)"
       id="g5148"><path
         inkscape:connector-curvature="0"
         sodipodi:nodetypes="cccc"
         id="path2247"
         d="m -104.90718,78.809572 c 1.36978,-0.683829 4.42825,-2.146465 5.72763,-4.027469 -1.5961,0.680055 -2.94781,0.209496 -5.70234,0.190405 0,0 0.16233,3.062094 -0.0253,3.837064 z"
         style="color:#000000;display:inline;overflow:visible;visibility:visible;opacity:0.36931817;fill:none;fill-opacity:1;fill-rule:evenodd;stroke:url(#linearGradient8166);stroke-width:0.99999982;stroke-linecap:butt;stroke-linejoin:miter;stroke-miterlimit:4;stroke-dasharray:none;stroke-dashoffset:0;stroke-opacity:1;marker:none;marker-start:none;marker-mid:none;marker-end:none" /><rect
         style="fill:#cccccc;fill-opacity:1"
         id="rect4990"
         width="93"
         height="98"
         x="-206"
         y="37"
         ry="13" /><rect
         ry="12.2965"
         y="39.474873"
         x="-203.52512"
         height="92.696693"
         width="88.403801"
         id="rect4992"
         style="fill:#e6e6e6;fill-opacity:1" /><rect
         y="46.002762"
         x="-199.07829"
         height="69.327995"
         width="79.363701"
         id="rect4996"
         style="fill:#550000;fill-opacity:1;stroke:none" /><ellipse
         id="circle4998"
         style="fill:url(#radialGradient5032);fill-opacity:1;stroke:none"
         cx="-171.77817"
         cy="65.249268"
         rx="5.9794512"
         ry="5.3470726" /><path
         inkscape:connector-curvature="0"
         id="path5002"
         d="m -199.05874,103.95409 79.10389,0 0,-24.302215 -79.10389,0 0,24.302215 z"
         style="fill:url(#linearGradient5228);fill-opacity:1;fill-rule:nonzero;stroke:none;stroke-width:1.2166667;stroke-miterlimit:4" /><path
         inkscape:connector-curvature="0"
         style="fill:url(#linearGradient5252);fill-opacity:1;fill-rule:nonzero;stroke:none;stroke-width:1.2166667;stroke-miterlimit:4"
         d="m -199.06153,46.017991 79.10389,0 0,33.713507 -79.10389,0 0,-33.713507 z"
         id="path5004" /><g
         id="g5006"
         style="fill-rule:nonzero;stroke:#000000;stroke-width:1.15611064;stroke-miterlimit:4"
         transform="matrix(2.7562323,0,0,2.7862392,-220.0089,18.434214)"><g
           id="g5008"><path
             inkscape:connector-curvature="0"
             style="opacity:0.04999994;fill:#e8f52f;stroke:none"
             d="m 18.4,15.4 c 0,2.2 -1.8,4.1 -4.1,4.1 -2.2,0 -4.1,-1.8 -4.1,-4.1 0,-2.2 1.8,-4.1 4.1,-4.1 2.2,0 4.1,1.8 4.1,4.1 z"
             id="path5010" /><path
             inkscape:connector-curvature="0"
             style="opacity:0.20829994;fill:#ecf751;stroke:none"
             d="m 18,15.4 c 0,2 -1.6,3.7 -3.7,3.7 -2,0 -3.7,-1.6 -3.7,-3.7 0,-2 1.6,-3.7 3.7,-3.7 2,0 3.7,1.6 3.7,3.7 l 0,0 z"
             id="path5012" /><path
             inkscape:connector-curvature="0"
             style="opacity:0.36669994;fill:#f0f972;stroke:none"
             d="m 17.6,15.4 c 0,1.8 -1.5,3.3 -3.3,3.3 -1.8,0 -3.3,-1.5 -3.3,-3.3 0,-1.8 1.5,-3.3 3.3,-3.3 1.8,0 3.3,1.5 3.3,3.3 l 0,0 z"
             id="path5014" /><path
             inkscape:connector-curvature="0"
             style="opacity:0.525;fill:#f4fa95;stroke:none"
             d="m 17.2,15.4 c 0,1.6 -1.3,2.9 -2.9,2.9 -1.6,0 -2.9,-1.3 -2.9,-2.9 0,-1.6 1.3,-2.9 2.9,-2.9 1.6,0 2.9,1.3 2.9,2.9 z"
             id="path5016" /><path
             inkscape:connector-curvature="0"
             style="opacity:0.6833;fill:#f7fcb7;stroke:none"
             d="m 16.8,15.4 c 0,1.4 -1.1,2.5 -2.5,2.5 -1.4,0 -2.5,-1.1 -2.5,-2.5 0,-1.4 1.1,-2.5 2.5,-2.5 1.4,0 2.5,1.1 2.5,2.5 l 0,0 z"
             id="path5018" /><path
             inkscape:connector-curvature="0"
             style="opacity:0.8417;fill:#fbfddb;stroke:none"
             d="m 16.4,15.4 c 0,1.2 -1,2.1 -2.1,2.1 -1.1,0 -2.1,-1 -2.1,-2.1 0,-1.1 1,-2.1 2.1,-2.1 1.1,0 2.1,1 2.1,2.1 z"
             id="path5020" /><path
             inkscape:connector-curvature="0"
             style="fill:#ffffff;stroke:none"
             d="m 16,15.4 c 0,1 -0.8,1.8 -1.8,1.8 -1,0 -1.8,-0.8 -1.8,-1.8 0,-1 0.8,-1.8 1.8,-1.8 1,0 1.8,0.8 1.8,1.8 l 0,0 z"
             id="path5022" /></g></g><path
         inkscape:connector-curvature="0"
         style="opacity:0.3;fill-rule:nonzero;stroke:none;stroke-width:1.2166667;stroke-miterlimit:4"
         d="m -153.85931,84.468105 20.12051,0 3.85872,1.114498 -6.61495,0 c 0,0 6.61495,0.557245 9.92244,4.736607 3.30747,3.900735 -3.85873,8.637347 -3.85873,8.637347 0,0 0,0 0,0 -0.27562,-0.835874 -1.92937,-7.522853 -5.23684,-10.309092 -2.48062,-2.228993 -5.23685,-2.786242 -5.23685,-2.786242 l -12.9543,0 0,-1.114494 0,-0.278624 z"
         id="path5024" /><path
         inkscape:connector-curvature="0"
         style="opacity:0.3;fill-rule:nonzero;stroke:none;stroke-width:1.2166667;stroke-miterlimit:4"
         d="m -140.62938,86.139848 -11.57619,0 21.49863,12.259457 -9.92244,-12.259457 0,0 z"
         id="path5026" /><path
         inkscape:connector-curvature="0"
         style="fill:#515151;fill-rule:nonzero;stroke:none;stroke-width:1.2166667;stroke-miterlimit:4"
         d="m -153.85931,84.746729 20.12051,0 3.03186,-1.95037 -6.61496,0 c 0,0 6.06371,-1.114494 6.89058,-8.080097 0.82687,-6.9656 -9.3712,-14.76707 -9.3712,-14.76707 0,0 0,0 0,0.278624 0.27563,1.671743 3.03186,13.373952 1.1025,17.831941 -0.82687,3.900728 -3.30748,4.736602 -3.30748,4.736602 l -12.67868,0 0.55125,1.95037 0.27562,0 z"
         id="path5028" /><path
         inkscape:connector-curvature="0"
         style="fill:#515151;fill-rule:nonzero;stroke:none;stroke-width:1.2166667;stroke-miterlimit:4"
         d="m -141.73188,81.681865 -11.57618,0 13.78117,-21.175429 -2.20499,21.175429 z"
         id="path5030" /></g><g
       transform="matrix(0.99087638,-0.13477387,0.13477387,0.99087638,-46.976368,-22.6866)"
       id="g5170"><path
         style="color:#000000;display:inline;overflow:visible;visibility:visible;opacity:0.36931817;fill:none;fill-opacity:1;fill-rule:evenodd;stroke:url(#linearGradient5212);stroke-width:0.99999982;stroke-linecap:butt;stroke-linejoin:miter;stroke-miterlimit:4;stroke-dasharray:none;stroke-dashoffset:0;stroke-opacity:1;marker:none;marker-start:none;marker-mid:none;marker-end:none"
         d="m -104.90718,78.809572 c 1.36978,-0.683829 4.42825,-2.146465 5.72763,-4.027469 -1.5961,0.680055 -2.94781,0.209496 -5.70234,0.190405 0,0 0.16233,3.062094 -0.0253,3.837064 z"
         id="path5172"
         sodipodi:nodetypes="cccc"
         inkscape:connector-curvature="0" /><rect
         ry="13"
         y="37"
         x="-206"
         height="98"
         width="93"
         id="rect5174"
         style="fill:#cccccc;fill-opacity:1" /><rect
         style="fill:#e6e6e6;fill-opacity:1"
         id="rect5176"
         width="88.403801"
         height="92.696693"
         x="-203.52512"
         y="39.474873"
         ry="12.2965" /><rect
         style="fill:#13294a;fill-opacity:1;stroke:none"
         id="rect5178"
         width="79.363701"
         height="69.327995"
         x="-199.07829"
         y="46.002762" /><ellipse
         ry="5.3470726"
         rx="5.9794512"
         cy="65.249268"
         cx="-171.77817"
         style="fill:url(#radialGradient5214);fill-opacity:1;stroke:none"
         id="ellipse5180" /><path
         style="fill:url(#linearGradient5216);fill-opacity:1;fill-rule:nonzero;stroke:none;stroke-width:1.2166667;stroke-miterlimit:4"
         d="m -199.06153,104.03372 79.10389,0 0,-24.302222 -79.10389,0 0,24.302222 z"
         id="path5182"
         inkscape:connector-curvature="0" /><path
         id="path5184"
         d="m -199.06153,46.017991 79.10389,0 0,33.713507 -79.10389,0 0,-33.713507 z"
         style="fill:url(#linearGradient5218);fill-rule:nonzero;stroke:none;stroke-width:1.2166667;stroke-miterlimit:4"
         inkscape:connector-curvature="0" /><g
         transform="matrix(2.7562323,0,0,2.7862392,-220.0089,18.434214)"
         style="fill-rule:nonzero;stroke:#000000;stroke-width:1.15611064;stroke-miterlimit:4"
         id="g5186"><g
           id="g5188"><path
             id="path5190"
             d="m 18.4,15.4 c 0,2.2 -1.8,4.1 -4.1,4.1 -2.2,0 -4.1,-1.8 -4.1,-4.1 0,-2.2 1.8,-4.1 4.1,-4.1 2.2,0 4.1,1.8 4.1,4.1 z"
             style="opacity:0.04999994;fill:#e8f52f;stroke:none"
             inkscape:connector-curvature="0" /><path
             id="path5192"
             d="m 18,15.4 c 0,2 -1.6,3.7 -3.7,3.7 -2,0 -3.7,-1.6 -3.7,-3.7 0,-2 1.6,-3.7 3.7,-3.7 2,0 3.7,1.6 3.7,3.7 l 0,0 z"
             style="opacity:0.20829994;fill:#ecf751;stroke:none"
             inkscape:connector-curvature="0" /><path
             id="path5194"
             d="m 17.6,15.4 c 0,1.8 -1.5,3.3 -3.3,3.3 -1.8,0 -3.3,-1.5 -3.3,-3.3 0,-1.8 1.5,-3.3 3.3,-3.3 1.8,0 3.3,1.5 3.3,3.3 l 0,0 z"
             style="opacity:0.36669994;fill:#f0f972;stroke:none"
             inkscape:connector-curvature="0" /><path
             id="path5196"
             d="m 17.2,15.4 c 0,1.6 -1.3,2.9 -2.9,2.9 -1.6,0 -2.9,-1.3 -2.9,-2.9 0,-1.6 1.3,-2.9 2.9,-2.9 1.6,0 2.9,1.3 2.9,2.9 z"
             style="opacity:0.525;fill:#f4fa95;stroke:none"
             inkscape:connector-curvature="0" /><path
             id="path5198"
             d="m 16.8,15.4 c 0,1.4 -1.1,2.5 -2.5,2.5 -1.4,0 -2.5,-1.1 -2.5,-2.5 0,-1.4 1.1,-2.5 2.5,-2.5 1.4,0 2.5,1.1 2.5,2.5 l 0,0 z"
             style="opacity:0.6833;fill:#f7fcb7;stroke:none"
             inkscape:connector-curvature="0" /><path
             id="path5200"
             d="m 16.4,15.4 c 0,1.2 -1,2.1 -2.1,2.1 -1.1,0 -2.1,-1 -2.1,-2.1 0,-1.1 1,-2.1 2.1,-2.1 1.1,0 2.1,1 2.1,2.1 z"
             style="opacity:0.8417;fill:#fbfddb;stroke:none"
             inkscape:connector-curvature="0" /><path
             id="path5202"
             d="m 16,15.4 c 0,1 -0.8,1.8 -1.8,1.8 -1,0 -1.8,-0.8 -1.8,-1.8 0,-1 0.8,-1.8 1.8,-1.8 1,0 1.8,0.8 1.8,1.8 l 0,0 z"
             style="fill:#ffffff;stroke:none"
             inkscape:connector-curvature="0" /></g></g><path
         id="path5204"
         d="m -153.85931,84.468105 20.12051,0 3.85872,1.114498 -6.61495,0 c 0,0 6.61495,0.557245 9.92244,4.736607 3.30747,3.900735 -3.85873,8.637347 -3.85873,8.637347 0,0 0,0 0,0 -0.27562,-0.835874 -1.92937,-7.522853 -5.23684,-10.309092 -2.48062,-2.228993 -5.23685,-2.786242 -5.23685,-2.786242 l -12.9543,0 0,-1.114494 0,-0.278624 z"
         style="opacity:0.3;fill-rule:nonzero;stroke:none;stroke-width:1.2166667;stroke-miterlimit:4"
         inkscape:connector-curvature="0" /><path
         id="path5206"
         d="m -140.62938,86.139848 -11.57619,0 21.49863,12.259457 -9.92244,-12.259457 0,0 z"
         style="opacity:0.3;fill-rule:nonzero;stroke:none;stroke-width:1.2166667;stroke-miterlimit:4"
         inkscape:connector-curvature="0" /><path
         id="path5208"
         d="m -153.85931,84.746729 20.12051,0 3.03186,-1.95037 -6.61496,0 c 0,0 6.06371,-1.114494 6.89058,-8.080097 0.82687,-6.9656 -9.3712,-14.76707 -9.3712,-14.76707 0,0 0,0 0,0.278624 0.27563,1.671743 3.03186,13.373952 1.1025,17.831941 -0.82687,3.900728 -3.30748,4.736602 -3.30748,4.736602 l -12.67868,0 0.55125,1.95037 0.27562,0 z"
         style="fill:#515151;fill-rule:nonzero;stroke:none;stroke-width:1.2166667;stroke-miterlimit:4"
         inkscape:connector-curvature="0" /><path
         id="path5210"
         d="m -141.73188,81.681865 -11.57618,0 13.78117,-21.175429 -2.20499,21.175429 z"
         style="fill:#515151;fill-rule:nonzero;stroke:none;stroke-width:1.2166667;stroke-miterlimit:4"
         inkscape:connector-curvature="0" /></g></g></svg>