<?xml version="1.0" encoding="UTF-8" standalone="no"?>
<!--part of the rodentia icon theme by sixsixfive released under CC0 (https://creativecommons.org/publicdomain/zero/1.0/) on openclipart-->
<svg xmlns="http://www.w3.org/2000/svg" xmlns:xlink="http://www.w3.org/1999/xlink" viewBox="0 0 48 48">
 <defs id="0">
  <linearGradient id="8">
   <stop id="L" stop-color="#2e3436"/>
   <stop id="M" offset="1" stop-color="#2e3436" stop-opacity="0"/>
  </linearGradient>
  <radialGradient cx="25.02" cy="44.3" r="16.727" id="9" xlink:href="#8" gradientUnits="userSpaceOnUse" gradientTransform="matrix(1,0,0,0.1150442,0,39.202918)"/>
  <linearGradient id="A">
   <stop id="N" stop-color="#fff" stop-opacity="0.5"/>
   <stop id="O" offset="1" stop-color="#fff" stop-opacity="0"/>
  </linearGradient>
  <linearGradient y1="5.265" x2="0" y2="42.603" id="B" xlink:href="#A" gradientUnits="userSpaceOnUse"/>
  <radialGradient cx="65" cy="64" r="27.833" id="C" xlink:href="#F" gradientUnits="userSpaceOnUse" gradientTransform="matrix(0.3205478,0,0,0.3286115,3.1761467,2.9154305)"/>
  <linearGradient id="D">
   <stop id="P" stop-color="#fff"/>
   <stop id="Q" offset="1" stop-color="#fff" stop-opacity="0"/>
  </linearGradient>
  <linearGradient x1="-4.455" y1="-33.449" x2="31.07" y2="39.677" id="E" xlink:href="#D" gradientUnits="userSpaceOnUse"/>
  <linearGradient id="F">
   <stop id="R" stop-color="#eee"/>
   <stop id="S" offset="1" stop-color="#e7e7e7"/>
  </linearGradient>
  <linearGradient x1="74.55" y1="29.08" x2="63.31" y2="121.1" id="G" xlink:href="#F" gradientUnits="userSpaceOnUse"/>
 </defs>
 <path d="m 41.743937,44.299297 c 0,1.062798 -7.489014,1.924366 -16.727181,1.924366 -9.238167,0 -16.7271804,-0.861568 -16.7271804,-1.924366 0,-1.062798 7.4890134,-1.924366 16.7271804,-1.924366 9.238167,0 16.727181,0.861568 16.727181,1.924366 l 0,0 z" transform="matrix(1,0,0,1.4615385,-1.0167561,-21.157663)" id="1" opacity="0.8" fill="url(#9)"/>
 <path d="M 44,24 C 44.000781,35.045114 35.046247,43.999362 24,43.999362 12.953753,43.999362 3.999219,35.045114 4.0000001,24 3.999219,12.954886 12.953753,4.0006379 24,4.0006379 35.046247,4.0006379 44.000781,12.954886 44,24 l 0,0 z" id="2" fill="#183768"/>
 <path d="M 22.75,5.375 C 8.615336,5.6267023 0.00192621,23.952757 8.9375,35.0625 L 8.90625,35.09375 C 17.018382,47.079005 37.344698,44.11383 41.5625,30.25 l 0.03125,0 c 0.0076,-0.01959 -0.0075,-0.0429 0,-0.0625 C 46.258402,17.976792 35.858956,4.2337465 22.8125,5.375 c -0.02148,0.00188 -0.041,-0.00196 -0.0625,0 z" id="3" fill="#3465a4"/>
 <path d="m 25.15625,5.78125 c -0.763464,-0.037384 -1.558056,-0.00768 -2.34375,0.0625 -0.01047,9.351e-4 -0.02078,-9.548e-4 -0.03125,0 C 9.0161224,6.0630086 0.55495532,24.017662 9.3125,34.8125 c 7.891282,11.658961 27.769934,8.786369 31.84375,-4.71875 0.0029,-0.0095 -0.0029,-0.02172 0,-0.03125 4.28647,-11.160212 -4.405284,-23.7135002 -16,-24.28125 l 0,0 z" id="4" fill="none" stroke="url(#B)"/>
 <g transform="translate(-0.00685926,0.00683684)" id="5">
  <path d="m 22.5625,13.5 c -1.96975,0 -3.71875,1.482173 -3.71875,3.46875 0,0.577328 0.172635,1.092069 0.4375,1.5625 -1.326382,0.410747 -2.61427,1.06154 -3.5,2.0625 -3.19854,3.614655 -2.486415,9.18328 1.4375,12.03125 3.640163,2.642021 8.672216,2.226263 11.90625,-0.75 0.322086,0.131598 0.669939,0.141862 1.03125,0.09375 l 0,0.0625 c 0.04178,-0.003 0.108657,-0.02514 0.15625,-0.03125 0.02172,-0.0048 0.04078,0.0055 0.0625,0 0.0022,-3.29e-4 -0.0022,-0.03091 0,-0.03125 0.14917,-0.0232 0.292123,-0.02032 0.46875,-0.09375 L 32.9375,31 c 1.053968,-0.438403 1.678096,-1.656011 1.125,-2.8125 -0.242192,-0.506403 -0.765055,-0.931654 -1.28125,-1.0625 -0.516195,-0.130846 -0.972458,-0.04244 -1.375,0.125 -0.01042,-1.23e-4 -0.02083,-1.23e-4 -0.03125,0 l -0.0625,0.03125 -1.5,-3.1875 C 29.674957,23.799483 29.43603,23.366844 29,23.0625 c -0.328178,-0.22907 -0.630984,-0.222655 -0.9375,-0.28125 0.06081,-0.06217 0.130902,-0.111018 0.1875,-0.1875 0.132063,-0.178457 0.3125,-0.35609 0.3125,-0.90625 l 0,-0.5625 c 0,-0.550162 -0.157643,-0.729535 -0.28125,-0.90625 -0.123607,-0.176715 -0.277106,-0.309685 -0.4375,-0.4375 C 27.522963,19.52562 27.086352,19.3125 26.5,19.3125 l -1.375,0 c 0.654286,-0.622878 1.15625,-1.386448 1.15625,-2.34375 0,-1.986579 -1.749002,-3.46875 -3.71875,-3.46875 l 0,0 z m -2.71875,9.875 0,1.3125 c 0,1.297537 1.095186,2.3125 2.34375,2.3125 l 0.25,0 3.75,0 0.53125,1.09375 C 24.548252,29.881562 21.75787,30.088358 20,28.8125 c -1.920938,-1.394212 -2.140254,-3.416682 -0.65625,-5.09375 0.150226,-0.16977 0.354849,-0.215463 0.5,-0.34375 l 0,0 z" id="H" opacity="0.8" fill="#204a87"/>
  <path d="m 22.559725,14.800486 c -1.329529,0 -2.404446,0.96826 -2.404446,2.157836 0,0.729774 0.406648,1.377453 1.027543,1.767369 l -0.02055,5.970012 c 0,0.561828 0.455434,1.006989 1.017264,1.006989 l 0.256885,0 4.593106,0 2.147561,4.593107 c 0.158813,0.339765 0.531206,0.511113 0.883684,0.421291 0.09263,-0.0067 0.193454,-0.02247 0.287712,-0.06165 l 2.085906,-0.873408 c 0.386914,-0.160939 0.621802,-0.629779 0.43157,-1.027542 -0.179811,-0.375971 -0.558424,-0.448649 -0.945337,-0.287711 l -1.274152,0.524046 -2.024253,-4.325946 C 28.521699,24.449829 28.423393,24.260255 28.2523,24.140834 28.071178,24.014411 27.755592,23.935325 27.502196,23.935325 l -4.04851,0 0,-1.777644 3.041522,0 c 0.421369,0 0.760377,-0.342485 0.760377,-0.482945 l 0,-0.565147 c 0,-0.140459 -0.339008,-0.472669 -0.760377,-0.472669 l -3.041522,0 0,-1.67489 c 0.890354,-0.316529 1.520759,-1.094751 1.520759,-2.003705 0,-1.189577 -1.085192,-2.157836 -2.414718,-2.157836 l 0,0 -2e-6,-3e-6 0,0 z m -1.880397,4.644484 c -1.323763,0.156255 -3.028443,1.057275 -3.884104,2.024254 -2.696776,3.047614 -2.123123,7.659186 1.212498,10.080174 3.33562,2.420984 8.133502,1.948145 10.830278,-1.099469 l -0.801482,-1.674891 c -2.619142,2.495435 -6.36389,2.879422 -8.816299,1.099469 -2.452408,-1.77995 -2.815172,-4.844274 -0.87341,-7.038654 0.649399,-0.733883 1.320138,-1.18054 2.30169,-1.54131 l 0.03081,-1.849573 1.6e-5,0 6e-6,0 -3e-6,0 z" id="I" fill="url(#C)"/>
 </g>
 <path d="M 24.03125,5.3125 C 23.629097,5.31959 23.220202,5.339336 22.8125,5.375 22.79102,5.37688 22.7715,5.37304 22.75,5.375 9.3832209,5.6130282 0.97570212,22.010419 7.65625,33.1875 15.951602,23.656353 28.103471,17.700903 40.84375,16.0625 37.811665,9.8109828 31.430863,5.1819654 24.03125,5.3125 z" id="6" opacity="0.6" fill="url(#E)"/>
 <g id="7">
  <path d="m 109.67742,71.951614 c 0,25.164589 -20.76099,45.564516 -46.370969,45.564516 -25.609979,0 -46.370969,-20.399927 -46.370969,-45.564516 0,-25.164589 20.76099,-45.564519 46.370969,-45.564519 25.609979,0 46.370969,20.39993 46.370969,45.564519 z" transform="matrix(0.2973751,0,0,0.3026393,5.1858383,2.1711827)" id="J" opacity="0.8" fill="none" stroke="#204a87" stroke-width="15.03"/>
  <path d="m 109.67742,71.951614 c 0,25.164589 -20.76099,45.564516 -46.370969,45.564516 -25.609979,0 -46.370969,-20.399927 -46.370969,-45.564516 0,-25.164589 20.76099,-45.564519 46.370969,-45.564519 25.609979,0 46.370969,20.39993 46.370969,45.564519 z" transform="matrix(0.2973751,0,0,0.3026393,5.1858383,2.1711827)" id="K" fill="none" stroke="url(#G)" stroke-width="6.03"/>
 </g>
</svg>
