<?xml version="1.0" encoding="UTF-8" standalone="no"?>
<!-- Created with Inkscape (http://www.inkscape.org/) -->

<svg
   xmlns:dc="http://purl.org/dc/elements/1.1/"
   xmlns:cc="http://creativecommons.org/ns#"
   xmlns:rdf="http://www.w3.org/1999/02/22-rdf-syntax-ns#"
   xmlns:svg="http://www.w3.org/2000/svg"
   xmlns="http://www.w3.org/2000/svg"
   xmlns:xlink="http://www.w3.org/1999/xlink"
   xmlns:sodipodi="http://sodipodi.sourceforge.net/DTD/sodipodi-0.dtd"
   xmlns:inkscape="http://www.inkscape.org/namespaces/inkscape"
   inkscape:export-ydpi="240.00000"
   inkscape:export-xdpi="240.00000"
   inkscape:export-filename="/home/jimmac/gfx/novell/pdes/trunk/docs/BIGmime-text.png"
   sodipodi:docname="text-x-python.svg"
   inkscape:version="0.91 r13725"
   sodipodi:version="0.32"
   id="svg249"
   height="48.000000px"
   width="48.000000px"
   inkscape:output_extension="org.inkscape.output.svg.inkscape"
   version="1.1">
  <defs
     id="defs3">
    <inkscape:perspective
       sodipodi:type="inkscape:persp3d"
       inkscape:vp_x="0 : 24 : 1"
       inkscape:vp_y="0 : 1000 : 0"
       inkscape:vp_z="48 : 24 : 1"
       inkscape:persp3d-origin="24 : 16 : 1"
       id="perspective78" />
    <linearGradient
       inkscape:collect="always"
       id="linearGradient5060">
      <stop
         style="stop-color:black;stop-opacity:1;"
         offset="0"
         id="stop5062" />
      <stop
         style="stop-color:black;stop-opacity:0;"
         offset="1"
         id="stop5064" />
    </linearGradient>
    <linearGradient
       id="linearGradient5048">
      <stop
         style="stop-color:black;stop-opacity:0;"
         offset="0"
         id="stop5050" />
      <stop
         id="stop5056"
         offset="0.5"
         style="stop-color:black;stop-opacity:1;" />
      <stop
         style="stop-color:black;stop-opacity:0;"
         offset="1"
         id="stop5052" />
    </linearGradient>
    <linearGradient
       inkscape:collect="always"
       id="linearGradient4542">
      <stop
         style="stop-color:#000000;stop-opacity:1;"
         offset="0"
         id="stop4544" />
      <stop
         style="stop-color:#000000;stop-opacity:0;"
         offset="1"
         id="stop4546" />
    </linearGradient>
    <linearGradient
       id="linearGradient15662">
      <stop
         id="stop15664"
         offset="0.0000000"
         style="stop-color:#ffffff;stop-opacity:1.0000000;" />
      <stop
         id="stop15666"
         offset="1.0000000"
         style="stop-color:#f8f8f8;stop-opacity:1.0000000;" />
    </linearGradient>
    <radialGradient
       id="aigrd3"
       cx="20.8921"
       cy="64.5679"
       r="5.257"
       fx="20.8921"
       fy="64.5679"
       gradientUnits="userSpaceOnUse">
      <stop
         offset="0"
         style="stop-color:#F0F0F0"
         id="stop15573" />
      <stop
         offset="1.0000000"
         style="stop-color:#9a9a9a;stop-opacity:1.0000000;"
         id="stop15575" />
    </radialGradient>
    <radialGradient
       id="aigrd2"
       cx="20.8921"
       cy="114.5684"
       r="5.256"
       fx="20.8921"
       fy="114.5684"
       gradientUnits="userSpaceOnUse">
      <stop
         offset="0"
         style="stop-color:#F0F0F0"
         id="stop15566" />
      <stop
         offset="1.0000000"
         style="stop-color:#9a9a9a;stop-opacity:1.0000000;"
         id="stop15568" />
    </radialGradient>
    <linearGradient
       id="linearGradient269">
      <stop
         id="stop270"
         offset="0.0000000"
         style="stop-color:#a3a3a3;stop-opacity:1.0000000;" />
      <stop
         id="stop271"
         offset="1.0000000"
         style="stop-color:#4c4c4c;stop-opacity:1.0000000;" />
    </linearGradient>
    <linearGradient
       id="linearGradient259">
      <stop
         id="stop260"
         offset="0.0000000"
         style="stop-color:#fafafa;stop-opacity:1.0000000;" />
      <stop
         id="stop261"
         offset="1.0000000"
         style="stop-color:#bbbbbb;stop-opacity:1.0000000;" />
    </linearGradient>
    <radialGradient
       inkscape:collect="always"
       xlink:href="#linearGradient4542"
       id="radialGradient4548"
       cx="24.306795"
       cy="42.07798"
       fx="24.306795"
       fy="42.07798"
       r="15.821514"
       gradientTransform="matrix(1.000000,0.000000,0.000000,0.284916,0.000000,30.08928)"
       gradientUnits="userSpaceOnUse" />
    <linearGradient
       x1="94.693"
       y1="112.51"
       gradientTransform="matrix(0.21718,0,0,0.21718,51.567,-11.58)"
       x2="94.693"
       gradientUnits="userSpaceOnUse"
       xlink:href="#linearGradient4126"
       y2="64.053"
       id="linearGradient3564" />
    <linearGradient
       x1="59.729"
       y1="102"
       gradientTransform="matrix(0.21718,0,0,0.21718,51.567,-11.58)"
       x2="142.62"
       gradientUnits="userSpaceOnUse"
       y2="102"
       id="linearGradient3562">
      <stop
         offset="0"
         stop-color="#3778ae"
         id="stop4094" />
      <stop
         offset="1"
         stop-color="#366c99"
         id="stop4096" />
    </linearGradient>
    <linearGradient
       id="linearGradient4126">
      <stop
         offset="0"
         stop-color="#fff"
         id="stop4128" />
      <stop
         offset="1"
         stop-opacity=".16495"
         stop-color="#fff"
         id="stop4130" />
    </linearGradient>
    <linearGradient
       x1="94.693"
       y1="112.51"
       gradientTransform="matrix(0.21718,0,0,0.21718,58.407,15.312)"
       x2="94.693"
       gradientUnits="userSpaceOnUse"
       xlink:href="#linearGradient4126"
       y2="64.053"
       id="linearGradient3560" />
    <linearGradient
       x1="119.19"
       y1="89.13"
       gradientTransform="matrix(0.21718,0,0,0.21718,52.213,9.1432)"
       x2="116.97"
       gradientUnits="userSpaceOnUse"
       y2="169.28"
       id="linearGradient3558">
      <stop
         offset="0"
         stop-color="#ffe253"
         id="stop4078" />
      <stop
         offset="1"
         stop-color="#ffca1c"
         id="stop4080" />
    </linearGradient>
    <radialGradient
       r="12.289"
       gradientTransform="scale(1.644,0.60828)"
       cx="15.116"
       cy="63.965"
       gradientUnits="userSpaceOnUse"
       id="radialGradient24190">
      <stop
         offset="0"
         id="stop4116" />
      <stop
         offset="1"
         stop-opacity="0"
         id="stop4118" />
    </radialGradient>
    <linearGradient
       x1="33.396"
       y1="36.921"
       gradientTransform="matrix(-0.032779,-0.99946,0.99946,-0.032779,-0.70965,45.063)"
       x2="34.17"
       gradientUnits="userSpaceOnUse"
       y2="38.07"
       id="linearGradient8166">
      <stop
         offset="0"
         stop-color="#fff"
         id="stop2253" />
      <stop
         offset="1"
         stop-opacity="0"
         stop-color="#fff"
         id="stop2255" />
    </linearGradient>
    <linearGradient
       id="linearGradient269-7">
      <stop
         offset="0"
         stop-color="#a3a3a3"
         id="stop270-5" />
      <stop
         offset="1"
         stop-color="#8a8a8a"
         id="stop271-3" />
    </linearGradient>
    <radialGradient
       r="37.752"
       gradientTransform="matrix(0.96827,0,0,1.0328,3.3536,0.64645)"
       cx="8.8244"
       cy="3.7561"
       gradientUnits="userSpaceOnUse"
       xlink:href="#linearGradient269-7"
       id="radialGradient15656-2" />
    <radialGradient
       r="86.708"
       gradientTransform="scale(0.96049,1.0411)"
       cx="33.967"
       cy="35.737"
       gradientUnits="userSpaceOnUse"
       xlink:href="#linearGradient259"
       id="radialGradient15658-9" />
    <radialGradient
       r="38.159"
       gradientTransform="matrix(0.96827,0,0,1.0328,3.3536,0.64645)"
       cx="8.1436"
       cy="7.2679"
       gradientUnits="userSpaceOnUse"
       id="radialGradient15668-1">
      <stop
         offset="0"
         stop-color="#fff"
         id="stop15664-2" />
      <stop
         offset="1"
         stop-color="#f8f8f8"
         id="stop15666-7" />
    </radialGradient>
    <radialGradient
       r="37.752"
       gradientTransform="matrix(0.33174,0,0,0.35383,20.105,9.5823)"
       cx="31.863"
       cy="2.3667"
       gradientUnits="userSpaceOnUse"
       xlink:href="#linearGradient269-7"
       id="radialGradient5350" />
    <radialGradient
       r="86.708"
       gradientTransform="matrix(0.14836,0.010091,-0.011044,0.16236,25.06,12.817)"
       cx="30.654"
       cy="14.937"
       gradientUnits="userSpaceOnUse"
       xlink:href="#linearGradient259"
       id="radialGradient5352" />
    <radialGradient
       r="4.2929"
       gradientTransform="matrix(1.7447,0,0,1.2838,-26.583,-3.4784)"
       cx="37.03"
       cy="12.989"
       gradientUnits="userSpaceOnUse"
       id="radialGradient4796">
      <stop
         offset="0"
         id="stop4792" />
      <stop
         offset="1"
         stop-opacity="0"
         id="stop4794" />
    </radialGradient>
    <radialGradient
       r="2.5"
       gradientTransform="matrix(2.0038,0,0,1.4,27.988,-17.4)"
       cx="4.993"
       cy="43.5"
       gradientUnits="userSpaceOnUse"
       xlink:href="#linearGradient5060"
       id="radialGradient2088" />
    <radialGradient
       r="2.5"
       gradientTransform="matrix(2.0038,0,0,1.4,-20.012,-104.4)"
       cx="4.993"
       cy="43.5"
       gradientUnits="userSpaceOnUse"
       xlink:href="#linearGradient5060"
       id="radialGradient2090" />
    <linearGradient
       x1="25.058"
       y1="47.028"
       x2="25.058"
       gradientUnits="userSpaceOnUse"
       y2="39.999"
       id="linearGradient2092">
      <stop
         offset="0"
         stop-opacity="0"
         id="stop3704" />
      <stop
         offset=".5"
         id="stop3710" />
      <stop
         offset="1"
         stop-opacity="0"
         id="stop3706" />
    </linearGradient>
  </defs>
  <sodipodi:namedview
     inkscape:window-y="49"
     inkscape:window-x="343"
     inkscape:window-height="688"
     inkscape:window-width="872"
     inkscape:document-units="px"
     inkscape:grid-bbox="true"
     showgrid="false"
     inkscape:current-layer="layer5"
     inkscape:cy="17.247375"
     inkscape:cx="7.1194128"
     inkscape:zoom="5.6568542"
     inkscape:pageshadow="2"
     inkscape:pageopacity="0.0"
     borderopacity="0.25490196"
     bordercolor="#666666"
     pagecolor="#ffffff"
     id="base"
     inkscape:showpageshadow="false"
     inkscape:window-maximized="0" />
  <metadata
     id="metadata4">
    <rdf:RDF>
      <cc:Work
         rdf:about="">
        <dc:format>image/svg+xml</dc:format>
        <dc:type
           rdf:resource="http://purl.org/dc/dcmitype/StillImage" />
        <dc:title />
        <dc:subject>
          <rdf:Bag>
            <rdf:li>text</rdf:li>
            <rdf:li>plaintext</rdf:li>
            <rdf:li>regular</rdf:li>
            <rdf:li>document</rdf:li>
          </rdf:Bag>
        </dc:subject>
        <cc:license
           rdf:resource="http://creativecommons.org/licenses/publicdomain/" />
        <dc:creator>
          <cc:Agent>
            <dc:title>Jakub Steiner</dc:title>
          </cc:Agent>
        </dc:creator>
        <dc:source>http://jimmac.musichall.cz</dc:source>
      </cc:Work>
      <cc:License
         rdf:about="http://creativecommons.org/licenses/publicdomain/">
        <cc:permits
           rdf:resource="http://creativecommons.org/ns#Reproduction" />
        <cc:permits
           rdf:resource="http://creativecommons.org/ns#Distribution" />
        <cc:permits
           rdf:resource="http://creativecommons.org/ns#DerivativeWorks" />
      </cc:License>
    </rdf:RDF>
  </metadata>
  <g
     inkscape:groupmode="layer"
     id="layer6"
     inkscape:label="Shadow" />
  <g
     style="display:inline"
     inkscape:groupmode="layer"
     inkscape:label="Base"
     id="layer1" />
  <g
     inkscape:groupmode="layer"
     id="layer5"
     inkscape:label="Text"
     style="display:inline">
    <g
       id="layer2"
       transform="matrix(1.5961252,0,0,1.6408152,-29.202458,-31.482297)">
      <ellipse
         style="opacity:0.39607999;fill:url(#radialGradient24190)"
         ry="7.4751287"
         rx="20.203051"
         cy="38.908627"
         cx="24.849752"
         id="path4112"
         transform="matrix(0.70455,0,0,0.602,15.976,20.077)" />
      <g
         id="g3545"
         transform="translate(-44,-0.99911)">
        <path
           style="fill:url(#linearGradient3558)"
           inkscape:connector-curvature="0"
           id="path2732"
           d="m 83.187,43.251 c 0,1.676 -1.455,2.525 -2.932,2.949 -2.222,0.638 -4.005,0.541 -5.862,0 -1.55,-0.452 -2.932,-1.375 -2.932,-2.949 l 0,-5.532 c 0,-1.592 1.327,-2.951 2.932,-2.951 l 5.768,-0.375 c 1.952,0 3.228,-1.219 3.228,-3.219 l 0.532,-2.674 2.198,0 c 1.707,0 2.51,1.268 2.931,2.949 0.587,2.335 0.613,4.081 0,5.901 -0.592,1.768 -1.227,2.949 -2.931,2.949 l -2.932,0 -5.862,0 0,-0.011 5.862,0 0,2.963 z"
           sodipodi:nodetypes="csscccccccsscccccc" />
        <path
           style="fill:#ffffff"
           inkscape:connector-curvature="0"
           id="path2736"
           d="m 79.523,43.618 c 0,-0.611 0.493,-1.106 1.099,-1.106 0.608,0 1.099,0.495 1.099,1.106 0,0.612 -0.491,1.107 -1.099,1.107 -0.606,0 -1.099,-0.495 -1.099,-1.107 z" />
        <path
           style="opacity:0.83721002;fill:url(#linearGradient3560)"
           inkscape:connector-curvature="0"
           id="path2742"
           d="m 83.914,28.5 0,2.593 c 0,1.641 -3.381,3.688 -3.656,3.688 l -5.75,0 -1.238,0.126 c -1.261,0.323 -1.109,1.148 -1.481,2.686 -0.138,0.57 -0.242,1.104 -0.312,1.594 -0.005,0.035 0.005,0.059 0,0.094 l 0,1.625 c 3.836,-4.28 7.927,-4.603 9.969,-4.594 4.073,0.018 5.992,-0.983 7.937,-3.187 -0.006,-0.044 0.007,-0.082 0,-0.125 -0.075,-0.491 -0.206,-1.016 -0.344,-1.563 -0.197,-0.788 -0.455,-1.481 -0.875,-2 -0.008,-0.01 -0.022,-0.021 -0.031,-0.031 -0.005,-0.004 -0.026,0.004 -0.031,0 -0.014,-0.017 -0.017,-0.046 -0.031,-0.063 -0.03,-0.02 -0.033,-0.042 -0.063,-0.062 -0.007,-0.008 -0.024,0.008 -0.031,0 -0.444,-0.288 -0.984,-0.503 -1.531,-0.594 -0.496,-0.082 -0.994,-0.144 -1.5,-0.187 l -0.313,0 -0.719,0 z"
           sodipodi:nodetypes="cccccssccscsssssssssccc" />
        <path
           style="fill:none;stroke:#bb9400"
           inkscape:connector-curvature="0"
           id="path2744"
           d="m 83.481,43.251 c 0,1.676 -1.749,2.525 -3.226,2.949 -2.222,0.638 -4.005,0.541 -5.862,0 -1.55,-0.452 -2.932,-1.375 -2.932,-2.949 l 0,-5.826 c 0,-1.886 1.369,-2.909 2.932,-2.909 l 5.213,-0.031 c 1.953,0 3.929,-1.999 3.929,-3.999 l 0,-1.986 2.584,0 c 1.707,0 2.51,1.268 2.931,2.949 0.587,2.335 0.613,4.081 0,5.901 -0.592,1.768 -1.227,3.159 -2.931,3.159 l -2.638,0 -6.156,0 0,-0.012 6.156,0.021 0,2.733 z"
           sodipodi:nodetypes="csscccccccsscccccc" />
        <path
           style="fill:#ffffff;fill-opacity:0.38356"
           inkscape:connector-curvature="0"
           id="path2746"
           d="m 84.037,29 0,1.468 c 0,2.286 -2.351,4.561 -4.591,4.561 l -5.063,0 c -1.322,0 -2.406,1.375 -2.406,2.689 l 0,5.532 c 0,0.641 0.228,1.119 0.687,1.531 0.459,0.412 1.15,0.726 1.875,0.937 1.79,0.522 3.422,0.616 5.563,0 0.695,-0.199 1.62,-0.576 2.085,-0.979 0.465,-0.403 0.802,-0.796 0.802,-1.489 l 0,-2.228 -5.668,0 -0.5,0 0,-0.5 0,-0.031 0,-0.5 0.5,0 5.875,0 0.5,0 0,0.031 2.437,0 c 0.737,0 1.097,-0.29 1.463,-0.714 0.366,-0.424 0.685,-1.256 0.975,-2.121 0.58,-1.724 0.572,-3.344 0,-5.625 -0.2,-0.796 -0.49,-1.44 -0.875,-1.875 C 87.31,29.252 86.863,29 86.133,29 l -2.096,0 z m 1,1 1.096,0 c 0.319,0 0.736,0.257 0.813,0.343 0.222,0.252 0.478,0.761 0.656,1.469 0.546,2.174 0.547,3.53 0.031,5.063 -0.277,0.826 -0.565,1.604 -0.781,1.835 -0.195,0.208 -0.608,0.312 -0.719,0.312 l -1.437,0 0,-0.031 -1.5,0 -5.875,0 -1.5,0 0,1.5 0,0.031 0,1.5 1.5,0 4.668,0 0,1.228 c 0,0.446 -0.597,0.723 -0.7,0.812 -0.299,0.259 -0.829,0.513 -1.437,0.688 -1.978,0.568 -3.375,0.482 -5.031,0 -0.627,-0.183 -1.17,-0.451 -1.469,-0.719 C 73.345,44.025 73.328,44.006 73.321,44 73.278,43.959 73.227,43.908 73.196,43.875 73.166,43.84 73.123,43.781 73.102,43.75 73.09,43.731 73.054,43.681 73.039,43.656 73.024,43.621 73.017,43.57 73.008,43.531 c -0.006,-0.032 -0.028,-0.09 -0.031,-0.125 -0.003,-0.045 0,-0.105 0,-0.156 l 0,-5.532 c 0,-0.758 0.648,-1.689 1.406,-1.689 l 5.063,0 c 2.816,0 5.591,-2.704 5.591,-5.561 l 0,-0.468 z"
           sodipodi:nodetypes="ccccccssssccccccccccccssssccccssssccccccccccccsssssssssscccccc" />
        <g
           id="g3534"
           transform="translate(0.038609,19.855)">
          <path
             style="fill:url(#linearGradient3562)"
             inkscape:connector-curvature="0"
             id="path2730"
             d="m 70.815,4.8256 c 0,-1.6766 0.45,-2.5887 2.932,-3.0231 1.685,-0.2953 3.846,-0.3322 5.862,0 1.592,0.2628 2.932,1.4486 2.932,3.0231 l 0,5.5314 c 0,1.622 -1.301,2.951 -2.932,2.951 l -5.316,0.294 c -1.989,0 -4.044,1.738 -4.044,3.656 l -0.168,2.318 -2.015,0 c -1.705,0 -2.697,-1.229 -3.114,-2.949 -0.563,-2.311 -0.539,-3.688 0,-5.901 0.466,-1.9304 1.958,-2.949 3.663,-2.949 l 2.2,0 5.864,0 0,-0.0196 -5.864,0 0,-2.9318 z"
             sodipodi:nodetypes="csscccccccssccccccc" />
          <path
             style="fill:#ffffff"
             inkscape:connector-curvature="0"
             id="path2734"
             d="m 72.281,4.4586 c 0,-0.6124 0.491,-1.1076 1.099,-1.1076 0.606,0 1.099,0.4952 1.099,1.1076 0,0.6102 -0.493,1.1054 -1.099,1.1054 -0.608,0 -1.099,-0.4952 -1.099,-1.1054 z" />
          <path
             style="opacity:0.37673998;fill:url(#linearGradient3564)"
             inkscape:connector-curvature="0"
             id="path2738"
             d="m 76.175,1.558 c -0.868,0.021 -1.701,0.1208 -2.438,0.25 -2.482,0.4344 -2.906,1.3547 -2.906,3.0312 l 0,2.9063 5.844,0 0,0.0313 -5.844,0 -2.219,0 c -1.705,0 -3.189,1.0068 -3.656,2.9372 -0.317,1.303 -0.461,2.322 -0.406,3.406 3.861,-4.3764 8.005,-4.6963 10.062,-4.687 4.073,0.018 5.992,-0.9837 7.938,-3.1875 l 0,-1.4063 C 82.55,3.2647 81.204,2.0708 79.612,1.808 78.478,1.6211 77.29,1.531 76.175,1.558 Z"
             sodipodi:nodetypes="csccccccscsccsc" />
          <path
             style="fill:none;stroke:#274e70"
             inkscape:connector-curvature="0"
             id="path3530"
             d="m 70.481,4.8948 c 0,-1.6766 1.749,-2.5257 3.226,-2.9492 2.221,-0.6385 4.004,-0.5408 5.861,0 1.551,0.4517 2.932,1.3747 2.932,2.9492 l 0,5.5312 c 0,1.592 -1.327,3.204 -2.932,3.204 l -5.461,0 c -1.533,0 -3.68,1.687 -3.68,3.687 l 0,2.328 -2.584,0 c -1.707,0 -2.511,-1.268 -2.932,-2.949 -0.586,-2.335 -0.612,-4.081 0,-5.901 0.593,-1.7673 1.227,-3.1586 2.932,-3.1586 l 2.638,0 6.155,0 0,0.0116 -6.155,-0.021 0,-2.7322 z"
             sodipodi:nodetypes="csscccccccsscccccc" />
          <path
             style="fill:#ffffff;fill-opacity:0.16471001"
             inkscape:connector-curvature="0"
             id="path3532"
             d="m 69.925,19.146 0,-1.716 c 0,-2.286 2.083,-4.314 4.324,-4.314 l 5.329,0 c 1.323,0 2.407,-1.375 2.407,-2.689 l 0,-5.5314 c 0,-0.641 -0.229,-1.1191 -0.688,-1.5312 C 80.838,2.9522 80.148,2.6383 79.422,2.4269 77.632,1.9056 76,1.8117 73.86,2.4269 73.164,2.6262 72.24,3.0038 71.774,3.4066 71.309,3.8094 70.972,4.202 70.972,4.8956 l 0,2.2276 5.669,0 0.5,0 0,0.5 0,0.0313 0,0.5 -0.5,0 -5.875,0 -0.5,0 0,-0.0313 -2.438,0 c -0.737,0 -1.097,0.29 -1.463,0.714 -0.366,0.424 -0.684,1.2558 -0.974,2.1208 -0.58,1.724 -0.573,3.344 0,5.625 0.199,0.797 0.489,1.44 0.875,1.875 0.385,0.435 0.833,0.688 1.562,0.688 l 2.097,0 z m -1,-1 -1.097,0 c -0.319,0 -0.736,-0.258 -0.812,-0.344 -0.223,-0.251 -0.479,-0.76 -0.656,-1.469 -0.546,-2.173 -0.548,-3.53 -0.032,-5.062 0.277,-0.827 0.565,-1.6046 0.782,-1.8353 0.195,-0.2082 0.608,-0.3125 0.718,-0.3125 l 1.438,0 0,0.0313 1.5,0 5.875,0 1.5,0 0,-1.5 0,-0.0313 0,-1.5 -1.5,0 -4.669,0 0,-1.2276 c 0,-0.4461 0.597,-0.7235 0.7,-0.8125 0.299,-0.2589 0.829,-0.513 1.438,-0.6875 1.977,-0.5684 3.375,-0.4822 5.031,0 0.627,0.1826 1.17,0.4504 1.469,0.7188 0.007,0.0063 0.024,0.0247 0.031,0.0312 0.042,0.0405 0.094,0.0914 0.125,0.125 0.029,0.0352 0.073,0.0935 0.094,0.125 0.011,0.019 0.047,0.0691 0.062,0.0938 0.015,0.035 0.022,0.0859 0.031,0.125 0.007,0.032 0.028,0.0898 0.032,0.125 0.003,0.0451 0,0.1052 0,0.1562 l 0,5.5314 c 0,0.758 -0.649,1.689 -1.407,1.689 l -5.329,0 c -2.817,0 -5.324,2.457 -5.324,5.314 l 0,0.716 z"
             sodipodi:nodetypes="ccccccssssccccccccccccssssccccssssccccccccccccsssssssssscccccc" />
        </g>
      </g>
    </g>
  </g>
</svg>
