<?xml version="1.0" encoding="UTF-8" standalone="no"?>
<!-- Created with Inkscape (http://www.inkscape.org/) -->

<svg
   xmlns:dc="http://purl.org/dc/elements/1.1/"
   xmlns:cc="http://creativecommons.org/ns#"
   xmlns:rdf="http://www.w3.org/1999/02/22-rdf-syntax-ns#"
   xmlns:svg="http://www.w3.org/2000/svg"
   xmlns="http://www.w3.org/2000/svg"
   xmlns:xlink="http://www.w3.org/1999/xlink"
   xmlns:sodipodi="http://sodipodi.sourceforge.net/DTD/sodipodi-0.dtd"
   xmlns:inkscape="http://www.inkscape.org/namespaces/inkscape"
   sodipodi:docname="drive-removable-media.svg"
   inkscape:version="0.91 r13725"
   sodipodi:version="0.32"
   id="svg2913"
   height="48px"
   width="48px"
   inkscape:output_extension="org.inkscape.output.svg.inkscape"
   version="1.1">
  <defs
     id="defs3">
    <inkscape:perspective
       sodipodi:type="inkscape:persp3d"
       inkscape:vp_x="0 : 24 : 1"
       inkscape:vp_y="0 : 1000 : 0"
       inkscape:vp_z="48 : 24 : 1"
       inkscape:persp3d-origin="24 : 16 : 1"
       id="perspective61" />
    <radialGradient
       inkscape:collect="always"
       xlink:href="#linearGradient5060"
       id="radialGradient6719"
       gradientUnits="userSpaceOnUse"
       gradientTransform="matrix(-2.774389,0,0,1.969706,112.7623,-872.8854)"
       cx="605.71429"
       cy="486.64789"
       fx="605.71429"
       fy="486.64789"
       r="117.14286" />
    <linearGradient
       inkscape:collect="always"
       id="linearGradient5060">
      <stop
         style="stop-color:black;stop-opacity:1;"
         offset="0"
         id="stop5062" />
      <stop
         style="stop-color:black;stop-opacity:0;"
         offset="1"
         id="stop5064" />
    </linearGradient>
    <radialGradient
       inkscape:collect="always"
       xlink:href="#linearGradient5060"
       id="radialGradient6717"
       gradientUnits="userSpaceOnUse"
       gradientTransform="matrix(2.774389,0,0,1.969706,-1891.633,-872.8854)"
       cx="605.71429"
       cy="486.64789"
       fx="605.71429"
       fy="486.64789"
       r="117.14286" />
    <linearGradient
       id="linearGradient5048">
      <stop
         style="stop-color:black;stop-opacity:0;"
         offset="0"
         id="stop5050" />
      <stop
         id="stop5056"
         offset="0.5"
         style="stop-color:black;stop-opacity:1;" />
      <stop
         style="stop-color:black;stop-opacity:0;"
         offset="1"
         id="stop5052" />
    </linearGradient>
    <linearGradient
       inkscape:collect="always"
       xlink:href="#linearGradient5048"
       id="linearGradient6715"
       gradientUnits="userSpaceOnUse"
       gradientTransform="matrix(2.774389,0,0,1.969706,-1892.179,-872.8854)"
       x1="302.85715"
       y1="366.64789"
       x2="302.85715"
       y2="609.50507" />
    <linearGradient
       id="linearGradient5699">
      <stop
         id="stop5701"
         offset="0"
         style="stop-color:#7a7a7a;stop-opacity:1;" />
      <stop
         id="stop5703"
         offset="1"
         style="stop-color:#a5a5a5;stop-opacity:1;" />
    </linearGradient>
    <linearGradient
       id="linearGradient2681">
      <stop
         style="stop-color:#000000;stop-opacity:0.47524753;"
         offset="0.0000000"
         id="stop2683" />
      <stop
         style="stop-color:#000000;stop-opacity:0;"
         offset="1"
         id="stop2685" />
    </linearGradient>
    <linearGradient
       id="linearGradient2673">
      <stop
         style="stop-color:#ffffff;stop-opacity:1;"
         offset="0"
         id="stop2675" />
      <stop
         style="stop-color:#6f6f6f;stop-opacity:1.0000000;"
         offset="1.0000000"
         id="stop2677" />
    </linearGradient>
    <linearGradient
       id="linearGradient4264"
       inkscape:collect="always">
      <stop
         id="stop4266"
         offset="0"
         style="stop-color:#000000;stop-opacity:1;" />
      <stop
         id="stop4268"
         offset="1"
         style="stop-color:#000000;stop-opacity:0;" />
    </linearGradient>
    <linearGradient
       id="linearGradient4254"
       inkscape:collect="always">
      <stop
         id="stop4256"
         offset="0"
         style="stop-color:#ffffff;stop-opacity:1;" />
      <stop
         id="stop4258"
         offset="1"
         style="stop-color:#ffffff;stop-opacity:0;" />
    </linearGradient>
    <linearGradient
       id="linearGradient4244">
      <stop
         id="stop4246"
         offset="0.0000000"
         style="stop-color:#e4e4e4;stop-opacity:1.0000000;" />
      <stop
         id="stop4248"
         offset="1.0000000"
         style="stop-color:#d3d3d3;stop-opacity:1.0000000;" />
    </linearGradient>
    <linearGradient
       id="linearGradient4228">
      <stop
         id="stop4230"
         offset="0.0000000"
         style="stop-color:#bbbbbb;stop-opacity:1.0000000;" />
      <stop
         id="stop4232"
         offset="1.0000000"
         style="stop-color:#9f9f9f;stop-opacity:1.0000000;" />
    </linearGradient>
    <linearGradient
       gradientUnits="userSpaceOnUse"
       y2="40.943935"
       x2="36.183067"
       y1="28.481176"
       x1="7.6046205"
       id="linearGradient4234"
       xlink:href="#linearGradient4228"
       inkscape:collect="always"
       gradientTransform="translate(0.000000,5.546300e-2)" />
    <radialGradient
       gradientUnits="userSpaceOnUse"
       gradientTransform="matrix(1.286242,0.781698,-0.710782,1.169552,-2.354348,-4.821398)"
       r="20.935817"
       fy="2.9585190"
       fx="15.571491"
       cy="2.9585190"
       cx="15.571491"
       id="radialGradient4250"
       xlink:href="#linearGradient4244"
       inkscape:collect="always" />
    <linearGradient
       gradientUnits="userSpaceOnUse"
       y2="47.620636"
       x2="44.096100"
       y1="4.4331360"
       x1="12.378357"
       id="linearGradient4260"
       xlink:href="#linearGradient4254"
       inkscape:collect="always"
       gradientTransform="translate(0.000000,5.546300e-2)" />
    <radialGradient
       gradientUnits="userSpaceOnUse"
       gradientTransform="matrix(1.000000,0.000000,0.000000,0.651032,-6.731815e-16,9.455693)"
       r="23.555494"
       fy="27.096155"
       fx="23.201941"
       cy="27.096155"
       cx="23.201941"
       id="radialGradient4270"
       xlink:href="#linearGradient4264"
       inkscape:collect="always" />
    <radialGradient
       inkscape:collect="always"
       xlink:href="#linearGradient2673"
       id="radialGradient2679"
       cx="40.796875"
       cy="33.734375"
       fx="40.796875"
       fy="33.734375"
       r="0.98437500"
       gradientUnits="userSpaceOnUse"
       gradientTransform="matrix(1.253968,-7.218212e-15,7.218212e-15,1.253968,-10.36111,-8.567460)" />
    <linearGradient
       inkscape:collect="always"
       xlink:href="#linearGradient2681"
       id="linearGradient2687"
       x1="25.785229"
       y1="32.363384"
       x2="25.785229"
       y2="35.670216"
       gradientUnits="userSpaceOnUse" />
    <linearGradient
       inkscape:collect="always"
       xlink:href="#linearGradient2681"
       id="linearGradient2689"
       gradientUnits="userSpaceOnUse"
       x1="25.785229"
       y1="32.363384"
       x2="25.785229"
       y2="35.670216" />
    <linearGradient
       gradientUnits="userSpaceOnUse"
       y2="10.596288"
       x2="16.127340"
       y1="22.705490"
       x1="34.420757"
       id="linearGradient5705"
       xlink:href="#linearGradient5699"
       inkscape:collect="always" />
  </defs>
  <sodipodi:namedview
     fill="#f57900"
     inkscape:showpageshadow="false"
     inkscape:window-y="33"
     inkscape:window-x="0"
     inkscape:window-height="711"
     inkscape:window-width="1360"
     inkscape:document-units="px"
     inkscape:grid-bbox="true"
     showgrid="false"
     inkscape:current-layer="layer2"
     inkscape:cy="35.981066"
     inkscape:cx="17.969172"
     inkscape:zoom="7.9999999"
     inkscape:pageshadow="2"
     inkscape:pageopacity="0.0"
     borderopacity="0.36078431"
     bordercolor="#666666"
     pagecolor="#ffffff"
     id="base"
     inkscape:window-maximized="1" />
  <metadata
     id="metadata4">
    <rdf:RDF>
      <cc:Work
         rdf:about="">
        <dc:format>image/svg+xml</dc:format>
        <dc:type
           rdf:resource="http://purl.org/dc/dcmitype/StillImage" />
        <dc:title>Drive - Removable</dc:title>
        <dc:creator>
          <cc:Agent>
            <dc:title>Jakub Steiner</dc:title>
          </cc:Agent>
        </dc:creator>
        <dc:subject>
          <rdf:Bag>
            <rdf:li>media</rdf:li>
            <rdf:li>removable</rdf:li>
          </rdf:Bag>
        </dc:subject>
        <cc:license
           rdf:resource="http://creativecommons.org/licenses/publicdomain/" />
        <dc:identifier />
        <dc:source>http://jimmac.musichall.cz</dc:source>
      </cc:Work>
      <cc:License
         rdf:about="http://creativecommons.org/licenses/publicdomain/">
        <cc:permits
           rdf:resource="http://creativecommons.org/ns#Reproduction" />
        <cc:permits
           rdf:resource="http://creativecommons.org/ns#Distribution" />
        <cc:permits
           rdf:resource="http://creativecommons.org/ns#DerivativeWorks" />
      </cc:License>
    </rdf:RDF>
  </metadata>
  <g
     inkscape:label="pix"
     id="layer2"
     inkscape:groupmode="layer">
    <g
       transform="matrix(2.45274e-2,0,0,2.086758e-2,45.69054,36.1536)"
       id="g6707">
      <rect
         style="opacity:0.40206185;color:black;fill:url(#linearGradient6715);fill-opacity:1;fill-rule:nonzero;stroke:none;stroke-width:1;stroke-linecap:round;stroke-linejoin:miter;marker:none;marker-start:none;marker-mid:none;marker-end:none;stroke-miterlimit:4;stroke-dasharray:none;stroke-dashoffset:0;stroke-opacity:1;visibility:visible;display:inline;overflow:visible"
         id="rect6709"
         width="1339.6335"
         height="478.35718"
         x="-1559.2523"
         y="-150.69685" />
      <path
         style="opacity:0.40206185;color:black;fill:url(#radialGradient6717);fill-opacity:1;fill-rule:nonzero;stroke:none;stroke-width:1;stroke-linecap:round;stroke-linejoin:miter;marker:none;marker-start:none;marker-mid:none;marker-end:none;stroke-miterlimit:4;stroke-dasharray:none;stroke-dashoffset:0;stroke-opacity:1;visibility:visible;display:inline;overflow:visible"
         d="M -219.61876,-150.68038 C -219.61876,-150.68038 -219.61876,327.65041 -219.61876,327.65041 C -76.744594,328.55086 125.78146,220.48075 125.78138,88.454235 C 125.78138,-43.572302 -33.655436,-150.68036 -219.61876,-150.68038 z "
         id="path6711"
         sodipodi:nodetypes="cccc" />
      <path
         sodipodi:nodetypes="cccc"
         id="path6713"
         d="M -1559.2523,-150.68038 C -1559.2523,-150.68038 -1559.2523,327.65041 -1559.2523,327.65041 C -1702.1265,328.55086 -1904.6525,220.48075 -1904.6525,88.454235 C -1904.6525,-43.572302 -1745.2157,-150.68036 -1559.2523,-150.68038 z "
         style="opacity:0.40206185;color:black;fill:url(#radialGradient6719);fill-opacity:1;fill-rule:nonzero;stroke:none;stroke-width:1;stroke-linecap:round;stroke-linejoin:miter;marker:none;marker-start:none;marker-mid:none;marker-end:none;stroke-miterlimit:4;stroke-dasharray:none;stroke-dashoffset:0;stroke-opacity:1;visibility:visible;display:inline;overflow:visible" />
    </g>
    <path
       sodipodi:nodetypes="cccsccccccccc"
       id="path4196"
       d="M 11.285690,8.0180850 C 10.660690,8.0180850 10.254441,8.3082650 10.004442,8.8618380 C 10.004441,8.8618380 3.5356915,25.965402 3.5356915,25.965402 C 3.5356915,25.965402 3.2856915,26.636961 3.2856915,27.746652 C 3.2856915,27.746652 3.2856915,37.396620 3.2856915,37.396620 C 3.2856915,38.479233 3.9434770,39.021622 4.9419415,39.021620 L 43.504440,39.021620 C 44.489293,39.021620 45.098190,38.303440 45.098190,37.177870 L 45.098190,27.527902 C 45.098190,27.527902 45.204153,26.757479 45.004440,26.215402 L 38.285690,9.0180890 C 38.101165,8.5061820 37.648785,8.0299910 37.160690,8.0180850 L 11.285690,8.0180850 z "
       style="fill:none;fill-opacity:1.0000000;fill-rule:evenodd;stroke:#535353;stroke-width:2.0000000;stroke-linecap:round;stroke-linejoin:round;stroke-miterlimit:4.0000000;stroke-dasharray:none;stroke-opacity:1.0000000" />
    <path
       sodipodi:nodetypes="ccccccccc"
       id="path4170"
       d="M 3.2735915,27.052276 L 4.0381936,26.360061 L 41.647883,26.422561 L 45.110290,26.739859 L 45.110290,37.178391 C 45.110290,38.303960 44.503272,39.021722 43.518419,39.021722 L 4.9354314,39.021722 C 3.9369667,39.021722 3.2735915,38.479671 3.2735915,37.397058 L 3.2735915,27.052276 z "
       style="fill:url(#linearGradient4234);fill-opacity:1.0000000;fill-rule:evenodd;stroke:none;stroke-width:1.0204430px;stroke-linecap:butt;stroke-linejoin:miter;stroke-opacity:1.0000000" />
    <path
       sodipodi:nodetypes="csccccccs"
       id="path3093"
       d="M 3.5490842,25.969868 C 2.8347985,27.434154 3.5484686,28.362725 4.5847985,28.362725 C 4.5847985,28.362725 43.584797,28.362725 43.584797,28.362725 C 44.703844,28.338915 45.430035,27.350820 45.013368,26.219867 L 38.299082,9.0091620 C 38.114558,8.4972550 37.644320,8.0210630 37.156225,8.0091580 L 11.299083,8.0091580 C 10.674083,8.0091580 10.263369,8.3127310 10.013370,8.8663040 C 10.013370,8.8663040 3.5490842,25.969868 3.5490842,25.969868 z "
       style="fill:url(#radialGradient4250);fill-opacity:1.0000000;fill-rule:evenodd;stroke:none;stroke-width:1.0000000px;stroke-linecap:butt;stroke-linejoin:miter;stroke-opacity:1.0000000" />
    <path
       sodipodi:nodetypes="ccccccc"
       id="path4201"
       d="M 43.562434,27.674347 C 43.562434,27.674347 5.4437179,27.674346 5.4437180,27.674347 C 4.1544861,27.674347 3.5317878,27.437788 3.3154731,26.894679 C 3.4072345,27.839011 4.1854847,28.455597 5.4437180,28.455597 C 5.4437179,28.455596 43.562434,28.455597 43.562434,28.455597 C 44.638441,28.422526 45.301832,27.596846 45.047181,26.300495 C 44.913133,27.142077 44.470547,27.646437 43.562434,27.674347 z "
       style="opacity:1.0000000;fill:#ffffff;fill-opacity:1.0000000;fill-rule:evenodd;stroke:none;stroke-width:1.0000000px;stroke-linecap:butt;stroke-linejoin:miter;stroke-opacity:1.0000000" />
    <path
       sodipodi:nodetypes="ccccccccc"
       id="path5637"
       d="M 38.344670,9.2120874 C 38.344670,9.2120874 44.500000,24.750000 44.500000,24.750000 C 43.881282,24.352252 43.618718,24.036612 43.000000,24.125000 L 5.2500000,24.125000 C 4.5428932,24.125000 3.8383883,24.875000 3.8383883,24.875000 L 10.125000,8.8750000 C 10.258882,8.3753463 10.748699,8.0732233 11.411612,8.0732233 L 36.830806,7.9848350 C 38.156631,8.1616117 38.123699,8.5933690 38.344670,9.2120874 z "
       style="opacity:1;color:#000000;fill:url(#linearGradient5705);fill-opacity:1.0;fill-rule:nonzero;stroke:none;stroke-width:1.0000000;stroke-linecap:butt;stroke-linejoin:miter;marker:none;marker-start:none;marker-mid:none;marker-end:none;stroke-miterlimit:4.0000000;stroke-dasharray:none;stroke-dashoffset:0.0000000;stroke-opacity:1.0000000;visibility:visible;display:inline;overflow:visible" />
    <path
       style="stroke-opacity:1.0000000;stroke-linejoin:miter;stroke-linecap:butt;stroke-width:1.0000000px;stroke:none;fill-rule:evenodd;fill-opacity:1;fill:#686868"
       d="M 44.707773,25.362009 C 44.373548,25.128501 44.072800,25.167489 43.518240,25.139579 C 43.518240,25.139579 4.7366112,24.874414 4.7366112,24.874414 C 4.1620870,24.918608 3.4957121,25.684093 3.4957121,25.684093 C 3.4957121,25.684093 4.0667741,24.284062 4.0667741,24.284062 C 4.0667741,24.284062 4.4064556,23.120892 5.6646889,23.120892 C 5.6646888,23.120893 42.855327,23.120892 42.855327,23.120892 C 43.577781,23.153963 44.022560,23.550547 44.207491,24.016460 L 44.707773,25.362009 z "
       id="path5697"
       sodipodi:nodetypes="cccsccccc" />
    <path
       style="fill:none;fill-opacity:1.0000000;fill-rule:evenodd;stroke:url(#linearGradient4260);stroke-width:1.0000002;stroke-linecap:round;stroke-linejoin:round;stroke-miterlimit:4.0000000;stroke-dasharray:none;stroke-opacity:1.0000000"
       d="M 11.642515,8.4711800 C 11.040823,8.4711800 10.649724,8.7505390 10.409049,9.2834670 C 10.409048,9.2834670 3.9940341,25.874196 3.9940341,25.874196 C 3.9940341,25.874196 3.7533573,26.520711 3.7533573,27.589019 C 3.7533573,27.589019 3.7533573,36.879115 3.7533573,36.879115 C 3.7533573,38.233855 4.1974134,38.506014 5.3478414,38.506014 L 43.034746,38.506014 C 44.357872,38.506014 44.569062,38.189617 44.569062,36.668522 L 44.569062,27.378426 C 44.569062,27.378426 44.671072,26.636735 44.478807,26.114873 L 37.885616,9.3088910 C 37.707973,8.8160750 37.334964,8.4826410 36.865071,8.4711800 L 11.642515,8.4711800 z "
       id="path4252"
       sodipodi:nodetypes="cccsccccccccc" />
    <g
       id="g2142"
       transform="matrix(0.828197,0.000000,0.000000,0.610240,4.176000,11.16143)"
       style="fill:url(#linearGradient2687);fill-opacity:1.0000000">
      <rect
         y="32.363384"
         x="5.3414402"
         height="3.8650389"
         width="37.930714"
         id="rect2151"
         style="opacity:1.0000000;color:#000000;fill:url(#linearGradient2689);fill-opacity:1.0000000;fill-rule:evenodd;stroke:none;stroke-width:1.0000000;stroke-linecap:square;stroke-linejoin:round;marker:none;marker-start:none;marker-mid:none;marker-end:none;stroke-miterlimit:4.0000000;stroke-dasharray:none;stroke-dashoffset:0.0000000;stroke-opacity:0.42372879;visibility:visible;display:inline;overflow:visible" />
    </g>
    <path
       style="opacity:0.71428573;fill:#ffffff;fill-opacity:1.0000000;fill-rule:evenodd;stroke:none;stroke-width:1.0000000px;stroke-linecap:butt;stroke-linejoin:miter;stroke-opacity:1.0000000"
       d="M 8.6250000,33.250000 C 8.6250000,33.250000 9.0696486,34.066942 9.8651437,34.022748 C 9.8651437,34.022748 40.715385,34.000000 40.715385,34.000000 C 40.671191,31.569320 40.027885,30.881430 40.027885,30.881430 L 40.062500,33.312500 L 8.6250000,33.250000 z "
       id="path1899"
       sodipodi:nodetypes="cccccc" />
    <path
       sodipodi:type="arc"
       style="opacity:1.0000000;color:#000000;fill:url(#radialGradient2679);fill-opacity:1.0000000;fill-rule:evenodd;stroke:none;stroke-width:1.0204430px;stroke-linecap:butt;stroke-linejoin:miter;marker:none;marker-start:none;marker-mid:none;marker-end:none;stroke-miterlimit:4.0000000;stroke-dasharray:none;stroke-dashoffset:0.0000000;stroke-opacity:1.0000000;visibility:visible;display:inline;overflow:visible;font-family:Bitstream Vera Sans"
       id="path2671"
       sodipodi:cx="41.015625"
       sodipodi:cy="33.984375"
       sodipodi:rx="0.98437500"
       sodipodi:ry="0.98437500"
       d="M 42.000000 33.984375 A 0.98437500 0.98437500 0 1 1  40.031250,33.984375 A 0.98437500 0.98437500 0 1 1  42.000000 33.984375 z"
       transform="matrix(1.380952,0.000000,0.000000,1.380952,-15.62500,-10.94643)" />
    <path
       inkscape:connector-curvature="0"
       style="display:inline;opacity:0.4;fill:#ffffff;fill-opacity:1;stroke:none"
       id="path3218"
       d="m -18.335606,13.723743 c -0.0025,5.69e-4 -0.01409,0.0049 -0.01679,0.0056 -0.0029,8.36e-4 -0.01365,0.0047 -0.01679,0.0056 -0.0067,0.0022 -0.02605,0.0085 -0.03356,0.01132 -0.439384,0.170454 -2.114522,1.145071 -2.248943,1.313393 -0.0019,0.0028 9.74e-4,0.0091 0,0.01132 -1.88e-4,9.57e-4 -8.1e-5,0.0048 0,0.0056 5.82e-4,5.12e-4 -6.92e-4,0.0051 0,0.0056 0.002,0.001 0.01419,0.0047 0.01679,0.0056 0.0032,9.57e-4 0.01306,0.0047 0.01679,0.0056 0.107827,0.0252 0.425906,0.04437 0.872724,0.05095 l 0.839158,0.01132 0.03356,3.045711 c 0.01826,1.751313 -0.02074,2.989293 -0.08392,3.085341 -5.18e-4,4.78e-4 5.22e-4,0.0054 0,0.0056 -0.0058,0.0018 -0.02675,0.0041 -0.03357,0.0056 -0.0025,4.38e-4 -0.0142,0.0053 -0.01679,0.0056 -0.0027,3.77e-4 -0.01401,-3.47e-4 -0.01679,0 -0.0029,3.17e-4 -0.01381,-2.88e-4 -0.01679,0 -0.0062,5.17e-4 -0.02705,0.0053 -0.03356,0.0056 -0.0033,1.71e-4 -0.01333,-1.43e-4 -0.01679,0 -0.391741,0.01272 -1.342272,-0.146465 -1.997195,-0.350994 -1.167901,-0.364725 -1.941365,-1.000648 -2.165029,-1.766287 l -0.08392,-0.29438 0.503496,-0.186819 c 0.303722,-0.111145 0.537115,-0.243579 0.587409,-0.33401 0.316119,-0.568389 -1.323599,-0.994787 -2.869921,-0.747275 -1.346584,0.215542 -1.421079,0.911424 -0.117481,1.183186 0.149303,0.03113 0.264618,0.05848 0.335662,0.09058 0.005,0.0024 0.01199,0.0088 0.01679,0.01132 0.0046,0.0025 0.01242,0.0087 0.01679,0.01132 0.0063,0.004 0.02779,0.01274 0.03356,0.01699 0.04851,0.03747 0.0743,0.0857 0.100698,0.152851 0.628315,1.598908 2.114489,2.378063 5.135647,2.683398 l 0.688112,0.06793 0.03356,1.48889 0.03356,1.483228 -0.620977,0.15285 c -0.736268,0.178425 -1.079893,0.348802 -1.191605,0.600086 -0.158742,0.357068 0.471061,0.737758 1.493702,0.894466 0.997572,0.152865 2.171314,0.05498 2.886704,-0.23777 0.672373,-0.275149 0.762247,-0.606535 0.26853,-0.939755 -0.250169,-0.168844 -0.507663,-0.254201 -1.074123,-0.350992 l -0.402796,-0.06793 0.03356,-2.372034 0.01679,-2.372032 0.73846,-0.04528 c 1.551808,-0.103328 2.4765,-0.27605 3.490897,-0.651035 0.73173,-0.270494 1.17386,-0.533918 1.594402,-0.956739 0.327905,-0.329683 0.687247,-0.990755 0.688108,-1.256781 2.94e-4,-0.09069 0.07727,-0.165723 0.201399,-0.215124 0.115867,-0.04361 0.274252,-0.06793 0.469928,-0.06793 0.0346,0 0.08372,-0.0031 0.117483,-0.0056 0.02388,-0.0021 0.06183,-0.0081 0.08392,-0.01132 0.06052,-0.0095 0.1204871,-0.02461 0.1510491,-0.03963 0.0059,-0.0032 0.0129,-0.008 0.01679,-0.01132 0.106392,-0.106637 0.09198,-0.912637 -0.01679,-1.00769 -0.0018,-0.0014 -0.01497,-0.0047 -0.01679,-0.0057 -0.0015,-5.96e-4 -0.01507,-0.005 -0.01679,-0.0056 -0.0041,-0.0011 -0.01185,-0.0046 -0.01679,-0.0056 -0.01064,-0.002 -0.03645,-0.0038 -0.05036,-0.0056 -0.0074,-8.93e-4 -0.02532,-0.0048 -0.03356,-0.0056 -0.208506,-0.01944 -0.67944,-0.02357 -1.577617,-0.01699 l -1.611184,0.01132 0,0.543474 0,0.537812 0.419579,0.02831 c 0.189777,0.01309 0.37529,0.03692 0.453145,0.05095 0.0026,5.06e-4 0.01452,-4.89e-4 0.01679,0 0.0039,9.74e-4 0.01421,0.0048 0.01679,0.0056 8.93e-4,4.95e-4 -7.55e-4,0.005 0,0.0056 6.3e-4,7.69e-4 0.01617,0.0048 0.01679,0.0056 0.06881,0.112113 -0.233294,0.835088 -0.486712,1.143556 -0.689649,0.839463 -2.311248,1.411894 -4.044743,1.432278 l -0.604194,0.0056 0,-2.213519 0,-2.21352 0.68811,-0.01132 c 0.339648,-0.0064 0.671143,-0.02739 0.772026,-0.04529 0.0045,-9e-4 0.01362,-0.0047 0.01679,-0.0056 3.15e-4,-3.58e-4 -2.43e-4,-0.0053 0,-0.0056 1.09e-4,-0.002 9.74e-4,-0.0087 0,-0.01132 -0.08913,-0.165962 -1.967753,-1.252383 -2.332861,-1.34736 -0.0029,-7.04e-4 -0.01407,-0.0051 -0.01679,-0.0056 -0.0012,-1.43e-4 -0.01567,1.03e-4 -0.01679,0 -9.74e-4,9.9e-5 -0.01578,-1.36e-4 -0.01679,0 z" />
    <path
       d="m 23.914025,9.657879 c -0.0025,5.69e-4 -0.01409,0.0049 -0.01679,0.0056 -0.0029,8.36e-4 -0.01365,0.0047 -0.01679,0.0056 -0.0067,0.0022 -0.02605,0.0085 -0.03356,0.01132 -0.439384,0.170454 -2.114522,1.145071 -2.248943,1.313393 -0.0019,0.0028 9.74e-4,0.0091 0,0.01132 -1.88e-4,9.57e-4 -8.1e-5,0.0048 0,0.0056 5.82e-4,5.12e-4 -6.92e-4,0.0051 0,0.0056 0.002,0.001 0.01419,0.0047 0.01679,0.0056 0.0032,9.57e-4 0.01306,0.0047 0.01679,0.0056 0.107827,0.0252 0.425906,0.04437 0.872724,0.05095 l 0.839158,0.01132 0.03356,3.045711 c 0.01826,1.751313 -0.02074,2.989293 -0.08392,3.085341 -5.18e-4,4.78e-4 5.22e-4,0.0054 0,0.0056 -0.0058,0.0018 -0.02675,0.0041 -0.03357,0.0056 -0.0025,4.38e-4 -0.0142,0.0053 -0.01679,0.0056 -0.0027,3.77e-4 -0.01401,-3.47e-4 -0.01679,0 -0.0029,3.17e-4 -0.01381,-2.88e-4 -0.01679,0 -0.0062,5.17e-4 -0.02705,0.0053 -0.03356,0.0056 -0.0033,1.71e-4 -0.01333,-1.43e-4 -0.01679,0 -0.391741,0.01272 -1.342272,-0.146465 -1.997195,-0.350994 -1.167901,-0.364725 -1.941365,-1.000648 -2.165029,-1.766287 l -0.08392,-0.29438 0.503496,-0.186819 c 0.303722,-0.111145 0.537115,-0.243579 0.587409,-0.33401 0.316119,-0.568389 -1.323599,-0.994787 -2.869921,-0.747275 -1.346584,0.215542 -1.421079,0.911424 -0.117481,1.183186 0.149303,0.03113 0.264618,0.05848 0.335662,0.09058 0.005,0.0024 0.01199,0.0088 0.01679,0.01132 0.0046,0.0025 0.01242,0.0087 0.01679,0.01132 0.0063,0.004 0.02779,0.01274 0.03356,0.01699 0.04851,0.03747 0.0743,0.0857 0.100698,0.152851 0.628315,1.598908 2.114489,2.378063 5.135647,2.683398 l 0.688112,0.06793 0.03356,1.48889 0.03356,1.483228 -0.620977,0.15285 c -0.736268,0.178425 -1.079893,0.348802 -1.191605,0.600086 -0.158742,0.357068 0.471061,0.737758 1.493702,0.894466 0.997572,0.152865 2.171314,0.05498 2.886704,-0.23777 0.672373,-0.275149 0.762247,-0.606535 0.26853,-0.939755 -0.250169,-0.168844 -0.507663,-0.254201 -1.074123,-0.350992 l -0.402796,-0.06793 0.03356,-2.372034 0.01679,-2.372032 0.73846,-0.04528 c 1.551808,-0.103328 2.4765,-0.27605 3.490897,-0.651035 0.73173,-0.270494 1.17386,-0.533918 1.594402,-0.956739 0.327905,-0.329683 0.687247,-0.990755 0.688108,-1.256781 2.94e-4,-0.09069 0.07727,-0.165723 0.201399,-0.215124 0.115867,-0.04361 0.274252,-0.06793 0.469928,-0.06793 0.0346,0 0.08372,-0.0031 0.117483,-0.0056 0.02388,-0.0021 0.06183,-0.0081 0.08392,-0.01132 0.06052,-0.0095 0.120487,-0.02461 0.151049,-0.03963 0.0059,-0.0032 0.0129,-0.008 0.01679,-0.01132 0.106392,-0.106637 0.09198,-0.912637 -0.01679,-1.00769 -0.0018,-0.0014 -0.01497,-0.0047 -0.01679,-0.0057 -0.0015,-5.96e-4 -0.01507,-0.005 -0.01679,-0.0056 -0.0041,-0.0011 -0.01185,-0.0046 -0.01679,-0.0056 -0.01064,-0.002 -0.03645,-0.0038 -0.05036,-0.0056 -0.0074,-8.93e-4 -0.02532,-0.0048 -0.03356,-0.0056 -0.208506,-0.01944 -0.67944,-0.02357 -1.577617,-0.01699 l -1.611184,0.01132 0,0.543474 0,0.537812 0.419579,0.02831 c 0.189777,0.01309 0.37529,0.03692 0.453145,0.05095 0.0026,5.06e-4 0.01452,-4.89e-4 0.01679,0 0.0039,9.74e-4 0.01421,0.0048 0.01679,0.0056 8.93e-4,4.95e-4 -7.55e-4,0.005 0,0.0056 6.3e-4,7.69e-4 0.01617,0.0048 0.01679,0.0056 0.06881,0.112113 -0.233294,0.835088 -0.486712,1.143556 -0.689649,0.839463 -2.311248,1.411894 -4.044743,1.432278 l -0.604194,0.0056 0,-2.213519 0,-2.21352 0.68811,-0.01132 c 0.339648,-0.0064 0.671143,-0.02739 0.772026,-0.04529 0.0045,-9e-4 0.01362,-0.0047 0.01679,-0.0056 3.15e-4,-3.58e-4 -2.43e-4,-0.0053 0,-0.0056 1.09e-4,-0.002 9.74e-4,-0.0087 0,-0.01132 -0.08913,-0.165962 -1.967753,-1.252383 -2.332861,-1.34736 -0.0029,-7.04e-4 -0.01407,-0.0051 -0.01679,-0.0056 -0.0012,-1.43e-4 -0.01567,1.03e-4 -0.01679,0 -9.74e-4,9.9e-5 -0.01578,-1.36e-4 -0.01679,0 z"
       id="path4197"
       style="display:inline;opacity:0.4;fill:#ffffff;fill-opacity:1;stroke:none"
       inkscape:connector-curvature="0" />
    <path
       inkscape:connector-curvature="0"
       style="display:inline;opacity:0.4;fill:#ffffff;fill-opacity:1;stroke:none"
       id="path4199"
       d="m 23.914025,9.657879 c -0.0025,5.69e-4 -0.01409,0.0049 -0.01679,0.0056 -0.0029,8.36e-4 -0.01365,0.0047 -0.01679,0.0056 -0.0067,0.0022 -0.02605,0.0085 -0.03356,0.01132 -0.439384,0.170454 -2.114522,1.145071 -2.248943,1.313393 -0.0019,0.0028 9.74e-4,0.0091 0,0.01132 -1.88e-4,9.57e-4 -8.1e-5,0.0048 0,0.0056 5.82e-4,5.12e-4 -6.92e-4,0.0051 0,0.0056 0.002,0.001 0.01419,0.0047 0.01679,0.0056 0.0032,9.57e-4 0.01306,0.0047 0.01679,0.0056 0.107827,0.0252 0.425906,0.04437 0.872724,0.05095 l 0.839158,0.01132 0.03356,3.045711 c 0.01826,1.751313 -0.02074,2.989293 -0.08392,3.085341 -5.18e-4,4.78e-4 5.22e-4,0.0054 0,0.0056 -0.0058,0.0018 -0.02675,0.0041 -0.03357,0.0056 -0.0025,4.38e-4 -0.0142,0.0053 -0.01679,0.0056 -0.0027,3.77e-4 -0.01401,-3.47e-4 -0.01679,0 -0.0029,3.17e-4 -0.01381,-2.88e-4 -0.01679,0 -0.0062,5.17e-4 -0.02705,0.0053 -0.03356,0.0056 -0.0033,1.71e-4 -0.01333,-1.43e-4 -0.01679,0 -0.391741,0.01272 -1.342272,-0.146465 -1.997195,-0.350994 -1.167901,-0.364725 -1.941365,-1.000648 -2.165029,-1.766287 l -0.08392,-0.29438 0.503496,-0.186819 c 0.303722,-0.111145 0.537115,-0.243579 0.587409,-0.33401 0.316119,-0.568389 -1.323599,-0.994787 -2.869921,-0.747275 -1.346584,0.215542 -1.421079,0.911424 -0.117481,1.183186 0.149303,0.03113 0.264618,0.05848 0.335662,0.09058 0.005,0.0024 0.01199,0.0088 0.01679,0.01132 0.0046,0.0025 0.01242,0.0087 0.01679,0.01132 0.0063,0.004 0.02779,0.01274 0.03356,0.01699 0.04851,0.03747 0.0743,0.0857 0.100698,0.152851 0.628315,1.598908 2.114489,2.378063 5.135647,2.683398 l 0.688112,0.06793 0.03356,1.48889 0.03356,1.483228 -0.620977,0.15285 c -0.736268,0.178425 -1.079893,0.348802 -1.191605,0.600086 -0.158742,0.357068 0.471061,0.737758 1.493702,0.894466 0.997572,0.152865 2.171314,0.05498 2.886704,-0.23777 0.672373,-0.275149 0.762247,-0.606535 0.26853,-0.939755 -0.250169,-0.168844 -0.507663,-0.254201 -1.074123,-0.350992 l -0.402796,-0.06793 0.03356,-2.372034 0.01679,-2.372032 0.73846,-0.04528 c 1.551808,-0.103328 2.4765,-0.27605 3.490897,-0.651035 0.73173,-0.270494 1.17386,-0.533918 1.594402,-0.956739 0.327905,-0.329683 0.687247,-0.990755 0.688108,-1.256781 2.94e-4,-0.09069 0.07727,-0.165723 0.201399,-0.215124 0.115867,-0.04361 0.274252,-0.06793 0.469928,-0.06793 0.0346,0 0.08372,-0.0031 0.117483,-0.0056 0.02388,-0.0021 0.06183,-0.0081 0.08392,-0.01132 0.06052,-0.0095 0.120487,-0.02461 0.151049,-0.03963 0.0059,-0.0032 0.0129,-0.008 0.01679,-0.01132 0.106392,-0.106637 0.09198,-0.912637 -0.01679,-1.00769 -0.0018,-0.0014 -0.01497,-0.0047 -0.01679,-0.0057 -0.0015,-5.96e-4 -0.01507,-0.005 -0.01679,-0.0056 -0.0041,-0.0011 -0.01185,-0.0046 -0.01679,-0.0056 -0.01064,-0.002 -0.03645,-0.0038 -0.05036,-0.0056 -0.0074,-8.93e-4 -0.02532,-0.0048 -0.03356,-0.0056 -0.208506,-0.01944 -0.67944,-0.02357 -1.577617,-0.01699 l -1.611184,0.01132 0,0.543474 0,0.537812 0.419579,0.02831 c 0.189777,0.01309 0.37529,0.03692 0.453145,0.05095 0.0026,5.06e-4 0.01452,-4.89e-4 0.01679,0 0.0039,9.74e-4 0.01421,0.0048 0.01679,0.0056 8.93e-4,4.95e-4 -7.55e-4,0.005 0,0.0056 6.3e-4,7.69e-4 0.01617,0.0048 0.01679,0.0056 0.06881,0.112113 -0.233294,0.835088 -0.486712,1.143556 -0.689649,0.839463 -2.311248,1.411894 -4.044743,1.432278 l -0.604194,0.0056 0,-2.213519 0,-2.21352 0.68811,-0.01132 c 0.339648,-0.0064 0.671143,-0.02739 0.772026,-0.04529 0.0045,-9e-4 0.01362,-0.0047 0.01679,-0.0056 3.15e-4,-3.58e-4 -2.43e-4,-0.0053 0,-0.0056 1.09e-4,-0.002 9.74e-4,-0.0087 0,-0.01132 -0.08913,-0.165962 -1.967753,-1.252383 -2.332861,-1.34736 -0.0029,-7.04e-4 -0.01407,-0.0051 -0.01679,-0.0056 -0.0012,-1.43e-4 -0.01567,1.03e-4 -0.01679,0 -9.74e-4,9.9e-5 -0.01578,-1.36e-4 -0.01679,0 z" />
    <path
       d="m 23.914025,9.657879 c -0.0025,5.69e-4 -0.01409,0.0049 -0.01679,0.0056 -0.0029,8.36e-4 -0.01365,0.0047 -0.01679,0.0056 -0.0067,0.0022 -0.02605,0.0085 -0.03356,0.01132 -0.439384,0.170454 -2.114522,1.145071 -2.248943,1.313393 -0.0019,0.0028 9.74e-4,0.0091 0,0.01132 -1.88e-4,9.57e-4 -8.1e-5,0.0048 0,0.0056 5.82e-4,5.12e-4 -6.92e-4,0.0051 0,0.0056 0.002,0.001 0.01419,0.0047 0.01679,0.0056 0.0032,9.57e-4 0.01306,0.0047 0.01679,0.0056 0.107827,0.0252 0.425906,0.04437 0.872724,0.05095 l 0.839158,0.01132 0.03356,3.045711 c 0.01826,1.751313 -0.02074,2.989293 -0.08392,3.085341 -5.18e-4,4.78e-4 5.22e-4,0.0054 0,0.0056 -0.0058,0.0018 -0.02675,0.0041 -0.03357,0.0056 -0.0025,4.38e-4 -0.0142,0.0053 -0.01679,0.0056 -0.0027,3.77e-4 -0.01401,-3.47e-4 -0.01679,0 -0.0029,3.17e-4 -0.01381,-2.88e-4 -0.01679,0 -0.0062,5.17e-4 -0.02705,0.0053 -0.03356,0.0056 -0.0033,1.71e-4 -0.01333,-1.43e-4 -0.01679,0 -0.391741,0.01272 -1.342272,-0.146465 -1.997195,-0.350994 -1.167901,-0.364725 -1.941365,-1.000648 -2.165029,-1.766287 l -0.08392,-0.29438 0.503496,-0.186819 c 0.303722,-0.111145 0.537115,-0.243579 0.587409,-0.33401 0.316119,-0.568389 -1.323599,-0.994787 -2.869921,-0.747275 -1.346584,0.215542 -1.421079,0.911424 -0.117481,1.183186 0.149303,0.03113 0.264618,0.05848 0.335662,0.09058 0.005,0.0024 0.01199,0.0088 0.01679,0.01132 0.0046,0.0025 0.01242,0.0087 0.01679,0.01132 0.0063,0.004 0.02779,0.01274 0.03356,0.01699 0.04851,0.03747 0.0743,0.0857 0.100698,0.152851 0.628315,1.598908 2.114489,2.378063 5.135647,2.683398 l 0.688112,0.06793 0.03356,1.48889 0.03356,1.483228 -0.620977,0.15285 c -0.736268,0.178425 -1.079893,0.348802 -1.191605,0.600086 -0.158742,0.357068 0.471061,0.737758 1.493702,0.894466 0.997572,0.152865 2.171314,0.05498 2.886704,-0.23777 0.672373,-0.275149 0.762247,-0.606535 0.26853,-0.939755 -0.250169,-0.168844 -0.507663,-0.254201 -1.074123,-0.350992 l -0.402796,-0.06793 0.03356,-2.372034 0.01679,-2.372032 0.73846,-0.04528 c 1.551808,-0.103328 2.4765,-0.27605 3.490897,-0.651035 0.73173,-0.270494 1.17386,-0.533918 1.594402,-0.956739 0.327905,-0.329683 0.687247,-0.990755 0.688108,-1.256781 2.94e-4,-0.09069 0.07727,-0.165723 0.201399,-0.215124 0.115867,-0.04361 0.274252,-0.06793 0.469928,-0.06793 0.0346,0 0.08372,-0.0031 0.117483,-0.0056 0.02388,-0.0021 0.06183,-0.0081 0.08392,-0.01132 0.06052,-0.0095 0.120487,-0.02461 0.151049,-0.03963 0.0059,-0.0032 0.0129,-0.008 0.01679,-0.01132 0.106392,-0.106637 0.09198,-0.912637 -0.01679,-1.00769 -0.0018,-0.0014 -0.01497,-0.0047 -0.01679,-0.0057 -0.0015,-5.96e-4 -0.01507,-0.005 -0.01679,-0.0056 -0.0041,-0.0011 -0.01185,-0.0046 -0.01679,-0.0056 -0.01064,-0.002 -0.03645,-0.0038 -0.05036,-0.0056 -0.0074,-8.93e-4 -0.02532,-0.0048 -0.03356,-0.0056 -0.208506,-0.01944 -0.67944,-0.02357 -1.577617,-0.01699 l -1.611184,0.01132 0,0.543474 0,0.537812 0.419579,0.02831 c 0.189777,0.01309 0.37529,0.03692 0.453145,0.05095 0.0026,5.06e-4 0.01452,-4.89e-4 0.01679,0 0.0039,9.74e-4 0.01421,0.0048 0.01679,0.0056 8.93e-4,4.95e-4 -7.55e-4,0.005 0,0.0056 6.3e-4,7.69e-4 0.01617,0.0048 0.01679,0.0056 0.06881,0.112113 -0.233294,0.835088 -0.486712,1.143556 -0.689649,0.839463 -2.311248,1.411894 -4.044743,1.432278 l -0.604194,0.0056 0,-2.213519 0,-2.21352 0.68811,-0.01132 c 0.339648,-0.0064 0.671143,-0.02739 0.772026,-0.04529 0.0045,-9e-4 0.01362,-0.0047 0.01679,-0.0056 3.15e-4,-3.58e-4 -2.43e-4,-0.0053 0,-0.0056 1.09e-4,-0.002 9.74e-4,-0.0087 0,-0.01132 -0.08913,-0.165962 -1.967753,-1.252383 -2.332861,-1.34736 -0.0029,-7.04e-4 -0.01407,-0.0051 -0.01679,-0.0056 -0.0012,-1.43e-4 -0.01567,1.03e-4 -0.01679,0 -9.74e-4,9.9e-5 -0.01578,-1.36e-4 -0.01679,0 z"
       id="path4202"
       style="display:inline;opacity:0.4;fill:#ffffff;fill-opacity:1;stroke:none"
       inkscape:connector-curvature="0" />
    <path
       inkscape:connector-curvature="0"
       style="display:inline;opacity:0.4;fill:#ffffff;fill-opacity:1;stroke:none"
       id="path4204"
       d="m 23.914025,9.657879 c -0.0025,5.69e-4 -0.01409,0.0049 -0.01679,0.0056 -0.0029,8.36e-4 -0.01365,0.0047 -0.01679,0.0056 -0.0067,0.0022 -0.02605,0.0085 -0.03356,0.01132 -0.439384,0.170454 -2.114522,1.145071 -2.248943,1.313393 -0.0019,0.0028 9.74e-4,0.0091 0,0.01132 -1.88e-4,9.57e-4 -8.1e-5,0.0048 0,0.0056 5.82e-4,5.12e-4 -6.92e-4,0.0051 0,0.0056 0.002,0.001 0.01419,0.0047 0.01679,0.0056 0.0032,9.57e-4 0.01306,0.0047 0.01679,0.0056 0.107827,0.0252 0.425906,0.04437 0.872724,0.05095 l 0.839158,0.01132 0.03356,3.045711 c 0.01826,1.751313 -0.02074,2.989293 -0.08392,3.085341 -5.18e-4,4.78e-4 5.22e-4,0.0054 0,0.0056 -0.0058,0.0018 -0.02675,0.0041 -0.03357,0.0056 -0.0025,4.38e-4 -0.0142,0.0053 -0.01679,0.0056 -0.0027,3.77e-4 -0.01401,-3.47e-4 -0.01679,0 -0.0029,3.17e-4 -0.01381,-2.88e-4 -0.01679,0 -0.0062,5.17e-4 -0.02705,0.0053 -0.03356,0.0056 -0.0033,1.71e-4 -0.01333,-1.43e-4 -0.01679,0 -0.391741,0.01272 -1.342272,-0.146465 -1.997195,-0.350994 -1.167901,-0.364725 -1.941365,-1.000648 -2.165029,-1.766287 l -0.08392,-0.29438 0.503496,-0.186819 c 0.303722,-0.111145 0.537115,-0.243579 0.587409,-0.33401 0.316119,-0.568389 -1.323599,-0.994787 -2.869921,-0.747275 -1.346584,0.215542 -1.421079,0.911424 -0.117481,1.183186 0.149303,0.03113 0.264618,0.05848 0.335662,0.09058 0.005,0.0024 0.01199,0.0088 0.01679,0.01132 0.0046,0.0025 0.01242,0.0087 0.01679,0.01132 0.0063,0.004 0.02779,0.01274 0.03356,0.01699 0.04851,0.03747 0.0743,0.0857 0.100698,0.152851 0.628315,1.598908 2.114489,2.378063 5.135647,2.683398 l 0.688112,0.06793 0.03356,1.48889 0.03356,1.483228 -0.620977,0.15285 c -0.736268,0.178425 -1.079893,0.348802 -1.191605,0.600086 -0.158742,0.357068 0.471061,0.737758 1.493702,0.894466 0.997572,0.152865 2.171314,0.05498 2.886704,-0.23777 0.672373,-0.275149 0.762247,-0.606535 0.26853,-0.939755 -0.250169,-0.168844 -0.507663,-0.254201 -1.074123,-0.350992 l -0.402796,-0.06793 0.03356,-2.372034 0.01679,-2.372032 0.73846,-0.04528 c 1.551808,-0.103328 2.4765,-0.27605 3.490897,-0.651035 0.73173,-0.270494 1.17386,-0.533918 1.594402,-0.956739 0.327905,-0.329683 0.687247,-0.990755 0.688108,-1.256781 2.94e-4,-0.09069 0.07727,-0.165723 0.201399,-0.215124 0.115867,-0.04361 0.274252,-0.06793 0.469928,-0.06793 0.0346,0 0.08372,-0.0031 0.117483,-0.0056 0.02388,-0.0021 0.06183,-0.0081 0.08392,-0.01132 0.06052,-0.0095 0.120487,-0.02461 0.151049,-0.03963 0.0059,-0.0032 0.0129,-0.008 0.01679,-0.01132 0.106392,-0.106637 0.09198,-0.912637 -0.01679,-1.00769 -0.0018,-0.0014 -0.01497,-0.0047 -0.01679,-0.0057 -0.0015,-5.96e-4 -0.01507,-0.005 -0.01679,-0.0056 -0.0041,-0.0011 -0.01185,-0.0046 -0.01679,-0.0056 -0.01064,-0.002 -0.03645,-0.0038 -0.05036,-0.0056 -0.0074,-8.93e-4 -0.02532,-0.0048 -0.03356,-0.0056 -0.208506,-0.01944 -0.67944,-0.02357 -1.577617,-0.01699 l -1.611184,0.01132 0,0.543474 0,0.537812 0.419579,0.02831 c 0.189777,0.01309 0.37529,0.03692 0.453145,0.05095 0.0026,5.06e-4 0.01452,-4.89e-4 0.01679,0 0.0039,9.74e-4 0.01421,0.0048 0.01679,0.0056 8.93e-4,4.95e-4 -7.55e-4,0.005 0,0.0056 6.3e-4,7.69e-4 0.01617,0.0048 0.01679,0.0056 0.06881,0.112113 -0.233294,0.835088 -0.486712,1.143556 -0.689649,0.839463 -2.311248,1.411894 -4.044743,1.432278 l -0.604194,0.0056 0,-2.213519 0,-2.21352 0.68811,-0.01132 c 0.339648,-0.0064 0.671143,-0.02739 0.772026,-0.04529 0.0045,-9e-4 0.01362,-0.0047 0.01679,-0.0056 3.15e-4,-3.58e-4 -2.43e-4,-0.0053 0,-0.0056 1.09e-4,-0.002 9.74e-4,-0.0087 0,-0.01132 -0.08913,-0.165962 -1.967753,-1.252383 -2.332861,-1.34736 -0.0029,-7.04e-4 -0.01407,-0.0051 -0.01679,-0.0056 -0.0012,-1.43e-4 -0.01567,1.03e-4 -0.01679,0 -9.74e-4,9.9e-5 -0.01578,-1.36e-4 -0.01679,0 z" />
    <path
       d="m 23.914025,9.657879 c -0.0025,5.69e-4 -0.01409,0.0049 -0.01679,0.0056 -0.0029,8.36e-4 -0.01365,0.0047 -0.01679,0.0056 -0.0067,0.0022 -0.02605,0.0085 -0.03356,0.01132 -0.439384,0.170454 -2.114522,1.145071 -2.248943,1.313393 -0.0019,0.0028 9.74e-4,0.0091 0,0.01132 -1.88e-4,9.57e-4 -8.1e-5,0.0048 0,0.0056 5.82e-4,5.12e-4 -6.92e-4,0.0051 0,0.0056 0.002,0.001 0.01419,0.0047 0.01679,0.0056 0.0032,9.57e-4 0.01306,0.0047 0.01679,0.0056 0.107827,0.0252 0.425906,0.04437 0.872724,0.05095 l 0.839158,0.01132 0.03356,3.045711 c 0.01826,1.751313 -0.02074,2.989293 -0.08392,3.085341 -5.18e-4,4.78e-4 5.22e-4,0.0054 0,0.0056 -0.0058,0.0018 -0.02675,0.0041 -0.03357,0.0056 -0.0025,4.38e-4 -0.0142,0.0053 -0.01679,0.0056 -0.0027,3.77e-4 -0.01401,-3.47e-4 -0.01679,0 -0.0029,3.17e-4 -0.01381,-2.88e-4 -0.01679,0 -0.0062,5.17e-4 -0.02705,0.0053 -0.03356,0.0056 -0.0033,1.71e-4 -0.01333,-1.43e-4 -0.01679,0 -0.391741,0.01272 -1.342272,-0.146465 -1.997195,-0.350994 -1.167901,-0.364725 -1.941365,-1.000648 -2.165029,-1.766287 l -0.08392,-0.29438 0.503496,-0.186819 c 0.303722,-0.111145 0.537115,-0.243579 0.587409,-0.33401 0.316119,-0.568389 -1.323599,-0.994787 -2.869921,-0.747275 -1.346584,0.215542 -1.421079,0.911424 -0.117481,1.183186 0.149303,0.03113 0.264618,0.05848 0.335662,0.09058 0.005,0.0024 0.01199,0.0088 0.01679,0.01132 0.0046,0.0025 0.01242,0.0087 0.01679,0.01132 0.0063,0.004 0.02779,0.01274 0.03356,0.01699 0.04851,0.03747 0.0743,0.0857 0.100698,0.152851 0.628315,1.598908 2.114489,2.378063 5.135647,2.683398 l 0.688112,0.06793 0.03356,1.48889 0.03356,1.483228 -0.620977,0.15285 c -0.736268,0.178425 -1.079893,0.348802 -1.191605,0.600086 -0.158742,0.357068 0.471061,0.737758 1.493702,0.894466 0.997572,0.152865 2.171314,0.05498 2.886704,-0.23777 0.672373,-0.275149 0.762247,-0.606535 0.26853,-0.939755 -0.250169,-0.168844 -0.507663,-0.254201 -1.074123,-0.350992 l -0.402796,-0.06793 0.03356,-2.372034 0.01679,-2.372032 0.73846,-0.04528 c 1.551808,-0.103328 2.4765,-0.27605 3.490897,-0.651035 0.73173,-0.270494 1.17386,-0.533918 1.594402,-0.956739 0.327905,-0.329683 0.687247,-0.990755 0.688108,-1.256781 2.94e-4,-0.09069 0.07727,-0.165723 0.201399,-0.215124 0.115867,-0.04361 0.274252,-0.06793 0.469928,-0.06793 0.0346,0 0.08372,-0.0031 0.117483,-0.0056 0.02388,-0.0021 0.06183,-0.0081 0.08392,-0.01132 0.06052,-0.0095 0.120487,-0.02461 0.151049,-0.03963 0.0059,-0.0032 0.0129,-0.008 0.01679,-0.01132 0.106392,-0.106637 0.09198,-0.912637 -0.01679,-1.00769 -0.0018,-0.0014 -0.01497,-0.0047 -0.01679,-0.0057 -0.0015,-5.96e-4 -0.01507,-0.005 -0.01679,-0.0056 -0.0041,-0.0011 -0.01185,-0.0046 -0.01679,-0.0056 -0.01064,-0.002 -0.03645,-0.0038 -0.05036,-0.0056 -0.0074,-8.93e-4 -0.02532,-0.0048 -0.03356,-0.0056 -0.208506,-0.01944 -0.67944,-0.02357 -1.577617,-0.01699 l -1.611184,0.01132 0,0.543474 0,0.537812 0.419579,0.02831 c 0.189777,0.01309 0.37529,0.03692 0.453145,0.05095 0.0026,5.06e-4 0.01452,-4.89e-4 0.01679,0 0.0039,9.74e-4 0.01421,0.0048 0.01679,0.0056 8.93e-4,4.95e-4 -7.55e-4,0.005 0,0.0056 6.3e-4,7.69e-4 0.01617,0.0048 0.01679,0.0056 0.06881,0.112113 -0.233294,0.835088 -0.486712,1.143556 -0.689649,0.839463 -2.311248,1.411894 -4.044743,1.432278 l -0.604194,0.0056 0,-2.213519 0,-2.21352 0.68811,-0.01132 c 0.339648,-0.0064 0.671143,-0.02739 0.772026,-0.04529 0.0045,-9e-4 0.01362,-0.0047 0.01679,-0.0056 3.15e-4,-3.58e-4 -2.43e-4,-0.0053 0,-0.0056 1.09e-4,-0.002 9.74e-4,-0.0087 0,-0.01132 -0.08913,-0.165962 -1.967753,-1.252383 -2.332861,-1.34736 -0.0029,-7.04e-4 -0.01407,-0.0051 -0.01679,-0.0056 -0.0012,-1.43e-4 -0.01567,1.03e-4 -0.01679,0 -9.74e-4,9.9e-5 -0.01578,-1.36e-4 -0.01679,0 z"
       id="path4206"
       style="display:inline;opacity:0.4;fill:#ffffff;fill-opacity:1;stroke:none"
       inkscape:connector-curvature="0" />
  </g>
</svg>
