<?xml version="1.0" encoding="UTF-8" standalone="no"?>
<svg
   xmlns:dc="http://purl.org/dc/elements/1.1/"
   xmlns:cc="http://creativecommons.org/ns#"
   xmlns:rdf="http://www.w3.org/1999/02/22-rdf-syntax-ns#"
   xmlns:svg="http://www.w3.org/2000/svg"
   xmlns="http://www.w3.org/2000/svg"
   xmlns:xlink="http://www.w3.org/1999/xlink"
   xmlns:sodipodi="http://sodipodi.sourceforge.net/DTD/sodipodi-0.dtd"
   xmlns:inkscape="http://www.inkscape.org/namespaces/inkscape"
   width="248"
   height="240"
   id="svg11300"
   version="1.0"
   style="enable-background:new"
   inkscape:version="0.91 r13725"
   sodipodi:docname="xreader.svg">
  <sodipodi:namedview
     pagecolor="#ffffff"
     bordercolor="#666666"
     borderopacity="1"
     objecttolerance="10"
     gridtolerance="10"
     guidetolerance="10"
     inkscape:pageopacity="0"
     inkscape:pageshadow="2"
     inkscape:window-width="1360"
     inkscape:window-height="711"
     id="namedview82"
     showgrid="false"
     inkscape:zoom="1.3906433"
     inkscape:cx="166.28487"
     inkscape:cy="54.941817"
     inkscape:window-x="0"
     inkscape:window-y="33"
     inkscape:window-maximized="1"
     inkscape:current-layer="svg11300" />
  <title
     id="title4872">Firewall</title>
  <defs
     id="defs3">
    <linearGradient
       id="linearGradient15276">
      <stop
         style="stop-color:#ffff4c;stop-opacity:1;"
         offset="0"
         id="stop15278" />
      <stop
         style="stop-color:#ffff4c;stop-opacity:0;"
         offset="1"
         id="stop15280" />
    </linearGradient>
    <linearGradient
       id="linearGradient15264">
      <stop
         style="stop-color:#cc0000;stop-opacity:1;"
         offset="0"
         id="stop15266" />
      <stop
         style="stop-color:#ff4c4c;stop-opacity:1"
         offset="1"
         id="stop15268" />
    </linearGradient>
    <filter
       style="color-interpolation-filters:sRGB"
       id="filter4608-0-4"
       x="-0.15294158"
       width="1.3058832"
       y="-1.2776994"
       height="3.5553987">
      <feGaussianBlur
         stdDeviation="12.776994"
         id="feGaussianBlur4610-6-6" />
    </filter>
    <filter
       style="color-interpolation-filters:sRGB"
       id="filter4568-9"
       x="-0.076470785"
       width="1.1529416"
       y="-0.63884968"
       height="2.2776995">
      <feGaussianBlur
         stdDeviation="6.388497"
         id="feGaussianBlur4570-5" />
    </filter>
    <clipPath
       clipPathUnits="userSpaceOnUse"
       id="clipPath4315-9">
      <rect
         y="60.00013"
         x="56.000088"
         width="183.99991"
         style="fill:url(#radialGradient4319);fill-rule:evenodd;enable-background:new"
         ry="25.053387"
         rx="25.053392"
         id="rect4317-6"
         height="183.99988" />
    </clipPath>
    <radialGradient
       xlink:href="#linearGradient11520-9-3"
       id="radialGradient4622-7"
       gradientUnits="userSpaceOnUse"
       gradientTransform="matrix(13.339021,1.2973092e-6,-3.2847942e-7,3.3774477,-169.04322,33.20622)"
       cx="17.320858"
       cy="6.8678637"
       fx="17.320858"
       fy="6.8678637"
       r="20.530962" />
    <linearGradient
       id="linearGradient11520-9-3">
      <stop
         id="stop11522-2-3"
         offset="0.0000000"
         style="stop-color:#ffffff;stop-opacity:1" />
      <stop
         id="stop11524-8-1"
         offset="1.0000000"
         style="stop-color:#d4d4d4;stop-opacity:1" />
    </linearGradient>
    <radialGradient
       xlink:href="#linearGradient4205-6"
       id="radialGradient4624-2"
       gradientUnits="userSpaceOnUse"
       gradientTransform="matrix(1.5655573,0,0,0.95658347,-83.702508,9.332189)"
       cx="176.67326"
       cy="214.94498"
       fx="176.67326"
       fy="214.94498"
       r="91.999954" />
    <linearGradient
       id="linearGradient4205-6">
      <stop
         style="stop-color:#eeeeec;stop-opacity:1;"
         offset="0"
         id="stop4207-5" />
      <stop
         style="stop-color:#eeeeec;stop-opacity:0;"
         offset="1"
         id="stop4209-2" />
    </linearGradient>
    <linearGradient
       xlink:href="#linearGradient4085-01"
       id="linearGradient4626-1"
       gradientUnits="userSpaceOnUse"
       gradientTransform="translate(0,1)"
       x1="131.5"
       y1="234.5"
       x2="131.5"
       y2="206.98183" />
    <linearGradient
       id="linearGradient4085-01">
      <stop
         style="stop-color:#ffffff;stop-opacity:1;"
         offset="0"
         id="stop4087-9" />
      <stop
         style="stop-color:#ffffff;stop-opacity:0;"
         offset="1"
         id="stop4089-6" />
    </linearGradient>
    <filter
       style="color-interpolation-filters:sRGB"
       id="filter4105-6"
       x="-0.036813226"
       width="1.0736265"
       y="-0.16209599"
       height="1.324192">
      <feGaussianBlur
         stdDeviation="2.6382812"
         id="feGaussianBlur4107-6" />
    </filter>
    <radialGradient
       xlink:href="#linearGradient4085-0-9"
       id="radialGradient4628-9"
       gradientUnits="userSpaceOnUse"
       gradientTransform="matrix(2.0831076,0,0,0.225958,-158.48028,172.9742)"
       cx="132.00293"
       cy="272.15036"
       fx="132.00293"
       fy="272.15036"
       r="92.331871" />
    <linearGradient
       id="linearGradient4085-0-9">
      <stop
         style="stop-color:#ffffff;stop-opacity:1;"
         offset="0"
         id="stop4087-8-1" />
      <stop
         style="stop-color:#ffffff;stop-opacity:0;"
         offset="1"
         id="stop4089-1-5" />
    </linearGradient>
    <filter
       style="color-interpolation-filters:sRGB"
       id="filter4155-7">
      <feGaussianBlur
         stdDeviation="0.98531245"
         id="feGaussianBlur4157-5" />
    </filter>
    <radialGradient
       xlink:href="#linearGradient4238-2"
       id="radialGradient4630-0"
       gradientUnits="userSpaceOnUse"
       gradientTransform="matrix(4.0735165,0.53628862,-0.11022212,0.8372201,-438.12668,-54.628172)"
       cx="148"
       cy="152"
       fx="148"
       fy="152"
       r="90" />
    <linearGradient
       id="linearGradient4238-2">
      <stop
         style="stop-color:#ffffff;stop-opacity:1;"
         offset="0"
         id="stop4240-3" />
      <stop
         style="stop-color:#ffffff;stop-opacity:0;"
         offset="1"
         id="stop4242-7" />
    </linearGradient>
    <filter
       style="color-interpolation-filters:sRGB"
       id="filter4246-8">
      <feGaussianBlur
         stdDeviation="0.83"
         id="feGaussianBlur4248-9" />
    </filter>
    <linearGradient
       xlink:href="#linearGradient4538-3"
       id="linearGradient4632-8"
       gradientUnits="userSpaceOnUse"
       x1="195.48103"
       y1="234.23958"
       x2="100.51903"
       y2="69.760551" />
    <linearGradient
       id="linearGradient4538-3">
      <stop
         style="stop-color:#2e3436;stop-opacity:1"
         offset="0"
         id="stop4540-0" />
      <stop
         style="stop-color:#babdb6;stop-opacity:1"
         offset="1"
         id="stop4542-5" />
    </linearGradient>
    <filter
       style="color-interpolation-filters:sRGB"
       id="filter4321-0">
      <feGaussianBlur
         stdDeviation="0.91999947"
         id="feGaussianBlur4323-4" />
    </filter>
    <filter
       id="filter15260">
      <feGaussianBlur
         stdDeviation="2.1718829"
         id="feGaussianBlur15262" />
    </filter>
    <linearGradient
       gradientTransform="matrix(0.9731453,-0.23019172,0.23019172,0.9731453,-54.594275,-0.91283762)"
       xlink:href="#linearGradient15264"
       id="linearGradient15270"
       x1="155"
       y1="162.95799"
       x2="230.13904"
       y2="138.95799"
       gradientUnits="userSpaceOnUse" />
    <radialGradient
       xlink:href="#linearGradient15276"
       id="radialGradient15282"
       cx="192.5"
       cy="162"
       fx="192.5"
       fy="162"
       r="35.5"
       gradientTransform="matrix(0.9731453,-0.23019172,0.11671693,0.49342578,-36.901933,73.882293)"
       gradientUnits="userSpaceOnUse" />
    <linearGradient
       id="linearGradient4788-0">
      <stop
         style="stop-color:#ffffff;stop-opacity:1;"
         offset="0"
         id="stop4790-7" />
      <stop
         style="stop-color:#ffffff;stop-opacity:0;"
         offset="1"
         id="stop4792-63" />
    </linearGradient>
    <radialGradient
       xlink:href="#linearGradient4788-7-5"
       id="radialGradient5152-4"
       gradientUnits="userSpaceOnUse"
       gradientTransform="matrix(-10.022196,2.3706952,-0.97218577,-7.3111441,3347.9183,-304.70747)"
       cx="326.0206"
       cy="58"
       fx="326.0206"
       fy="58"
       r="12.5" />
    <linearGradient
       id="linearGradient4788-7-5">
      <stop
         style="stop-color:#ffffff;stop-opacity:1;"
         offset="0"
         id="stop4790-8-0" />
      <stop
         style="stop-color:#ffffff;stop-opacity:0;"
         offset="1"
         id="stop4792-6-1" />
    </linearGradient>
    <radialGradient
       r="12.5"
       fy="58"
       fx="327.5"
       cy="58"
       cx="327.5"
       gradientTransform="matrix(27.441604,-6.4911474,1.4735915,6.2296712,-8963.5279,1787.5876)"
       gradientUnits="userSpaceOnUse"
       id="radialGradient19214"
       xlink:href="#linearGradient4788-0" />
    <radialGradient
       inkscape:collect="always"
       xlink:href="#linearGradient5060"
       id="radialGradient5220"
       gradientUnits="userSpaceOnUse"
       gradientTransform="matrix(15.842752,0,0,3.2131262,-359.03611,66.218703)"
       cx="30.203562"
       cy="44.565483"
       fx="30.203562"
       fy="44.565483"
       r="6.5659914" />
    <linearGradient
       inkscape:collect="always"
       id="linearGradient5060">
      <stop
         style="stop-color:black;stop-opacity:1;"
         offset="0"
         id="stop5062" />
      <stop
         style="stop-color:black;stop-opacity:0;"
         offset="1"
         id="stop5064" />
    </linearGradient>
    <radialGradient
       inkscape:collect="always"
       xlink:href="#linearGradient5060"
       id="radialGradient4774"
       gradientUnits="userSpaceOnUse"
       gradientTransform="matrix(15.842752,0,0,3.2131262,-369.2056,68.761076)"
       cx="30.203562"
       cy="44.565483"
       fx="30.203562"
       fy="44.565483"
       r="6.5659914" />
  </defs>
  <metadata
     id="metadata4">
    <rdf:RDF>
      <cc:Work
         rdf:about="">
        <dc:format>image/svg+xml</dc:format>
        <dc:type
           rdf:resource="http://purl.org/dc/dcmitype/StillImage" />
        <dc:creator>
          <cc:Agent>
            <dc:title>Lapo Calamandrei</dc:title>
          </cc:Agent>
        </dc:creator>
        <dc:source />
        <cc:license
           rdf:resource="" />
        <dc:title>Firewall</dc:title>
        <dc:subject>
          <rdf:Bag />
        </dc:subject>
        <dc:date />
        <dc:rights>
          <cc:Agent>
            <dc:title />
          </cc:Agent>
        </dc:rights>
        <dc:publisher>
          <cc:Agent>
            <dc:title />
          </cc:Agent>
        </dc:publisher>
        <dc:identifier />
        <dc:relation />
        <dc:language />
        <dc:coverage />
        <dc:description />
        <dc:contributor>
          <cc:Agent>
            <dc:title />
          </cc:Agent>
        </dc:contributor>
      </cc:Work>
      <cc:Work
         rdf:about="">
        <dc:format>image/svg+xml</dc:format>
        <dc:type
           rdf:resource="http://purl.org/dc/dcmitype/StillImage" />
      </cc:Work>
    </rdf:RDF>
  </metadata>
  <g
     style="enable-background:new"
     id="g4612"
     transform="translate(-210.71383,-50.374468)">
    <g
       clip-path="url(#clipPath4315-9)"
       id="g4288"
       transform="matrix(0.9731453,-0.23019172,0.23019172,0.9731453,150.13768,49.152213)">
      <rect
         y="60.000122"
         x="56.000088"
         width="183.99991"
         style="fill:url(#radialGradient4622-7);fill-rule:evenodd"
         ry="25.053387"
         rx="25.053392"
         id="rect11518-2"
         height="183.99988" />
      <rect
         y="60.00013"
         x="56.000088"
         width="183.99991"
         style="fill:url(#radialGradient4624-2);fill-rule:evenodd;enable-background:new"
         ry="25.053387"
         rx="25.053392"
         id="rect11518-2-8"
         height="183.99988" />
      <path
         style="fill:url(#linearGradient4626-1);fill-rule:evenodd;filter:url(#filter4105-6);enable-background:new"
         d="m 62,189.9375 0,30 C 62,230.59424 70.405762,239 81.0625,239 l 133.875,0 C 225.59424,239 234,230.59424 234,219.9375 l 0,-30 C 234,200.59424 225.59424,209 214.9375,209 l -133.875,0 C 70.405762,209 62,200.59424 62,189.9375 Z"
         id="path4060"
         inkscape:connector-curvature="0" />
      <path
         style="fill:url(#radialGradient4628-9);fill-rule:evenodd;filter:url(#filter4155-7);enable-background:new"
         d="m 62,212.9375 0,6 C 62,229.59424 70.405762,238 81.0625,238 l 133.87499,0 c 10.65674,0 19.0625,-8.40576 19.0625,-19.0625 l 0,-6 c 0,10.65674 -8.40576,19.0625 -19.0625,19.0625 L 81.0625,232 C 70.405762,232 62,223.59424 62,212.9375 Z"
         id="path4060-9"
         transform="matrix(1,0,0,-1,0,300.9375)"
         inkscape:connector-curvature="0" />
      <path
         style="fill:url(#radialGradient4630-0);filter:url(#filter4246-8)"
         d="m 60,76 c -1.108,0 -2,0.892 -2,2 l 0,148 c 0,1.108 0.892,2 2,2 1.108,0 2,-0.892 2,-2 L 62,78 c 0,-1.108 -0.892,-2 -2,-2 z m 176,0 c -1.108,0 -2,0.892 -2,2 l 0,148 c 0,1.108 0.892,2 2,2 1.108,0 2,-0.892 2,-2 l 0,-148 c 0,-1.108 -0.892,-2 -2,-2 z"
         id="rect4213"
         inkscape:connector-curvature="0" />
      <rect
         y="60.00013"
         x="56.000088"
         width="183.99991"
         style="fill:none;stroke:url(#linearGradient4632-8);stroke-width:2;filter:url(#filter4321-0);enable-background:new"
         ry="25.053387"
         rx="25.053392"
         id="rect11518-2-8-3"
         height="183.99988" />
    </g>
    <g
       id="g19245"
       style="opacity:0.42127662"
       transform="matrix(0.9731453,-0.23019172,0.23019172,0.9731453,150.13768,49.152213)">
      <rect
         y="213.67809"
         x="83.75"
         height="1"
         width="129"
         id="rect4626-5-3"
         style="opacity:0.33516487;enable-background:new" />
      <rect
         style="opacity:0.33516487;enable-background:new"
         id="rect4628-1"
         width="129"
         height="1"
         x="83.75"
         y="215.67809" />
      <rect
         y="217.67809"
         x="83.75"
         height="1"
         width="82.928574"
         id="rect4630-2-1"
         style="opacity:0.33516487;enable-background:new" />
    </g>
  </g>
  <path
     inkscape:connector-curvature="0"
     xlink:href="#path15242"
     style="opacity:0.16595746;filter:url(#filter15260)"
     id="path15246"
     d="m 133.5,77.625 c -8.69379,-0.599702 -17.56214,1.135194 -25.65625,4.46875 -12.164778,5.010057 -22.922328,13.691817 -29.75,24.9375 -6.827672,11.24568 -9.584898,25.06354 -6.875,37.9375 1.883519,8.94807 6.314889,17.28105 12.34375,24.15625 2.404493,2.74204 5.124048,5.18967 7.96875,7.46875 C 79.419542,184.40633 66.917108,191.60632 54,198 c 16.422813,-2.95579 32.445757,-7.93538 47.71875,-14.65625 1.24336,0.67903 2.47115,1.39333 3.75,2 16.52331,7.83853 35.33772,9.58618 53.59375,8.5 24.61044,-1.46425 48.91598,-7.8547 71.0625,-18.6875 L 230,137 c -20.53591,23.17851 -50.2286,38.0194 -81.09375,40.53125 -10.00777,0.81445 -20.29771,0.22793 -29.8125,-2.78125 5.87932,-3.25593 11.61545,-6.75819 17.15625,-10.5625 10.55033,-7.24384 20.63612,-15.64995 27.21875,-26.625 3.29131,-5.48752 5.66763,-11.57025 6.5625,-17.90625 0.89486,-6.336 0.29948,-12.94051 -2.09375,-18.875 -2.18263,-5.412272 -5.83687,-10.198881 -10.34375,-13.90625 -4.50688,-3.707368 -9.85882,-6.349233 -15.5,-7.84375 C 139.27316,78.283991 136.39793,77.824901 133.5,77.625 Z m -5.1875,22.71875 c 1.47505,-0.0448 2.93755,0.0458 4.40625,0.25 2.93741,0.40835 5.80686,1.339 8.34375,2.875 2.53689,1.53601 4.72988,3.68516 6.21875,6.25 1.81473,3.12619 2.5346,6.82959 2.3125,10.4375 -0.22211,3.60791 -1.36389,7.12173 -3.0625,10.3125 -3.39723,6.38155 -8.87061,11.34435 -14.375,16.03125 -8.79366,7.48766 -18.03228,14.43449 -27.46875,21.09375 -2.99903,-2.19664 -5.75974,-4.70893 -8.0625,-7.625 -3.957862,-5.01198 -6.650808,-11.06116 -7.375,-17.40625 -0.955265,-8.36966 1.592692,-16.9836 6.4375,-23.875 4.8448,-6.89141 11.87157,-12.09344 19.65625,-15.3125 4.11088,-1.6999 8.54361,-2.89669 12.96875,-3.03125 z"
     transform="matrix(0.95227915,-0.22525595,0.23195001,0.98057857,-53.243001,0.25525718)" />
  <path
     inkscape:connector-curvature="0"
     id="path15242"
     d="m 43.533533,179.33959 c 27.203477,-12.26614 51.928885,-29.99819 72.271937,-51.83044 8.78222,-9.42511 16.91142,-19.89171 20.88019,-32.1477 1.9844,-6.127984 2.88154,-12.649563 2.21009,-19.055747 -0.67145,-6.406185 -2.95033,-12.690724 -6.87297,-17.799819 -3.33788,-4.347427 -7.81676,-7.782309 -12.80623,-10.050925 -4.98948,-2.268607 -10.47822,-3.383042 -15.95904,-3.429624 -10.961619,-0.09318 -21.685432,4.069461 -30.639687,10.393013 -10.628612,7.506 -19.09616,18.22778 -23.208095,30.572795 -4.111925,12.345013 -3.69757,26.278997 1.833127,38.056887 3.763277,8.01408 9.777881,14.89579 16.968361,20.06149 7.190473,5.16572 15.531134,8.6431 24.176389,10.55284 17.290505,3.81949 35.442155,1.39774 52.440125,-3.56405 23.67855,-6.91189 45.90634,-18.75223 64.85352,-34.5463 l -8.91583,-37.088037 c -14.64893,27.283257 -40.12564,48.558167 -69.58371,58.107467 -12.15012,3.93866 -25.28274,5.93434 -37.722483,3.03757 -6.219871,-1.4484 -12.188553,-4.12739 -17.193845,-8.09372 -5.005289,-3.96632 -9.020584,-9.24364 -11.185916,-15.25164 -2.856242,-7.925 -2.367877,-16.88631 0.760484,-24.707877 3.128349,-7.821576 8.784369,-14.51332 15.618993,-19.437902 4.812248,-3.467385 10.353809,-6.140543 16.258852,-6.698098 2.952525,-0.278784 5.968355,-0.01864 8.790695,0.892143 2.82234,0.91079 5.44594,2.482322 7.48523,4.635558 2.48562,2.624502 4.04568,6.057306 4.66005,9.619452 0.61437,3.562149 0.31172,7.248347 -0.60678,10.744436 -1.83702,6.992189 -6.02611,13.104258 -10.30379,18.932358 -18.506513,25.21403 -40.125363,48.14132 -64.209667,68.09587 z"
     style="fill:#ffffff" />
  <path
     inkscape:connector-curvature="0"
     style="fill:url(#linearGradient15270)"
     d="m 43.303341,178.36644 c 27.353323,-15.10928 51.746416,-35.55398 71.403549,-59.84579 6.65725,-8.22686 12.89026,-17.12215 15.72695,-27.317891 1.41835,-5.097874 1.95084,-10.477302 1.20271,-15.715661 -0.74814,-5.23835 -2.8101,-10.329967 -6.19559,-14.396727 -2.91061,-3.496315 -6.7525,-6.181145 -10.97116,-7.883685 -4.21867,-1.702548 -8.8052,-2.435541 -13.35294,-2.317592 -9.095464,0.235886 -17.864592,3.838134 -25.401787,8.934598 -9.074525,6.13598 -16.69211,14.60359 -21.086607,24.637813 -4.394489,10.034221 -5.422416,21.652785 -2.077517,32.083925 2.169155,6.76455 6.110395,12.91464 11.137416,17.93394 5.027031,5.0193 11.12118,8.92206 17.668602,11.67808 13.094834,5.51203 27.754413,6.39884 41.883753,4.90916 32.1564,-3.39031 62.85384,-19.13508 84.3688,-43.27291 l -7.0743,-29.302873 c -14.93453,27.077433 -40.27724,48.240433 -69.5837,58.107463 -12.64923,4.2588 -26.3576,6.46604 -39.381775,3.54862 -6.512088,-1.45871 -12.7719,-4.20671 -18.037439,-8.30662 -5.26553,-4.09991 -9.509417,-9.57634 -11.832659,-15.83236 -3.390361,-9.12949 -2.497109,-19.58693 1.625704,-28.409896 4.122804,-8.822963 11.296431,-16.040302 19.671877,-21.009609 4.622291,-2.742492 9.705855,-4.86254 15.0512,-5.422995 5.345342,-0.560455 10.982432,0.548588 15.307092,3.739835 3.50363,2.585395 5.99299,6.426045 7.25797,10.592515 1.26499,4.16646 1.34684,8.642204 0.58295,12.928933 -1.52777,8.573479 -6.2808,16.196827 -11.27676,23.329767 -18.106428,25.85132 -40.763291,48.50602 -66.616339,66.60996 z"
     id="path14726" />
  <path
     inkscape:connector-curvature="0"
     style="opacity:0.3404255;fill:url(#radialGradient15282)"
     d="m 138.93348,135.19379 c 12.37894,-4.83068 24.20259,-11.08269 35.16418,-18.59384 9.73164,-6.66835 18.78377,-14.32777 26.971,-22.821361 l -1.32877,-9.961655 c -7.29207,11.28574 -16.26001,21.486616 -26.51855,30.164416 -10.2985,8.71161 -21.89513,15.88595 -34.28786,21.21244 z"
     id="path15272" />
  <path
     inkscape:connector-curvature="0"
     id="rect4785"
     d="m 119.74927,20.530579 42.73377,-10.108418 c 12.17405,-2.8796984 25.99312,5.626097 28.76499,17.344313 L 209.08789,103.18524 91.71811,130.94836 119.74927,20.530579 Z"
     style="fill:url(#radialGradient19214);enable-background:new" />
  <path
     inkscape:connector-curvature="0"
     id="path10688-3"
     d="m 64.778463,34.516916 32.950975,-7.794357 -19.016597,94.376831 -16.388303,2.86665 2.453925,-89.449124 0,0 0,0 z"
     style="fill:url(#radialGradient5152-4);enable-background:new" />
  <ellipse
     style="color:#000000;display:inline;overflow:visible;visibility:visible;opacity:0.40641713;fill:url(#radialGradient4774);fill-opacity:1;fill-rule:evenodd;stroke:none;stroke-width:2.81415844;stroke-linecap:butt;stroke-linejoin:miter;stroke-miterlimit:10;stroke-dasharray:none;stroke-dashoffset:0;stroke-opacity:1;marker:none;marker-start:none;marker-mid:none;marker-end:none"
     id="ellipse4429"
     cx="109.30193"
     cy="211.95541"
     rx="104.02336"
     ry="21.097328" />
  <ellipse
     ry="21.097328"
     rx="104.02336"
     cy="209.41304"
     cx="119.47143"
     id="ellipse4776"
     style="color:#000000;display:inline;overflow:visible;visibility:visible;opacity:0.40641713;fill:url(#radialGradient5220);fill-opacity:1;fill-rule:evenodd;stroke:none;stroke-width:2.81415844;stroke-linecap:butt;stroke-linejoin:miter;stroke-miterlimit:10;stroke-dasharray:none;stroke-dashoffset:0;stroke-opacity:1;marker:none;marker-start:none;marker-mid:none;marker-end:none" />
  <g
     transform="translate(-210.71383,-50.374468)"
     id="g4245"
     style="enable-background:new">
    <g
       transform="matrix(0.9731453,-0.23019172,0.23019172,0.9731453,150.13768,49.152213)"
       id="g4247"
       clip-path="url(#clipPath4315-9)">
      <rect
         height="183.99988"
         id="rect4249"
         rx="25.053392"
         ry="25.053387"
         style="fill:url(#radialGradient4622-7);fill-rule:evenodd"
         width="183.99991"
         x="56.000088"
         y="60.000122" />
      <rect
         height="183.99988"
         id="rect4251"
         rx="25.053392"
         ry="25.053387"
         style="fill:url(#radialGradient4624-2);fill-rule:evenodd;enable-background:new"
         width="183.99991"
         x="56.000088"
         y="60.00013" />
      <path
         inkscape:connector-curvature="0"
         id="path4253"
         d="m 62,189.9375 0,30 C 62,230.59424 70.405762,239 81.0625,239 l 133.875,0 C 225.59424,239 234,230.59424 234,219.9375 l 0,-30 C 234,200.59424 225.59424,209 214.9375,209 l -133.875,0 C 70.405762,209 62,200.59424 62,189.9375 Z"
         style="fill:url(#linearGradient4626-1);fill-rule:evenodd;filter:url(#filter4105-6);enable-background:new" />
      <path
         inkscape:connector-curvature="0"
         transform="matrix(1,0,0,-1,0,300.9375)"
         id="path4255"
         d="m 62,212.9375 0,6 C 62,229.59424 70.405762,238 81.0625,238 l 133.87499,0 c 10.65674,0 19.0625,-8.40576 19.0625,-19.0625 l 0,-6 c 0,10.65674 -8.40576,19.0625 -19.0625,19.0625 L 81.0625,232 C 70.405762,232 62,223.59424 62,212.9375 Z"
         style="fill:url(#radialGradient4628-9);fill-rule:evenodd;filter:url(#filter4155-7);enable-background:new" />
      <path
         inkscape:connector-curvature="0"
         id="path4257"
         d="m 60,76 c -1.108,0 -2,0.892 -2,2 l 0,148 c 0,1.108 0.892,2 2,2 1.108,0 2,-0.892 2,-2 L 62,78 c 0,-1.108 -0.892,-2 -2,-2 z m 176,0 c -1.108,0 -2,0.892 -2,2 l 0,148 c 0,1.108 0.892,2 2,2 1.108,0 2,-0.892 2,-2 l 0,-148 c 0,-1.108 -0.892,-2 -2,-2 z"
         style="fill:url(#radialGradient4630-0);filter:url(#filter4246-8)" />
      <rect
         height="183.99988"
         id="rect4259"
         rx="25.053392"
         ry="25.053387"
         style="fill:none;stroke:url(#linearGradient4632-8);stroke-width:2;filter:url(#filter4321-0);enable-background:new"
         width="183.99991"
         x="56.000088"
         y="60.00013" />
    </g>
    <g
       transform="matrix(0.9731453,-0.23019172,0.23019172,0.9731453,150.13768,49.152213)"
       style="opacity:0.42127662"
       id="g4261">
      <rect
         style="opacity:0.33516487;enable-background:new"
         id="rect4263"
         width="129"
         height="1"
         x="83.75"
         y="213.67809" />
      <rect
         y="215.67809"
         x="83.75"
         height="1"
         width="129"
         id="rect4265"
         style="opacity:0.33516487;enable-background:new" />
      <rect
         style="opacity:0.33516487;enable-background:new"
         id="rect4267"
         width="82.928574"
         height="1"
         x="83.75"
         y="217.67809" />
    </g>
  </g>
  <path
     transform="matrix(0.95227915,-0.22525595,0.23195001,0.98057857,-53.243001,0.25525718)"
     d="m 133.5,77.625 c -8.69379,-0.599702 -17.56214,1.135194 -25.65625,4.46875 -12.164778,5.010057 -22.922328,13.691817 -29.75,24.9375 -6.827672,11.24568 -9.584898,25.06354 -6.875,37.9375 1.883519,8.94807 6.314889,17.28105 12.34375,24.15625 2.404493,2.74204 5.124048,5.18967 7.96875,7.46875 C 79.419542,184.40633 66.917108,191.60632 54,198 c 16.422813,-2.95579 32.445757,-7.93538 47.71875,-14.65625 1.24336,0.67903 2.47115,1.39333 3.75,2 16.52331,7.83853 35.33772,9.58618 53.59375,8.5 24.61044,-1.46425 48.91598,-7.8547 71.0625,-18.6875 L 230,137 c -20.53591,23.17851 -50.2286,38.0194 -81.09375,40.53125 -10.00777,0.81445 -20.29771,0.22793 -29.8125,-2.78125 5.87932,-3.25593 11.61545,-6.75819 17.15625,-10.5625 10.55033,-7.24384 20.63612,-15.64995 27.21875,-26.625 3.29131,-5.48752 5.66763,-11.57025 6.5625,-17.90625 0.89486,-6.336 0.29948,-12.94051 -2.09375,-18.875 -2.18263,-5.412272 -5.83687,-10.198881 -10.34375,-13.90625 -4.50688,-3.707368 -9.85882,-6.349233 -15.5,-7.84375 C 139.27316,78.283991 136.39793,77.824901 133.5,77.625 Z m -5.1875,22.71875 c 1.47505,-0.0448 2.93755,0.0458 4.40625,0.25 2.93741,0.40835 5.80686,1.339 8.34375,2.875 2.53689,1.53601 4.72988,3.68516 6.21875,6.25 1.81473,3.12619 2.5346,6.82959 2.3125,10.4375 -0.22211,3.60791 -1.36389,7.12173 -3.0625,10.3125 -3.39723,6.38155 -8.87061,11.34435 -14.375,16.03125 -8.79366,7.48766 -18.03228,14.43449 -27.46875,21.09375 -2.99903,-2.19664 -5.75974,-4.70893 -8.0625,-7.625 -3.957862,-5.01198 -6.650808,-11.06116 -7.375,-17.40625 -0.955265,-8.36966 1.592692,-16.9836 6.4375,-23.875 4.8448,-6.89141 11.87157,-12.09344 19.65625,-15.3125 4.11088,-1.6999 8.54361,-2.89669 12.96875,-3.03125 z"
     id="path4269"
     style="opacity:0.16595746;filter:url(#filter15260)"
     xlink:href="#path15242"
     inkscape:connector-curvature="0" />
  <path
     style="fill:#ffffff"
     d="m 43.533533,179.33959 c 27.203477,-12.26614 51.928885,-29.99819 72.271937,-51.83044 8.78222,-9.42511 16.91142,-19.89171 20.88019,-32.1477 1.9844,-6.127984 2.88154,-12.649563 2.21009,-19.055747 -0.67145,-6.406185 -2.95033,-12.690724 -6.87297,-17.799819 -3.33788,-4.347427 -7.81676,-7.782309 -12.80623,-10.050925 -4.98948,-2.268607 -10.47822,-3.383042 -15.95904,-3.429624 -10.961619,-0.09318 -21.685432,4.069461 -30.639687,10.393013 -10.628612,7.506 -19.09616,18.22778 -23.208095,30.572795 -4.111925,12.345013 -3.69757,26.278997 1.833127,38.056887 3.763277,8.01408 9.777881,14.89579 16.968361,20.06149 7.190473,5.16572 15.531134,8.6431 24.176389,10.55284 17.290505,3.81949 35.442155,1.39774 52.440125,-3.56405 23.67855,-6.91189 45.90634,-18.75223 64.85352,-34.5463 l -8.91583,-37.088037 c -14.64893,27.283257 -40.12564,48.558167 -69.58371,58.107467 -12.15012,3.93866 -25.28274,5.93434 -37.722483,3.03757 -6.219871,-1.4484 -12.188553,-4.12739 -17.193845,-8.09372 -5.005289,-3.96632 -9.020584,-9.24364 -11.185916,-15.25164 -2.856242,-7.925 -2.367877,-16.88631 0.760484,-24.707877 3.128349,-7.821576 8.784369,-14.51332 15.618993,-19.437902 4.812248,-3.467385 10.353809,-6.140543 16.258852,-6.698098 2.952525,-0.278784 5.968355,-0.01864 8.790695,0.892143 2.82234,0.91079 5.44594,2.482322 7.48523,4.635558 2.48562,2.624502 4.04568,6.057306 4.66005,9.619452 0.61437,3.562149 0.31172,7.248347 -0.60678,10.744436 -1.83702,6.992189 -6.02611,13.104258 -10.30379,18.932358 -18.506513,25.21403 -40.125363,48.14132 -64.209667,68.09587 z"
     id="path4271"
     inkscape:connector-curvature="0" />
  <path
     id="path4273"
     d="m 43.303341,178.36644 c 27.353323,-15.10928 51.746416,-35.55398 71.403549,-59.84579 6.65725,-8.22686 12.89026,-17.12215 15.72695,-27.317891 1.41835,-5.097874 1.95084,-10.477302 1.20271,-15.715661 -0.74814,-5.23835 -2.8101,-10.329967 -6.19559,-14.396727 -2.91061,-3.496315 -6.7525,-6.181145 -10.97116,-7.883685 -4.21867,-1.702548 -8.8052,-2.435541 -13.35294,-2.317592 -9.095464,0.235886 -17.864592,3.838134 -25.401787,8.934598 -9.074525,6.13598 -16.69211,14.60359 -21.086607,24.637813 -4.394489,10.034221 -5.422416,21.652785 -2.077517,32.083925 2.169155,6.76455 6.110395,12.91464 11.137416,17.93394 5.027031,5.0193 11.12118,8.92206 17.668602,11.67808 13.094834,5.51203 27.754413,6.39884 41.883753,4.90916 32.1564,-3.39031 62.85384,-19.13508 84.3688,-43.27291 l -7.0743,-29.302873 c -14.93453,27.077433 -40.27724,48.240433 -69.5837,58.107463 -12.64923,4.2588 -26.3576,6.46604 -39.381775,3.54862 -6.512088,-1.45871 -12.7719,-4.20671 -18.037439,-8.30662 -5.26553,-4.09991 -9.509417,-9.57634 -11.832659,-15.83236 -3.390361,-9.12949 -2.497109,-19.58693 1.625704,-28.409896 4.122804,-8.822963 11.296431,-16.040302 19.671877,-21.009609 4.622291,-2.742492 9.705855,-4.86254 15.0512,-5.422995 5.345342,-0.560455 10.982432,0.548588 15.307092,3.739835 3.50363,2.585395 5.99299,6.426045 7.25797,10.592515 1.26499,4.16646 1.34684,8.642204 0.58295,12.928933 -1.52777,8.573479 -6.2808,16.196827 -11.27676,23.329767 -18.106428,25.85132 -40.763291,48.50602 -66.616339,66.60996 z"
     style="fill:url(#linearGradient15270)"
     inkscape:connector-curvature="0" />
  <path
     id="path4275"
     d="m 138.93348,135.19379 c 12.37894,-4.83068 24.20259,-11.08269 35.16418,-18.59384 9.73164,-6.66835 18.78377,-14.32777 26.971,-22.821361 l -1.32877,-9.961655 c -7.29207,11.28574 -16.26001,21.486616 -26.51855,30.164416 -10.2985,8.71161 -21.89513,15.88595 -34.28786,21.21244 z"
     style="opacity:0.3404255;fill:url(#radialGradient15282)"
     inkscape:connector-curvature="0" />
  <path
     style="fill:url(#radialGradient19214);enable-background:new"
     d="m 119.74927,20.530579 42.73377,-10.108418 c 12.17405,-2.8796984 25.99312,5.626097 28.76499,17.344313 L 209.08789,103.18524 91.71811,130.94836 119.74927,20.530579 Z"
     id="path4277"
     inkscape:connector-curvature="0" />
  <path
     style="fill:url(#radialGradient5152-4);enable-background:new"
     d="m 64.778463,34.516916 32.950975,-7.794357 -19.016597,94.376831 -16.388303,2.86665 2.453925,-89.449124 0,0 0,0 z"
     id="path4279"
     inkscape:connector-curvature="0" />
</svg>
