<?xml version="1.0" encoding="UTF-8" standalone="no"?>
<!-- Created with Inkscape (http://www.inkscape.org/) -->
<svg
   xmlns:dc="http://purl.org/dc/elements/1.1/"
   xmlns:cc="http://creativecommons.org/ns#"
   xmlns:rdf="http://www.w3.org/1999/02/22-rdf-syntax-ns#"
   xmlns:svg="http://www.w3.org/2000/svg"
   xmlns="http://www.w3.org/2000/svg"
   xmlns:xlink="http://www.w3.org/1999/xlink"
   xmlns:sodipodi="http://sodipodi.sourceforge.net/DTD/sodipodi-0.dtd"
   xmlns:inkscape="http://www.inkscape.org/namespaces/inkscape"
   sodipodi:docname="korgac.svg"
   sodipodi:docbase="/home/jimmac/src/cvs/tango-icon-theme/scalable/apps"
   inkscape:version="0.46"
   sodipodi:version="0.32"
   id="svg1288"
   height="48px"
   width="48px"
   inkscape:output_extension="org.inkscape.output.svg.inkscape">
  <defs
     id="defs3">
    <linearGradient
       id="linearGradient3918">
      <stop
         style="stop-color:#729fcf;stop-opacity:1;"
         offset="0"
         id="stop3920" />
      <stop
         style="stop-color:#729fcf;stop-opacity:1;"
         offset="1"
         id="stop3922" />
    </linearGradient>
    <linearGradient
       inkscape:collect="always"
       id="linearGradient3393">
      <stop
         style="stop-color:#ffffff;stop-opacity:1;"
         offset="0"
         id="stop3395" />
      <stop
         style="stop-color:#ffffff;stop-opacity:0;"
         offset="1"
         id="stop3397" />
    </linearGradient>
    <linearGradient
       inkscape:collect="always"
       id="linearGradient3383">
      <stop
         style="stop-color:#ffffff;stop-opacity:1;"
         offset="0"
         id="stop3385" />
      <stop
         style="stop-color:#ffffff;stop-opacity:0;"
         offset="1"
         id="stop3387" />
    </linearGradient>
    <linearGradient
       id="linearGradient3401">
      <stop
         style="stop-color:#555753;stop-opacity:1;"
         offset="0"
         id="stop3403" />
      <stop
         style="stop-color:#1f201e;stop-opacity:1;"
         offset="1"
         id="stop3405" />
    </linearGradient>
    <linearGradient
       id="linearGradient3349">
      <stop
         style="stop-color:#7c8770;stop-opacity:1;"
         offset="0"
         id="stop3351" />
      <stop
         id="stop3357"
         offset="0.5"
         style="stop-color:#d8dcd4;stop-opacity:1;" />
      <stop
         style="stop-color:#ffffff;stop-opacity:1;"
         offset="1"
         id="stop3353" />
    </linearGradient>
    <linearGradient
       id="linearGradient3361">
      <stop
         style="stop-color:#bec1ba;stop-opacity:1;"
         offset="0"
         id="stop3363" />
      <stop
         id="stop3912"
         offset="0.5"
         style="stop-color:#fdfdfd;stop-opacity:1;" />
      <stop
         style="stop-color:#ced0cb;stop-opacity:1;"
         offset="0.68181819"
         id="stop3914" />
      <stop
         id="stop3916"
         offset="0.77272725"
         style="stop-color:#fdfdfd;stop-opacity:1;" />
      <stop
         style="stop-color:#babdb6;stop-opacity:1;"
         offset="1"
         id="stop3365" />
    </linearGradient>
    <inkscape:perspective
       sodipodi:type="inkscape:persp3d"
       inkscape:vp_x="0 : 24 : 1"
       inkscape:vp_y="0 : 1000 : 0"
       inkscape:vp_z="48 : 24 : 1"
       inkscape:persp3d-origin="24 : 16 : 1"
       id="perspective48" />
    <radialGradient
       inkscape:collect="always"
       xlink:href="#linearGradient5060"
       id="radialGradient6719"
       gradientUnits="userSpaceOnUse"
       gradientTransform="matrix(-2.774389,0,0,1.969706,112.7623,-872.8854)"
       cx="605.71429"
       cy="486.64789"
       fx="605.71429"
       fy="486.64789"
       r="117.14286" />
    <linearGradient
       inkscape:collect="always"
       id="linearGradient5060">
      <stop
         style="stop-color:black;stop-opacity:1;"
         offset="0"
         id="stop5062" />
      <stop
         style="stop-color:black;stop-opacity:0;"
         offset="1"
         id="stop5064" />
    </linearGradient>
    <radialGradient
       inkscape:collect="always"
       xlink:href="#linearGradient5060"
       id="radialGradient6717"
       gradientUnits="userSpaceOnUse"
       gradientTransform="matrix(2.774389,0,0,1.969706,-1891.633,-872.8854)"
       cx="605.71429"
       cy="486.64789"
       fx="605.71429"
       fy="486.64789"
       r="117.14286" />
    <linearGradient
       id="linearGradient5048">
      <stop
         style="stop-color:black;stop-opacity:0;"
         offset="0"
         id="stop5050" />
      <stop
         id="stop5056"
         offset="0.5"
         style="stop-color:black;stop-opacity:1;" />
      <stop
         style="stop-color:black;stop-opacity:0;"
         offset="1"
         id="stop5052" />
    </linearGradient>
    <linearGradient
       inkscape:collect="always"
       xlink:href="#linearGradient5048"
       id="linearGradient6715"
       gradientUnits="userSpaceOnUse"
       gradientTransform="matrix(2.774389,0,0,1.969706,-1892.179,-872.8854)"
       x1="302.85715"
       y1="366.64789"
       x2="302.85715"
       y2="609.50507" />
    <linearGradient
       id="linearGradient2563">
      <stop
         id="stop2565"
         offset="0"
         style="stop-color:#e2e2e2;stop-opacity:1;" />
      <stop
         id="stop2567"
         offset="1.0000000"
         style="stop-color:#9f9f9f;stop-opacity:1.0000000;" />
    </linearGradient>
    <linearGradient
       id="linearGradient2551"
       inkscape:collect="always">
      <stop
         id="stop2553"
         offset="0"
         style="stop-color:#000000;stop-opacity:1;" />
      <stop
         id="stop2555"
         offset="1"
         style="stop-color:#000000;stop-opacity:0;" />
    </linearGradient>
    <linearGradient
       id="linearGradient2526">
      <stop
         id="stop2528"
         offset="0.0000000"
         style="stop-color:#e7ebeb;stop-opacity:1.0000000;" />
      <stop
         style="stop-color:#e6ebeb;stop-opacity:1.0000000;"
         offset="0.50000000"
         id="stop2534" />
      <stop
         id="stop2530"
         offset="1.0000000"
         style="stop-color:#ffffff;stop-opacity:1.0000000;" />
    </linearGradient>
    <linearGradient
       gradientTransform="translate(0.000000,0.785718)"
       gradientUnits="userSpaceOnUse"
       y2="28.428572"
       x2="42.214283"
       y1="14.428571"
       x1="13.357142"
       id="linearGradient2532"
       xlink:href="#linearGradient2526"
       inkscape:collect="always" />
    <radialGradient
       gradientUnits="userSpaceOnUse"
       gradientTransform="matrix(1.000000,0.000000,0.000000,0.751938,1.196962e-16,7.193799)"
       r="18.428572"
       fy="29.000000"
       fx="26.000000"
       cy="29.000000"
       cx="26.000000"
       id="radialGradient2557"
       xlink:href="#linearGradient2551"
       inkscape:collect="always" />
    <linearGradient
       gradientTransform="translate(0.000000,0.785718)"
       gradientUnits="userSpaceOnUse"
       y2="30.785713"
       x2="42.214284"
       y1="30.785713"
       x1="6.7857148"
       id="linearGradient2569"
       xlink:href="#linearGradient2563"
       inkscape:collect="always" />
    <linearGradient
       y2="28.428572"
       x2="42.214283"
       y1="14.428571"
       x1="13.357142"
       gradientTransform="translate(2.045771e-15,0.785718)"
       gradientUnits="userSpaceOnUse"
       id="linearGradient2582"
       xlink:href="#linearGradient2526"
       inkscape:collect="always" />
    <radialGradient
       inkscape:collect="always"
       xlink:href="#linearGradient3918"
       id="radialGradient3403"
       gradientUnits="userSpaceOnUse"
       gradientTransform="matrix(0.65,0,0,1.1574986,-0.3444943,12.841328)"
       cx="37.236449"
       cy="8.8302955"
       fx="37.236449"
       fy="8.8302955"
       r="5.0263651" />
    <radialGradient
       inkscape:collect="always"
       xlink:href="#linearGradient3918"
       id="radialGradient3406"
       gradientUnits="userSpaceOnUse"
       gradientTransform="matrix(0.65,0,0,0.910026,-0.3444943,14.999011)"
       cx="32.128544"
       cy="8.9363249"
       fx="32.128544"
       fy="8.9363249"
       r="4.0550212" />
    <radialGradient
       inkscape:collect="always"
       xlink:href="#linearGradient3918"
       id="radialGradient3409"
       gradientUnits="userSpaceOnUse"
       gradientTransform="matrix(0.65,0,0,0.8738483,-0.3444943,15.063957)"
       cx="27.331102"
       cy="10.090467"
       fx="27.331102"
       fy="10.090467"
       r="2.8455251" />
    <linearGradient
       inkscape:collect="always"
       xlink:href="#linearGradient3393"
       id="linearGradient3412"
       gradientUnits="userSpaceOnUse"
       gradientTransform="matrix(0.65,0,0,0.65,-3.6767349,17.322689)"
       x1="16.683601"
       y1="4.8664861"
       x2="10.429825"
       y2="10.720095" />
    <radialGradient
       inkscape:collect="always"
       xlink:href="#linearGradient3383"
       id="radialGradient3415"
       gradientUnits="userSpaceOnUse"
       gradientTransform="matrix(0.9285133,0,0,0.8274949,-4.503687,14.144502)"
       cx="20.083313"
       cy="21.244684"
       fx="20.083313"
       fy="21.244684"
       r="12.727922" />
    <linearGradient
       inkscape:collect="always"
       xlink:href="#linearGradient3401"
       id="linearGradient3418"
       gradientUnits="userSpaceOnUse"
       gradientTransform="matrix(0.65,0,0,0.65,-3.6767349,17.322689)"
       x1="26.188412"
       y1="15.813535"
       x2="21.886168"
       y2="10.810513" />
    <linearGradient
       inkscape:collect="always"
       xlink:href="#linearGradient3349"
       id="linearGradient3421"
       gradientUnits="userSpaceOnUse"
       gradientTransform="matrix(0.65,0,0,0.65,-3.6767349,17.322689)"
       x1="22.169718"
       y1="11.234931"
       x2="25.589436"
       y2="17.859932" />
    <linearGradient
       inkscape:collect="always"
       xlink:href="#linearGradient3361"
       id="linearGradient3425"
       gradientUnits="userSpaceOnUse"
       gradientTransform="matrix(0.65,0,0,0.65,-3.6767349,17.322689)"
       x1="38.464756"
       y1="25.495693"
       x2="22.40625"
       y2="37.290112" />
  </defs>
  <sodipodi:namedview
     inkscape:window-y="282"
     inkscape:window-x="713"
     inkscape:window-height="701"
     inkscape:window-width="872"
     inkscape:document-units="px"
     inkscape:grid-bbox="true"
     showgrid="false"
     inkscape:current-layer="layer1"
     inkscape:cy="24.165113"
     inkscape:cx="25.369574"
     inkscape:zoom="0.5"
     inkscape:pageshadow="2"
     inkscape:pageopacity="0.0"
     borderopacity="1.0"
     bordercolor="#666666"
     pagecolor="#ffffff"
     id="base" />
  <metadata
     id="metadata4">
    <rdf:RDF>
      <cc:Work
         rdf:about="">
        <dc:format>image/svg+xml</dc:format>
        <dc:type
           rdf:resource="http://purl.org/dc/dcmitype/StillImage" />
        <dc:title>Calendar</dc:title>
        <dc:creator>
          <cc:Agent>
            <dc:title>Jakub Steiner</dc:title>
          </cc:Agent>
        </dc:creator>
        <dc:source>http://jimmac.musichall.cz</dc:source>
        <dc:subject>
          <rdf:Bag>
            <rdf:li>calendar</rdf:li>
            <rdf:li>date</rdf:li>
            <rdf:li>time</rdf:li>
            <rdf:li>cal</rdf:li>
          </rdf:Bag>
        </dc:subject>
        <cc:license
           rdf:resource="http://creativecommons.org/licenses/by/2.0/" />
      </cc:Work>
      <cc:License
         rdf:about="http://creativecommons.org/licenses/by/2.0/">
        <cc:permits
           rdf:resource="http://web.resource.org/cc/Reproduction" />
        <cc:permits
           rdf:resource="http://web.resource.org/cc/Distribution" />
        <cc:requires
           rdf:resource="http://web.resource.org/cc/Notice" />
        <cc:requires
           rdf:resource="http://web.resource.org/cc/Attribution" />
        <cc:permits
           rdf:resource="http://web.resource.org/cc/DerivativeWorks" />
        <cc:requires
           rdf:resource="http://web.resource.org/cc/ShareAlike" />
      </cc:License>
    </rdf:RDF>
  </metadata>
  <g
     inkscape:groupmode="layer"
     inkscape:label="Layer 1"
     id="layer1">
    <g
       transform="matrix(2.294847e-2,0,0,2.276812e-2,44.75587,36.74254)"
       id="g6707">
      <rect
         style="opacity:0.40206185;color:black;fill:url(#linearGradient6715);fill-opacity:1;fill-rule:nonzero;stroke:none;stroke-width:1;stroke-linecap:round;stroke-linejoin:miter;marker:none;marker-start:none;marker-mid:none;marker-end:none;stroke-miterlimit:4;stroke-dasharray:none;stroke-dashoffset:0;stroke-opacity:1;visibility:visible;display:inline;overflow:visible"
         id="rect6709"
         width="1339.6335"
         height="478.35718"
         x="-1559.2523"
         y="-150.69685" />
      <path
         style="opacity:0.40206185;color:black;fill:url(#radialGradient6717);fill-opacity:1;fill-rule:nonzero;stroke:none;stroke-width:1;stroke-linecap:round;stroke-linejoin:miter;marker:none;marker-start:none;marker-mid:none;marker-end:none;stroke-miterlimit:4;stroke-dasharray:none;stroke-dashoffset:0;stroke-opacity:1;visibility:visible;display:inline;overflow:visible"
         d="M -219.61876,-150.68038 C -219.61876,-150.68038 -219.61876,327.65041 -219.61876,327.65041 C -76.744594,328.55086 125.78146,220.48075 125.78138,88.454235 C 125.78138,-43.572302 -33.655436,-150.68036 -219.61876,-150.68038 z "
         id="path6711"
         sodipodi:nodetypes="cccc" />
      <path
         sodipodi:nodetypes="cccc"
         id="path6713"
         d="M -1559.2523,-150.68038 C -1559.2523,-150.68038 -1559.2523,327.65041 -1559.2523,327.65041 C -1702.1265,328.55086 -1904.6525,220.48075 -1904.6525,88.454235 C -1904.6525,-43.572302 -1745.2157,-150.68036 -1559.2523,-150.68038 z "
         style="opacity:0.40206185;color:black;fill:url(#radialGradient6719);fill-opacity:1;fill-rule:nonzero;stroke:none;stroke-width:1;stroke-linecap:round;stroke-linejoin:miter;marker:none;marker-start:none;marker-mid:none;marker-end:none;stroke-miterlimit:4;stroke-dasharray:none;stroke-dashoffset:0;stroke-opacity:1;visibility:visible;display:inline;overflow:visible" />
    </g>
    <path
       sodipodi:nodetypes="ccccccc"
       id="path1316"
       d="M 4.8571430,38.428571 C 4.6428572,39.428571 5.4642859,40.464285 6.8214287,40.428571 L 43.000000,40.428571 C 44.285714,40.392857 44.714286,39.214285 44.428572,38.249999 L 36.571429,9.4285713 L 10.571429,9.4285713 L 4.8571430,38.428571 z "
       style="fill:#a7a7a7;fill-opacity:1.0000000;fill-rule:evenodd;stroke:#656565;stroke-width:1.0000000px;stroke-linecap:butt;stroke-linejoin:miter;stroke-opacity:1.0000000" />
    <path
       sodipodi:nodetypes="ccccccccc"
       id="path2575"
       d="M 9.1625040,30.806458 L 39.395095,30.806458 C 40.252297,30.806458 40.942392,31.478744 40.942392,32.313825 L 42.269580,37.114760 C 42.269580,37.949841 41.579486,38.622127 40.722283,38.622127 L 8.2777114,38.622127 C 7.4205088,38.622127 6.7304142,37.949841 6.7304142,37.114760 L 7.6152068,32.313825 C 7.6152068,31.478744 8.3053014,30.806458 9.1625040,30.806458 z "
       style="opacity:0.10857142;color:#000000;fill:#000000;fill-opacity:1.0000000;fill-rule:evenodd;stroke:#000000;stroke-width:0.99999958;stroke-linecap:butt;stroke-linejoin:miter;marker:none;marker-start:none;marker-mid:none;marker-end:none;stroke-miterlimit:4.0000000;stroke-dasharray:none;stroke-dashoffset:0.0000000;stroke-opacity:1.0000000;visibility:visible;display:inline;overflow:visible;font-family:Bitstream Vera Sans" />
    <path
       style="fill:none;fill-opacity:1.0000000;fill-rule:evenodd;stroke:#ffffff;stroke-width:0.99999970px;stroke-linecap:butt;stroke-linejoin:miter;stroke-opacity:0.34463277"
       d="M 6.0478436,37.805569 C 5.8479823,38.738255 5.6491963,39.385227 6.5227626,39.385227 L 42.837439,39.385227 C 43.753496,39.385227 43.579187,38.645537 43.312705,37.746161 L 35.770172,10.471961 L 11.520336,10.471961 L 6.0478436,37.805569 z "
       id="path2520"
       sodipodi:nodetypes="ccccccc" />
    <path
       style="opacity:1.0000000;color:#000000;fill:#c5c5c5;fill-opacity:1.0000000;fill-rule:evenodd;stroke:#696969;stroke-width:0.99999964;stroke-linecap:butt;stroke-linejoin:miter;marker:none;marker-start:none;marker-mid:none;marker-end:none;stroke-miterlimit:4.0000000;stroke-dasharray:none;stroke-dashoffset:0.0000000;stroke-opacity:1.0000000;visibility:visible;display:inline;overflow:visible;font-family:Bitstream Vera Sans"
       d="M 9.6418018,29.928574 L 38.929626,29.928574 C 39.760041,29.928574 40.428570,30.579851 40.428570,31.388835 L 41.714284,36.039742 C 41.714284,36.848726 41.045755,37.500003 40.215340,37.500003 L 8.7846589,37.500003 C 7.9542438,37.500003 7.2857146,36.848726 7.2857146,36.039742 L 8.1428575,31.388835 C 8.1428575,30.579851 8.8113867,29.928574 9.6418018,29.928574 z "
       id="path2518"
       sodipodi:nodetypes="ccccccccc" />
    <path
       sodipodi:nodetypes="ccccccccc"
       id="rect2225"
       d="M 9.6418018,27.785717 L 38.929626,27.785717 C 39.760041,27.785717 40.428570,28.436994 40.428570,29.245978 L 41.714284,33.896885 C 41.714284,34.705869 41.045755,35.357146 40.215340,35.357146 L 8.7846589,35.357146 C 7.9542438,35.357146 7.2857146,34.705869 7.2857146,33.896885 L 8.1428575,29.245978 C 8.1428575,28.436994 8.8113867,27.785717 9.6418018,27.785717 z "
       style="color:#000000;fill:url(#linearGradient2569);fill-opacity:1.0000000;fill-rule:evenodd;stroke:#696969;stroke-width:0.99999964;stroke-linecap:butt;stroke-linejoin:miter;marker:none;marker-start:none;marker-mid:none;marker-end:none;stroke-miterlimit:4.0000000;stroke-dashoffset:0.0000000;stroke-opacity:1.0000000;visibility:visible;display:inline;overflow:visible" />
    <g
       transform="matrix(0.942549,0.000000,0.000000,0.942549,-0.222619,1.855860)"
       id="g2578">
      <path
         style="fill:url(#linearGradient2582);fill-opacity:1.0000000;fill-rule:evenodd;stroke:#696969;stroke-width:1.0609524px;stroke-linecap:butt;stroke-linejoin:miter;stroke-opacity:1.0000000"
         d="M 10.891973,11.500004 L 6.5714281,33.214290 C 6.5714281,33.214290 32.857143,33.214291 32.857143,33.214291 C 45.441975,33.214291 48.085306,29.214290 48.085306,29.214290 C 48.085306,29.214290 44.728164,28.035719 43.299593,23.071433 C 43.299593,23.071433 40.238640,11.500004 40.238640,11.500004 L 10.891973,11.500004 z "
         id="path2524"
         sodipodi:nodetypes="cczczcc" />
      <path
         sodipodi:nodetypes="cccczcc"
         id="path2571"
         d="M 11.803734,12.474609 L 7.8122567,32.239668 C 7.8122567,32.239668 24.956518,32.239669 32.238382,32.239669 C 43.465021,32.239669 46.348811,29.388804 46.348811,29.388804 C 46.348811,29.388804 43.355751,27.525962 42.055419,23.007305 C 42.055419,23.007305 39.316856,12.546038 39.316856,12.546038 L 11.803734,12.474609 z "
         style="fill:none;fill-opacity:1.0000000;fill-rule:evenodd;stroke:#ffffff;stroke-width:1.0609519px;stroke-linecap:butt;stroke-linejoin:miter;stroke-opacity:1.0000000" />
    </g>
    <path
       sodipodi:nodetypes="ccccccccc"
       id="rect2522"
       d="M 11.315699,7.4285707 L 36.494515,7.4285707 C 37.367632,7.4285707 38.070539,8.0973414 38.070539,8.9280566 L 38.427682,11.071942 C 38.427682,11.902657 37.724775,12.571428 36.851658,12.571428 L 10.958556,12.571428 C 10.085439,12.571428 9.3825323,11.902657 9.3825323,11.071942 L 9.7396752,8.9280566 C 9.7396752,8.0973414 10.442582,7.4285707 11.315699,7.4285707 z "
       style="color:#000000;fill:#9b9b9b;fill-opacity:1.0000000;fill-rule:evenodd;stroke:#696969;stroke-width:0.99999952;stroke-linecap:butt;stroke-linejoin:miter;stroke-miterlimit:4.0000000;stroke-dashoffset:0.0000000;stroke-opacity:1.0000000;marker:none;marker-start:none;marker-mid:none;marker-end:none;visibility:visible;display:inline;overflow:visible" />
    <path
       id="text2541"
       d="M 20.969159,22.393020 C 21.957574,22.486777 22.691543,22.765423 23.171063,23.228961 C 23.651181,23.687301 23.849054,24.273239 23.764680,24.986779 C 23.640870,26.033659 23.075908,26.877412 22.069796,27.518037 C 21.063667,28.158665 19.762256,28.478977 18.165559,28.478978 C 16.939741,28.478977 15.906445,28.286269 15.065668,27.900851 L 15.305880,25.869594 C 16.189321,26.478973 17.193659,26.783661 18.318897,26.783660 C 19.217824,26.783661 19.926554,26.637828 20.445092,26.346159 C 20.964233,26.049284 21.255527,25.632617 21.318975,25.096154 C 21.385488,24.533656 21.176411,24.122197 20.691744,23.861775 C 20.207063,23.601362 19.398966,23.471154 18.267450,23.471149 L 16.994488,23.471149 L 17.201440,21.721144 L 18.559266,21.721144 C 19.451905,21.721150 20.149975,21.585733 20.653477,21.314892 C 21.157582,21.038857 21.439509,20.648231 21.499262,20.143013 C 21.555304,19.669062 21.408536,19.288853 21.058960,19.002385 C 20.709369,18.715935 20.154261,18.572705 19.393634,18.572696 C 18.431836,18.572705 17.490216,18.853956 16.568772,19.416448 L 16.798822,17.471130 C 17.831208,17.033639 18.988597,16.814889 20.270993,16.814878 C 21.509374,16.814889 22.459536,17.072702 23.121484,17.588317 C 23.789700,18.103954 24.076386,18.762810 23.981543,19.564886 C 23.893455,20.309689 23.598230,20.919065 23.095869,21.393017 C 22.594104,21.861775 21.885201,22.195109 20.969159,22.393020"
       style="font-size:17.577877;font-style:normal;font-variant:normal;font-weight:bold;font-stretch:normal;line-height:100.00000%;writing-mode:lr-tb;text-anchor:start;fill:#000000;fill-opacity:1.0000000;stroke:none;stroke-width:1.0000000px;stroke-linecap:butt;stroke-linejoin:miter;stroke-opacity:1.0000000;font-family:Segoe" />
    <path
       id="text2545"
       d="M 33.007379,28.455540 L 30.499173,28.455540 L 29.387875,19.096134 L 26.295373,19.893012 L 26.086657,18.135194 L 31.627997,16.838314 L 33.007379,28.455540"
       style="font-size:17.577877;font-style:normal;font-variant:normal;font-weight:bold;font-stretch:normal;line-height:100.00000%;writing-mode:lr-tb;text-anchor:start;fill:#000000;fill-opacity:1.0000000;stroke:none;stroke-width:1.0000000px;stroke-linecap:butt;stroke-linejoin:miter;stroke-opacity:1.0000000;font-family:Segoe" />
    <path
       transform="matrix(0.684211,0.000000,0.000000,0.684211,3.560154,2.278197)"
       d="M 12.857143 9.9285717 A 1.3571428 1.3571428 0 1 1  10.142857,9.9285717 A 1.3571428 1.3571428 0 1 1  12.857143 9.9285717 z"
       sodipodi:ry="1.3571428"
       sodipodi:rx="1.3571428"
       sodipodi:cy="9.9285717"
       sodipodi:cx="11.500000"
       id="path2559"
       style="opacity:0.52571428;color:#000000;fill:#fefefe;fill-opacity:1.0000000;fill-rule:evenodd;stroke:none;stroke-width:0.99999964;stroke-linecap:butt;stroke-linejoin:miter;marker:none;marker-start:none;marker-mid:none;marker-end:none;stroke-miterlimit:4.0000000;stroke-dasharray:none;stroke-dashoffset:0.0000000;stroke-opacity:1.0000000;visibility:visible;display:inline;overflow:visible"
       sodipodi:type="arc" />
    <path
       sodipodi:nodetypes="cc"
       id="path2561"
       d="M 13.042053,8.6010151 L 36.371309,8.6010151"
       style="opacity:0.30285713;fill:none;fill-opacity:0.75000000;fill-rule:evenodd;stroke:#ffffff;stroke-width:1.0000001px;stroke-linecap:round;stroke-linejoin:miter;stroke-opacity:1.0000000" />
    <path
       style="fill:url(#linearGradient3425);fill-opacity:1;fill-rule:evenodd;stroke:#585858;stroke-width:0.95;stroke-linecap:butt;stroke-linejoin:miter;marker:none;marker-start:none;marker-mid:none;marker-end:none;stroke-miterlimit:4;stroke-dasharray:none;stroke-dashoffset:0;stroke-opacity:1;visibility:visible;display:inline;overflow:visible"
       d="M 0.89357747,23.193002 L 2.6404525,26.910189 C 2.6404525,26.910189 1.1373275,28.474252 2.0310775,31.561751 C 2.0310775,31.561751 8.9696086,41.756927 13.446703,45.110189 C 15.261732,46.469613 17.904389,46.564906 20.149828,45.719564 C 20.553179,46.7062 21.517045,47.405501 22.648265,47.405501 C 24.141007,47.405501 25.349828,46.196682 25.349828,44.703939 C 25.349828,43.705668 24.814609,42.816179 24.009203,42.347689 C 24.65591,40.906845 24.685395,39.126128 23.684203,37.107064 C 20.108519,29.896127 11.334203,18.703939 11.334203,18.703939 C 8.3543452,17.881066 3.4611581,19.47062 0.89357747,23.193002 z M 23.33889,43.464877 C 23.777786,43.711142 24.090453,44.167924 24.090453,44.703939 C 24.090452,45.492559 23.436884,46.146127 22.648265,46.146127 C 22.032156,46.146127 21.509699,45.740059 21.30764,45.191439 C 22.101607,44.740502 22.798573,44.163335 23.33889,43.464877 z"
       id="path3329"
       sodipodi:nodetypes="cccscsscssccsscc"
       inkscape:r_cx="true"
       inkscape:r_cy="true" />
    <path
       sodipodi:nodetypes="cccszssc"
       id="path3369"
       d="M 1.6177955,23.242002 L 3.42081,26.951105 C 3.42081,26.951105 1.8004109,28.42419 2.6189589,31.251901 C 2.6189589,31.251901 9.3390705,41.151657 13.419363,44.249408 C 15.995735,46.205386 18.434851,45.993308 21.366286,44.360634 C 24.204244,42.780024 24.342097,39.621984 22.79546,36.757183 C 19.293496,30.270575 10.956488,19.272846 10.956488,19.272846 C 8.2200877,18.777307 3.9693346,20.137517 1.6177955,23.242002 z"
       style="opacity:0.33888890999999999;fill:none;fill-opacity:1;fill-rule:evenodd;stroke:#ffffff;stroke-width:0.65;stroke-linecap:butt;stroke-linejoin:miter;marker:none;marker-start:none;marker-mid:none;marker-end:none;stroke-miterlimit:4;stroke-dasharray:none;stroke-dashoffset:0;stroke-opacity:1;visibility:visible;display:inline;overflow:visible"
       inkscape:r_cx="true"
       inkscape:r_cy="true" />
    <path
       style="fill:url(#linearGradient3421);fill-opacity:1;fill-rule:evenodd;stroke:none;stroke-width:1;stroke-linecap:butt;stroke-linejoin:miter;marker:none;marker-start:none;marker-mid:none;marker-end:none;stroke-miterlimit:4;stroke-dasharray:none;stroke-dashoffset:0;stroke-opacity:1;visibility:visible;display:inline;overflow:visible"
       d="M 14.117015,23.091439 C 11.960903,22.387761 8.1382911,23.182582 4.042015,28.128939 C 4.042015,28.128939 12.440442,32.34666 16.148265,30.891439 C 19.92639,29.408627 14.117015,23.091439 14.117015,23.091439 z"
       id="path3337"
       inkscape:r_cx="true"
       inkscape:r_cy="true"
       sodipodi:nodetypes="cczc" />
    <path
       sodipodi:nodetypes="cczc"
       inkscape:r_cy="true"
       inkscape:r_cx="true"
       id="path3339"
       d="M 12.693095,24.138764 C 11.935622,23.069763 10.025606,24.460509 8.4000376,25.961288 C 8.4000376,25.961288 12.036218,28.655581 13.62635,28.02582 C 15.187114,27.407689 12.693095,24.138764 12.693095,24.138764 z"
       style="fill:url(#linearGradient3418);fill-opacity:1;fill-rule:evenodd;stroke:none;stroke-width:1.00000036;stroke-linecap:butt;stroke-linejoin:miter;marker:none;marker-start:none;marker-mid:none;marker-end:none;stroke-miterlimit:4;stroke-dasharray:none;stroke-dashoffset:0;stroke-opacity:1;visibility:visible;display:inline;overflow:visible" />
    <path
       style="fill:url(#radialGradient3415);fill-opacity:1;fill-rule:evenodd;stroke:none;stroke-width:1;stroke-linecap:butt;stroke-linejoin:miter;marker:none;marker-start:none;marker-mid:none;marker-end:none;stroke-miterlimit:4;stroke-dasharray:none;stroke-dashoffset:0;stroke-opacity:1;visibility:visible;display:inline;overflow:visible"
       d="M 6.5207829,31.724363 L 15.792029,42.79804 C 16.826173,44.176898 21.767082,43.832184 21.767082,43.832184 C 21.767082,43.832184 19.928604,42.79804 18.205032,40.844658 L 12.266026,34.596984 C 10.651252,33.112425 9.1641685,33.732016 6.5207829,31.724363 z"
       id="path3381"
       inkscape:r_cx="true"
       inkscape:r_cy="true"
       sodipodi:nodetypes="cccccc" />
    <path
       style="fill:url(#linearGradient3412);fill-opacity:1;fill-rule:evenodd;stroke:none;stroke-width:1;stroke-linecap:butt;stroke-linejoin:miter;marker:none;marker-start:none;marker-mid:none;marker-end:none;stroke-miterlimit:4;stroke-dasharray:none;stroke-dashoffset:0;stroke-opacity:1;visibility:visible;display:inline;overflow:visible"
       d="M 3.1026512,23.013812 L 4.7113193,25.656624 C 5.4543532,25.051829 6.3450769,24.333545 6.9715086,23.962301 C 6.2256336,22.802111 7.3811126,21.611229 6.549797,20.485905 C 5.0483619,21.158967 4.1059847,21.781711 3.1026512,23.013812 z"
       id="path3391"
       inkscape:r_cx="true"
       inkscape:r_cy="true"
       sodipodi:nodetypes="ccccc" />
    <path
       sodipodi:nodetypes="csc"
       id="path3304"
       d="M 18.60586,25.718049 C 18.675108,24.953278 18.49664,24.164157 18.046363,23.47061 C 17.596085,22.777064 16.947892,22.292907 16.221131,22.044936"
       style="fill:none;fill-opacity:1;fill-rule:evenodd;stroke:url(#radialGradient3409);stroke-width:1.29999995;stroke-linecap:round;stroke-linejoin:round;marker:none;marker-start:none;marker-mid:none;marker-end:none;stroke-miterlimit:4;stroke-dasharray:none;stroke-dashoffset:0;stroke-opacity:1;visibility:visible;display:inline;overflow:visible"
       inkscape:r_cx="true"
       inkscape:r_cy="true" />
    <path
       inkscape:r_cy="true"
       inkscape:r_cx="true"
       style="fill:none;fill-opacity:1;fill-rule:evenodd;stroke:url(#radialGradient3406);stroke-width:1.29999995;stroke-linecap:round;stroke-linejoin:round;marker:none;marker-start:none;marker-mid:none;marker-end:none;stroke-miterlimit:4;stroke-dasharray:none;stroke-dashoffset:0;stroke-opacity:1;visibility:visible;display:inline;overflow:visible"
       d="M 22.500897,26.171476 C 22.615529,24.905499 22.3201,23.599215 21.574724,22.45114 C 20.829349,21.303064 19.756351,20.501608 18.553296,20.091125"
       id="path3908"
       sodipodi:nodetypes="csc" />
    <path
       sodipodi:nodetypes="csc"
       id="path3910"
       d="M 26.264885,28.230391 C 26.692416,26.261224 26.482736,24.14858 25.534341,22.196962 C 24.585944,20.245344 23.054473,18.775029 21.24206,17.894371"
       style="fill:none;fill-opacity:1;fill-rule:evenodd;stroke:url(#radialGradient3403);stroke-width:1.6;stroke-linecap:round;stroke-linejoin:round;marker:none;marker-start:none;marker-mid:none;marker-end:none;stroke-miterlimit:4;stroke-dasharray:none;stroke-dashoffset:0;stroke-opacity:1;visibility:visible;display:inline;overflow:visible"
       inkscape:r_cx="true"
       inkscape:r_cy="true" />
  </g>
</svg>
