<?xml version="1.0" encoding="UTF-8" standalone="no"?>
<!-- Created with Inkscape (http://www.inkscape.org/) -->
<svg
   xmlns:dc="http://purl.org/dc/elements/1.1/"
   xmlns:cc="http://creativecommons.org/ns#"
   xmlns:rdf="http://www.w3.org/1999/02/22-rdf-syntax-ns#"
   xmlns:svg="http://www.w3.org/2000/svg"
   xmlns="http://www.w3.org/2000/svg"
   xmlns:xlink="http://www.w3.org/1999/xlink"
   xmlns:sodipodi="http://sodipodi.sourceforge.net/DTD/sodipodi-0.dtd"
   xmlns:inkscape="http://www.inkscape.org/namespaces/inkscape"
   width="48.000000px"
   height="48.000000px"
   id="svg3077"
   sodipodi:version="0.32"
   inkscape:version="0.46"
   sodipodi:docbase="/home/jimmac/src/cvs/tango-icon-theme/scalable/devices"
   sodipodi:docname="tools-media-optical-copy.svg"
   inkscape:output_extension="org.inkscape.output.svg.inkscape">
  <defs
     id="defs3">
    <inkscape:perspective
       sodipodi:type="inkscape:persp3d"
       inkscape:vp_x="0 : 24 : 1"
       inkscape:vp_y="0 : 1000 : 0"
       inkscape:vp_z="48 : 24 : 1"
       inkscape:persp3d-origin="24 : 16 : 1"
       id="perspective91" />
    <linearGradient
       inkscape:collect="always"
       id="linearGradient23419">
      <stop
         style="stop-color:#000000;stop-opacity:1;"
         offset="0"
         id="stop23421" />
      <stop
         style="stop-color:#000000;stop-opacity:0;"
         offset="1"
         id="stop23423" />
    </linearGradient>
    <linearGradient
       id="linearGradient3435"
       gradientUnits="userSpaceOnUse"
       x1="12.2744"
       y1="32.4165"
       x2="35.3912"
       y2="14.2033">
      <stop
         offset="0.0000000"
         style="stop-color:#ffffc8;stop-opacity:1.0000000;"
         id="stop3437" />
      <stop
         offset="1.0000000"
         style="stop-color:#9a91ef;stop-opacity:0.0000000;"
         id="stop3439" />
    </linearGradient>
    <linearGradient
       y2="14.2033"
       x2="35.3912"
       y1="32.4165"
       x1="12.2744"
       gradientUnits="userSpaceOnUse"
       id="linearGradient3421">
      <stop
         id="stop3423"
         style="stop-color:#ffffff;stop-opacity:1.0000000;"
         offset="0.0000000" />
      <stop
         id="stop3427"
         style="stop-color:#b8c04c;stop-opacity:0.0000000;"
         offset="1.0000000" />
    </linearGradient>
    <linearGradient
       id="linearGradient3406"
       gradientUnits="userSpaceOnUse"
       x1="12.2744"
       y1="32.4165"
       x2="35.3912"
       y2="14.2033">
      <stop
         offset="0.0000000"
         style="stop-color:#b307ff;stop-opacity:0.82178217;"
         id="stop3408" />
      <stop
         offset="1.0000000"
         style="stop-color:#f0ff8b;stop-opacity:0.64356434;"
         id="stop3410" />
      <stop
         offset="1.0000000"
         style="stop-color:#ffffff;stop-opacity:0.0000000;"
         id="stop3412" />
    </linearGradient>
    <linearGradient
       y2="14.2033"
       x2="35.3912"
       y1="32.4165"
       x1="12.2744"
       gradientUnits="userSpaceOnUse"
       id="linearGradient3394">
      <stop
         id="stop3396"
         style="stop-color:#fff307;stop-opacity:1.0000000;"
         offset="0.0000000" />
      <stop
         id="stop3398"
         style="stop-color:#166eff;stop-opacity:1.0000000;"
         offset="0.50000000" />
      <stop
         id="stop3400"
         style="stop-color:#ffffff;stop-opacity:0.0000000;"
         offset="1.0000000" />
    </linearGradient>
    <linearGradient
       inkscape:collect="always"
       id="linearGradient6036">
      <stop
         style="stop-color:#ffffff;stop-opacity:1;"
         offset="0"
         id="stop6038" />
      <stop
         style="stop-color:#ffffff;stop-opacity:0;"
         offset="1"
         id="stop6040" />
    </linearGradient>
    <linearGradient
       inkscape:collect="always"
       id="linearGradient6028">
      <stop
         style="stop-color:#ffffff;stop-opacity:1;"
         offset="0"
         id="stop6030" />
      <stop
         style="stop-color:#ffffff;stop-opacity:0;"
         offset="1"
         id="stop6032" />
    </linearGradient>
    <linearGradient
       id="linearGradient4236">
      <stop
         style="stop-color:#ffffff;stop-opacity:0.32673267;"
         offset="0.0000000"
         id="stop4238" />
      <stop
         style="stop-color:#ffffff;stop-opacity:0.60396039;"
         offset="1.0000000"
         id="stop4240" />
    </linearGradient>
    <linearGradient
       id="aigrd2"
       gradientUnits="userSpaceOnUse"
       x1="12.2744"
       y1="32.4165"
       x2="35.3912"
       y2="14.2033">
      <stop
         offset="0"
         style="stop-color:#FBFBFB"
         id="stop3043" />
      <stop
         offset="0.5"
         style="stop-color:#B6B6B6"
         id="stop3045" />
      <stop
         offset="1"
         style="stop-color:#E4E4E4"
         id="stop3047" />
    </linearGradient>
    <linearGradient
       id="aigrd1"
       gradientUnits="userSpaceOnUse"
       x1="14.9966"
       y1="11.1885"
       x2="32.511"
       y2="34.3075">
      <stop
         offset="0"
         style="stop-color:#EBEBEB"
         id="stop3034" />
      <stop
         offset="0.5"
         style="stop-color:#FFFFFF"
         id="stop3036" />
      <stop
         offset="1"
         style="stop-color:#EBEBEB"
         id="stop3038" />
    </linearGradient>
    <linearGradient
       inkscape:collect="always"
       xlink:href="#aigrd1"
       id="linearGradient3912"
       gradientUnits="userSpaceOnUse"
       x1="14.9966"
       y1="11.1885"
       x2="32.511"
       y2="34.3075"
       gradientTransform="matrix(1.190476,0.000000,0.000000,1.190476,-4.224424,-2.500000)" />
    <linearGradient
       inkscape:collect="always"
       xlink:href="#linearGradient4236"
       id="linearGradient4222"
       x1="21.125000"
       y1="14.625000"
       x2="29.000000"
       y2="28.000000"
       gradientUnits="userSpaceOnUse"
       gradientTransform="matrix(1.250000,0.000000,0.000000,1.250000,-5.652995,-2.604165)" />
    <linearGradient
       inkscape:collect="always"
       xlink:href="#linearGradient4236"
       id="linearGradient4224"
       x1="21.125000"
       y1="14.625000"
       x2="29.000000"
       y2="28.000000"
       gradientUnits="userSpaceOnUse"
       gradientTransform="matrix(1.250000,0.000000,0.000000,1.250000,-5.652995,-2.604165)" />
    <linearGradient
       inkscape:collect="always"
       xlink:href="#aigrd2"
       id="linearGradient4242"
       gradientUnits="userSpaceOnUse"
       gradientTransform="matrix(1.190476,0.000000,0.000000,1.190476,-4.224424,-2.500001)"
       x1="12.2744"
       y1="32.4165"
       x2="35.3912"
       y2="14.2033" />
    <linearGradient
       inkscape:collect="always"
       xlink:href="#linearGradient6028"
       id="linearGradient6034"
       x1="28.702885"
       y1="31.494707"
       x2="17.742729"
       y2="18.366575"
       gradientUnits="userSpaceOnUse" />
    <linearGradient
       inkscape:collect="always"
       xlink:href="#linearGradient6036"
       id="linearGradient6042"
       x1="10.501720"
       y1="3.6100161"
       x2="48.798885"
       y2="54.698483"
       gradientUnits="userSpaceOnUse" />
    <radialGradient
       gradientTransform="matrix(0.848684,0.958020,-0.782119,0.692834,18.69147,-20.52578)"
       gradientUnits="userSpaceOnUse"
       r="21.333334"
       fy="27.569166"
       fx="37.751469"
       cy="27.569166"
       cx="37.751469"
       id="radialGradient3392"
       xlink:href="#linearGradient3394"
       inkscape:collect="always" />
    <radialGradient
       r="21.333334"
       fy="48.238270"
       fx="53.556889"
       cy="48.238270"
       cx="53.556889"
       gradientTransform="matrix(0.158450,-0.158988,0.432907,0.431441,-2.723645,15.00107)"
       gradientUnits="userSpaceOnUse"
       id="radialGradient3429"
       xlink:href="#linearGradient3421"
       inkscape:collect="always" />
    <radialGradient
       r="21.333334"
       fy="33.377594"
       fx="16.885271"
       cy="33.377594"
       cx="16.885271"
       gradientTransform="matrix(5.184267e-3,-0.122860,0.544548,2.297824e-2,0.957234,26.30756)"
       gradientUnits="userSpaceOnUse"
       id="radialGradient3433"
       xlink:href="#linearGradient3435"
       inkscape:collect="always" />
    <radialGradient
       r="21.333334"
       fy="21.618015"
       fx="35.511295"
       cy="21.618015"
       cx="35.511295"
       gradientTransform="matrix(0.105916,-1.914240e-2,0.104789,0.579807,17.13693,7.115158)"
       gradientUnits="userSpaceOnUse"
       id="radialGradient3443"
       xlink:href="#linearGradient3435"
       inkscape:collect="always" />
    <radialGradient
       gradientTransform="matrix(-5.048220e-2,1.387847e-2,-0.128440,-0.467196,35.41257,39.44172)"
       r="21.333334"
       fy="23.914305"
       fx="133.84108"
       cy="23.914305"
       cx="133.84108"
       gradientUnits="userSpaceOnUse"
       id="radialGradient3447"
       xlink:href="#linearGradient3435"
       inkscape:collect="always" />
    <radialGradient
       r="21.333334"
       fy="38.807304"
       fx="26.137741"
       cy="38.807304"
       cx="26.137741"
       gradientTransform="matrix(0.769501,-1.242500,0.670300,0.415141,-21.77857,41.36563)"
       gradientUnits="userSpaceOnUse"
       id="radialGradient3449"
       xlink:href="#linearGradient3406"
       inkscape:collect="always" />
    <linearGradient
       inkscape:collect="always"
       xlink:href="#aigrd1"
       id="linearGradient23343"
       gradientUnits="userSpaceOnUse"
       gradientTransform="matrix(1.190476,0,0,1.190476,-4.224424,-2.5)"
       x1="14.9966"
       y1="11.1885"
       x2="32.511"
       y2="34.3075" />
    <linearGradient
       inkscape:collect="always"
       xlink:href="#aigrd2"
       id="linearGradient23345"
       gradientUnits="userSpaceOnUse"
       gradientTransform="matrix(1.190476,0,0,1.190476,-4.224424,-2.500001)"
       x1="12.2744"
       y1="32.4165"
       x2="35.3912"
       y2="14.2033" />
    <linearGradient
       inkscape:collect="always"
       xlink:href="#linearGradient4236"
       id="linearGradient23347"
       gradientUnits="userSpaceOnUse"
       gradientTransform="matrix(1.25,0,0,1.25,-5.652995,-2.604165)"
       x1="21.125000"
       y1="14.625000"
       x2="29.000000"
       y2="28.000000" />
    <linearGradient
       inkscape:collect="always"
       xlink:href="#linearGradient4236"
       id="linearGradient23349"
       gradientUnits="userSpaceOnUse"
       gradientTransform="matrix(1.25,0,0,1.25,-5.652995,-2.604165)"
       x1="21.125000"
       y1="14.625000"
       x2="29.000000"
       y2="28.000000" />
    <linearGradient
       inkscape:collect="always"
       xlink:href="#linearGradient6036"
       id="linearGradient23351"
       gradientUnits="userSpaceOnUse"
       x1="10.501720"
       y1="3.6100161"
       x2="48.798885"
       y2="54.698483" />
    <linearGradient
       inkscape:collect="always"
       xlink:href="#linearGradient6028"
       id="linearGradient23353"
       gradientUnits="userSpaceOnUse"
       x1="28.702885"
       y1="31.494707"
       x2="17.742729"
       y2="18.366575" />
    <radialGradient
       inkscape:collect="always"
       xlink:href="#linearGradient3394"
       id="radialGradient23355"
       gradientUnits="userSpaceOnUse"
       gradientTransform="matrix(0.848684,0.95802,-0.782119,0.692834,18.69147,-20.52578)"
       cx="37.751469"
       cy="27.569166"
       fx="37.751469"
       fy="27.569166"
       r="21.333334" />
    <radialGradient
       inkscape:collect="always"
       xlink:href="#linearGradient3406"
       id="radialGradient23357"
       gradientUnits="userSpaceOnUse"
       gradientTransform="matrix(0.769501,-1.2425,0.6703,0.415141,-21.77857,41.36563)"
       cx="26.137741"
       cy="38.807304"
       fx="26.137741"
       fy="38.807304"
       r="21.333334" />
    <radialGradient
       inkscape:collect="always"
       xlink:href="#linearGradient3421"
       id="radialGradient23359"
       gradientUnits="userSpaceOnUse"
       gradientTransform="matrix(0.15845,-0.158988,0.432907,0.431441,-2.723645,15.00107)"
       cx="53.556889"
       cy="48.238270"
       fx="53.556889"
       fy="48.238270"
       r="21.333334" />
    <radialGradient
       inkscape:collect="always"
       xlink:href="#linearGradient3435"
       id="radialGradient23361"
       gradientUnits="userSpaceOnUse"
       gradientTransform="matrix(5.184267e-3,-0.12286,0.544548,2.297824e-2,0.957234,26.30756)"
       cx="16.885271"
       cy="33.377594"
       fx="16.885271"
       fy="33.377594"
       r="21.333334" />
    <radialGradient
       inkscape:collect="always"
       xlink:href="#linearGradient3435"
       id="radialGradient23363"
       gradientUnits="userSpaceOnUse"
       gradientTransform="matrix(0.105916,-1.91424e-2,0.104789,0.579807,17.13693,7.115158)"
       cx="35.511295"
       cy="21.618015"
       fx="35.511295"
       fy="21.618015"
       r="21.333334" />
    <radialGradient
       inkscape:collect="always"
       xlink:href="#linearGradient3435"
       id="radialGradient23365"
       gradientUnits="userSpaceOnUse"
       gradientTransform="matrix(-5.04822e-2,1.387847e-2,-0.12844,-0.467196,35.41257,39.44172)"
       cx="133.84108"
       cy="23.914305"
       fx="133.84108"
       fy="23.914305"
       r="21.333334" />
    <radialGradient
       inkscape:collect="always"
       xlink:href="#linearGradient3435"
       id="radialGradient23368"
       gradientUnits="userSpaceOnUse"
       gradientTransform="matrix(-3.028932e-2,8.327082e-3,-7.7064e-2,-0.2803176,40.481352,42.656942)"
       cx="133.84108"
       cy="23.914305"
       fx="133.84108"
       fy="23.914305"
       r="21.333334" />
    <radialGradient
       inkscape:collect="always"
       xlink:href="#linearGradient3435"
       id="radialGradient23371"
       gradientUnits="userSpaceOnUse"
       gradientTransform="matrix(6.35496e-2,-1.148544e-2,6.28734e-2,0.3478842,29.515968,23.261004)"
       cx="35.511295"
       cy="21.618015"
       fx="35.511295"
       fy="21.618015"
       r="21.333334" />
    <radialGradient
       inkscape:collect="always"
       xlink:href="#linearGradient3435"
       id="radialGradient23374"
       gradientUnits="userSpaceOnUse"
       gradientTransform="matrix(3.1105602e-3,-7.3716e-2,0.3267288,1.3786944e-2,19.80815,34.776446)"
       cx="16.885271"
       cy="33.377594"
       fx="16.885271"
       fy="33.377594"
       r="21.333334" />
    <radialGradient
       inkscape:collect="always"
       xlink:href="#linearGradient3421"
       id="radialGradient23377"
       gradientUnits="userSpaceOnUse"
       gradientTransform="matrix(9.507e-2,-9.53928e-2,0.2597442,0.2588646,17.599623,27.992552)"
       cx="53.556889"
       cy="48.238270"
       fx="53.556889"
       fy="48.238270"
       r="21.333334" />
    <radialGradient
       inkscape:collect="always"
       xlink:href="#linearGradient3406"
       id="radialGradient23380"
       gradientUnits="userSpaceOnUse"
       gradientTransform="matrix(0.4617006,-0.7455,0.40218,0.2490846,6.1666677,43.811288)"
       cx="26.137741"
       cy="38.807304"
       fx="26.137741"
       fy="38.807304"
       r="21.333334" />
    <radialGradient
       inkscape:collect="always"
       xlink:href="#linearGradient3394"
       id="radialGradient23383"
       gradientUnits="userSpaceOnUse"
       gradientTransform="matrix(0.5092104,0.574812,-0.4692714,0.4157004,30.448692,6.6764415)"
       cx="37.751469"
       cy="27.569166"
       fx="37.751469"
       fy="27.569166"
       r="21.333334" />
    <linearGradient
       inkscape:collect="always"
       xlink:href="#linearGradient6036"
       id="linearGradient23387"
       gradientUnits="userSpaceOnUse"
       x1="10.501720"
       y1="3.6100161"
       x2="48.798885"
       y2="54.698483"
       gradientTransform="matrix(0.6,0,0,0.6,19.23381,18.99191)" />
    <linearGradient
       inkscape:collect="always"
       xlink:href="#linearGradient4236"
       id="linearGradient23390"
       gradientUnits="userSpaceOnUse"
       gradientTransform="matrix(0.75,0,0,0.75,15.842013,17.429411)"
       x1="21.125000"
       y1="14.625000"
       x2="29.000000"
       y2="28.000000" />
    <linearGradient
       inkscape:collect="always"
       xlink:href="#linearGradient4236"
       id="linearGradient23393"
       gradientUnits="userSpaceOnUse"
       gradientTransform="matrix(0.75,0,0,0.75,15.842013,17.429411)"
       x1="21.125000"
       y1="14.625000"
       x2="29.000000"
       y2="28.000000" />
    <linearGradient
       inkscape:collect="always"
       xlink:href="#aigrd2"
       id="linearGradient23397"
       gradientUnits="userSpaceOnUse"
       gradientTransform="matrix(0.7142856,0,0,0.7142856,16.699155,17.491909)"
       x1="12.2744"
       y1="32.4165"
       x2="35.3912"
       y2="14.2033" />
    <linearGradient
       inkscape:collect="always"
       xlink:href="#aigrd1"
       id="linearGradient23400"
       gradientUnits="userSpaceOnUse"
       gradientTransform="matrix(0.7142856,0,0,0.7142856,16.699155,17.49191)"
       x1="14.9966"
       y1="11.1885"
       x2="32.511"
       y2="34.3075" />
    <radialGradient
       inkscape:collect="always"
       xlink:href="#linearGradient23419"
       id="radialGradient23425"
       cx="23.334524"
       cy="41.63604"
       fx="23.334524"
       fy="41.63604"
       r="22.627417"
       gradientTransform="matrix(1,0,0,0.25,0,31.22703)"
       gradientUnits="userSpaceOnUse" />
    <radialGradient
       inkscape:collect="always"
       xlink:href="#linearGradient23419"
       id="radialGradient2492"
       gradientUnits="userSpaceOnUse"
       gradientTransform="matrix(1,0,0,0.25,0,31.22703)"
       cx="23.334524"
       cy="41.63604"
       fx="23.334524"
       fy="41.63604"
       r="22.627417" />
    <linearGradient
       inkscape:collect="always"
       xlink:href="#aigrd1"
       id="linearGradient2494"
       gradientUnits="userSpaceOnUse"
       gradientTransform="matrix(0.7142856,0,0,0.7142856,-3.135369,-2.1128637)"
       x1="14.9966"
       y1="11.1885"
       x2="32.511"
       y2="34.3075" />
    <linearGradient
       inkscape:collect="always"
       xlink:href="#aigrd2"
       id="linearGradient2496"
       gradientUnits="userSpaceOnUse"
       gradientTransform="matrix(0.7142856,0,0,0.7142856,-3.135369,-2.1128647)"
       x1="12.2744"
       y1="32.4165"
       x2="35.3912"
       y2="14.2033" />
    <linearGradient
       inkscape:collect="always"
       xlink:href="#linearGradient4236"
       id="linearGradient2498"
       gradientUnits="userSpaceOnUse"
       gradientTransform="matrix(0.75,0,0,0.75,-3.992511,-2.1753627)"
       x1="21.125000"
       y1="14.625000"
       x2="29.000000"
       y2="28.000000" />
    <linearGradient
       inkscape:collect="always"
       xlink:href="#linearGradient4236"
       id="linearGradient2500"
       gradientUnits="userSpaceOnUse"
       gradientTransform="matrix(0.75,0,0,0.75,-3.992511,-2.1753627)"
       x1="21.125000"
       y1="14.625000"
       x2="29.000000"
       y2="28.000000" />
    <linearGradient
       inkscape:collect="always"
       xlink:href="#linearGradient6036"
       id="linearGradient2502"
       gradientUnits="userSpaceOnUse"
       gradientTransform="matrix(0.6,0,0,0.6,-0.600714,-0.6128637)"
       x1="10.501720"
       y1="3.6100161"
       x2="48.798885"
       y2="54.698483" />
    <linearGradient
       inkscape:collect="always"
       xlink:href="#linearGradient6028"
       id="linearGradient2504"
       gradientUnits="userSpaceOnUse"
       x1="28.702885"
       y1="31.494707"
       x2="17.742729"
       y2="18.366575" />
    <radialGradient
       inkscape:collect="always"
       xlink:href="#linearGradient3394"
       id="radialGradient2506"
       gradientUnits="userSpaceOnUse"
       gradientTransform="matrix(0.5092104,0.574812,-0.4692714,0.4157004,10.614168,-12.928332)"
       cx="37.751469"
       cy="27.569166"
       fx="37.751469"
       fy="27.569166"
       r="21.333334" />
    <radialGradient
       inkscape:collect="always"
       xlink:href="#linearGradient3406"
       id="radialGradient2508"
       gradientUnits="userSpaceOnUse"
       gradientTransform="matrix(0.4617006,-0.7455,0.40218,0.2490846,-13.667857,24.206514)"
       cx="26.137741"
       cy="38.807304"
       fx="26.137741"
       fy="38.807304"
       r="21.333334" />
    <radialGradient
       inkscape:collect="always"
       xlink:href="#linearGradient3421"
       id="radialGradient2510"
       gradientUnits="userSpaceOnUse"
       gradientTransform="matrix(9.507e-2,-9.53928e-2,0.2597442,0.2588646,-2.234901,8.387778)"
       cx="53.556889"
       cy="48.238270"
       fx="53.556889"
       fy="48.238270"
       r="21.333334" />
    <radialGradient
       inkscape:collect="always"
       xlink:href="#linearGradient3435"
       id="radialGradient2512"
       gradientUnits="userSpaceOnUse"
       gradientTransform="matrix(3.1105602e-3,-7.3716e-2,0.3267288,1.3786944e-2,-2.6374047e-2,15.171672)"
       cx="16.885271"
       cy="33.377594"
       fx="16.885271"
       fy="33.377594"
       r="21.333334" />
    <radialGradient
       inkscape:collect="always"
       xlink:href="#linearGradient3435"
       id="radialGradient2514"
       gradientUnits="userSpaceOnUse"
       gradientTransform="matrix(6.35496e-2,-1.148544e-2,6.28734e-2,0.3478842,9.681444,3.6562303)"
       cx="35.511295"
       cy="21.618015"
       fx="35.511295"
       fy="21.618015"
       r="21.333334" />
    <radialGradient
       inkscape:collect="always"
       xlink:href="#linearGradient3435"
       id="radialGradient2516"
       gradientUnits="userSpaceOnUse"
       gradientTransform="matrix(-3.028932e-2,8.327082e-3,-7.7064e-2,-0.2803176,20.646828,23.052168)"
       cx="133.84108"
       cy="23.914305"
       fx="133.84108"
       fy="23.914305"
       r="21.333334" />
  </defs>
  <sodipodi:namedview
     id="base"
     pagecolor="#ffffff"
     bordercolor="#666666"
     borderopacity="0.25490196"
     inkscape:pageopacity="0.0"
     inkscape:pageshadow="2"
     inkscape:zoom="8"
     inkscape:cx="9.609421"
     inkscape:cy="23.431344"
     inkscape:current-layer="layer2"
     showgrid="false"
     inkscape:grid-bbox="true"
     inkscape:document-units="px"
     inkscape:window-width="872"
     inkscape:window-height="804"
     inkscape:window-x="372"
     inkscape:window-y="21"
     inkscape:showpageshadow="false" />
  <metadata
     id="metadata4">
    <rdf:RDF>
      <cc:Work
         rdf:about="">
        <dc:format>image/svg+xml</dc:format>
        <dc:type
           rdf:resource="http://purl.org/dc/dcmitype/StillImage" />
        <dc:title>Media CD-ROM</dc:title>
        <dc:creator>
          <cc:Agent>
            <dc:title>Jakub Steiner</dc:title>
          </cc:Agent>
        </dc:creator>
        <dc:source>http://jimmac.musichall.cz</dc:source>
        <dc:subject>
          <rdf:Bag>
            <rdf:li>cdrom</rdf:li>
            <rdf:li>media</rdf:li>
            <rdf:li>removable</rdf:li>
            <rdf:li>cd</rdf:li>
            <rdf:li>audio</rdf:li>
          </rdf:Bag>
        </dc:subject>
        <cc:license
           rdf:resource="http://creativecommons.org/licenses/by-sa/2.0/" />
      </cc:Work>
      <cc:License
         rdf:about="http://creativecommons.org/licenses/by-sa/2.0/">
        <cc:permits
           rdf:resource="http://web.resource.org/cc/Reproduction" />
        <cc:permits
           rdf:resource="http://web.resource.org/cc/Distribution" />
        <cc:requires
           rdf:resource="http://web.resource.org/cc/Notice" />
        <cc:requires
           rdf:resource="http://web.resource.org/cc/Attribution" />
        <cc:permits
           rdf:resource="http://web.resource.org/cc/DerivativeWorks" />
        <cc:requires
           rdf:resource="http://web.resource.org/cc/ShareAlike" />
      </cc:License>
    </rdf:RDF>
  </metadata>
  <g
     id="layer1"
     inkscape:label="Layer 1"
     inkscape:groupmode="layer">
    <path
       sodipodi:type="arc"
       style="opacity:0.55;fill:url(#radialGradient23425);fill-opacity:1;fill-rule:evenodd;stroke:none;stroke-width:2;stroke-linecap:butt;stroke-linejoin:miter;marker:none;marker-start:none;marker-mid:none;marker-end:none;stroke-miterlimit:4;stroke-dasharray:none;stroke-dashoffset:0;stroke-opacity:1;visibility:visible;display:inline;overflow:visible"
       id="path23417"
       sodipodi:cx="23.334524"
       sodipodi:cy="41.63604"
       sodipodi:rx="22.627417"
       sodipodi:ry="5.6568542"
       d="M 45.961941,41.63604 A 22.627417,5.6568542 0 1 1 0.70710754,41.63604 A 22.627417,5.6568542 0 1 1 45.961941,41.63604 z"
       inkscape:r_cx="true"
       inkscape:r_cy="true"
       transform="matrix(0.6,0,0,0.6397746,19.83381,17.260846)" />
    <path
       inkscape:r_cy="true"
       inkscape:r_cx="true"
       id="path3040"
       d="M 33.842013,21.49191 C 26.913441,21.49191 21.342013,27.063338 21.342013,33.99191 C 21.342013,40.920482 26.913441,46.491911 33.842013,46.491911 C 40.770585,46.491911 46.342014,40.920482 46.342014,33.99191 C 46.342014,27.063338 40.770585,21.49191 33.842013,21.49191 L 33.842013,21.49191 z M 33.842013,36.99191 C 32.199156,36.99191 30.842013,35.634767 30.842013,33.99191 C 30.842013,32.349053 32.199156,30.99191 33.842013,30.99191 C 35.48487,30.99191 36.842013,32.349053 36.842013,33.99191 C 36.842013,35.634767 35.48487,36.99191 33.842013,36.99191 z"
       style="fill:url(#linearGradient23400);fill-rule:nonzero;stroke:none;stroke-miterlimit:4" />
    <path
       inkscape:r_cy="true"
       inkscape:r_cx="true"
       id="path3049"
       d="M 33.842013,21.491909 C 26.913441,21.491909 21.342013,27.063338 21.342013,33.99191 C 21.342013,40.920482 26.913441,46.491911 33.842013,46.491911 C 40.770585,46.491911 46.342014,40.920482 46.342014,33.99191 C 46.342014,27.063338 40.770585,21.491909 33.842013,21.491909 L 33.842013,21.491909 z M 33.842013,36.99191 C 32.199156,36.99191 30.842013,35.634767 30.842013,33.99191 C 30.842013,32.349053 32.199156,30.99191 33.842013,30.99191 C 35.48487,30.99191 36.842013,32.349053 36.842013,33.99191 C 36.842013,35.634767 35.48487,36.99191 33.842013,36.99191 z"
       style="fill:url(#linearGradient23397);fill-rule:nonzero;stroke:#808080;stroke-width:0.60000002;stroke-miterlimit:4;stroke-opacity:1" />
    <path
       inkscape:r_cy="true"
       inkscape:r_cx="true"
       id="path3051"
       d="M 33.842013,27.929411 C 30.456462,27.929411 27.779514,30.685092 27.779514,33.99191 C 27.779514,37.377462 30.535196,40.054409 33.842013,40.054409 C 37.227565,40.054409 39.904513,37.298728 39.904513,33.99191 C 39.904513,30.606358 37.14883,27.929411 33.842013,27.929411 L 33.842013,27.929411 z M 33.842013,37.298728 C 32.031137,37.298728 30.535196,35.802787 30.535196,33.99191 C 30.535196,32.181033 32.031137,30.685092 33.842013,30.685092 C 35.652889,30.685092 37.14883,32.181033 37.14883,33.99191 C 37.14883,35.802787 35.652889,37.298728 33.842013,37.298728 z"
       style="opacity:0.10999995;fill-rule:nonzero;stroke:none;stroke-miterlimit:4" />
    <path
       inkscape:r_cy="true"
       inkscape:r_cx="true"
       style="fill:url(#linearGradient23393);fill-opacity:1;fill-rule:nonzero;stroke:none;stroke-miterlimit:4;stroke-opacity:1"
       d="M 37.187076,22.39345 L 35.02912,30.790247 C 35.703943,30.969957 36.243606,31.387529 36.610197,31.965372 L 44.045529,27.435801 C 42.52438,24.957972 40.083003,23.134961 37.187076,22.39345 z"
       id="path3916" />
    <path
       inkscape:r_cy="true"
       inkscape:r_cx="true"
       id="path4214"
       d="M 29.618504,45.251544 L 32.459657,37.060644 C 31.801899,36.826049 31.298402,36.365513 30.980571,35.75948 L 23.197935,39.662269 C 24.510169,42.256796 26.793363,44.274399 29.618504,45.251544 z"
       style="fill:url(#linearGradient23390);fill-opacity:1;fill-rule:nonzero;stroke:none;stroke-miterlimit:4;stroke-opacity:1" />
    <path
       inkscape:r_cy="true"
       inkscape:r_cx="true"
       style="opacity:0.54644811;fill:none;fill-rule:nonzero;stroke:url(#linearGradient23387);stroke-width:0.60000002;stroke-miterlimit:4;stroke-opacity:1"
       d="M 33.842011,22.113329 C 27.257884,22.113329 21.963432,27.407782 21.963432,33.991908 C 21.963432,40.576034 27.257884,45.870486 33.842011,45.870486 C 40.426137,45.870486 45.720589,40.576034 45.720589,33.991908 C 45.720589,27.407782 40.426137,22.113329 33.842011,22.113329 L 33.842011,22.113329 z"
       id="path5264"
       sodipodi:nodetypes="cccccc" />
    <path
       inkscape:r_cy="true"
       inkscape:r_cx="true"
       sodipodi:type="arc"
       style="opacity:0.67213111;fill:none;fill-opacity:0.31638417;fill-rule:nonzero;stroke:url(#linearGradient23353);stroke-width:0.93053865;stroke-linecap:butt;stroke-linejoin:miter;marker:none;marker-start:none;marker-mid:none;marker-end:none;stroke-miterlimit:4;stroke-dashoffset:0;stroke-opacity:1;visibility:visible;display:inline;overflow:visible"
       id="path6026"
       sodipodi:cx="24.306795"
       sodipodi:cy="24.930641"
       sodipodi:rx="6.0987959"
       sodipodi:ry="6.0987959"
       d="M 30.405591,24.930641 A 6.0987959,6.0987959 0 1 1 18.207999,24.930641 A 6.0987959,6.0987959 0 1 1 30.405591,24.930641 z"
       transform="matrix(0.6,0,0,0.6,19.286843,19.044943)" />
    <path
       inkscape:r_cy="true"
       inkscape:r_cx="true"
       style="opacity:0.1142857;fill:url(#radialGradient23383);fill-opacity:1;fill-rule:nonzero;stroke:none;stroke-miterlimit:4;stroke-opacity:1"
       d="M 33.842013,21.491909 C 26.913441,21.491909 21.342013,27.063338 21.342013,33.99191 C 21.342013,40.920482 26.913441,46.491911 33.842013,46.491911 C 40.770585,46.491911 46.342014,40.920482 46.342014,33.99191 C 46.342014,27.063338 40.770585,21.491909 33.842013,21.491909 L 33.842013,21.491909 z M 33.842013,36.99191 C 32.199156,36.99191 30.842013,35.634767 30.842013,33.99191 C 30.842013,32.349053 32.199156,30.99191 33.842013,30.99191 C 35.48487,30.99191 36.842013,32.349053 36.842013,33.99191 C 36.842013,35.634767 35.48487,36.99191 33.842013,36.99191 z"
       id="path3390" />
    <path
       inkscape:r_cy="true"
       inkscape:r_cx="true"
       id="path3404"
       d="M 33.842013,21.491909 C 26.913441,21.491909 21.342013,27.063338 21.342013,33.99191 C 21.342013,40.920482 26.913441,46.491911 33.842013,46.491911 C 40.770585,46.491911 46.342014,40.920482 46.342014,33.99191 C 46.342014,27.063338 40.770585,21.491909 33.842013,21.491909 L 33.842013,21.491909 z M 33.842013,36.99191 C 32.199156,36.99191 30.842013,35.634767 30.842013,33.99191 C 30.842013,32.349053 32.199156,30.99191 33.842013,30.99191 C 35.48487,30.99191 36.842013,32.349053 36.842013,33.99191 C 36.842013,35.634767 35.48487,36.99191 33.842013,36.99191 z"
       style="opacity:0.09714284;fill:url(#radialGradient23380);fill-opacity:1;fill-rule:nonzero;stroke:none;stroke-miterlimit:4;stroke-opacity:1" />
    <path
       inkscape:r_cy="true"
       inkscape:r_cx="true"
       style="opacity:0.71428576;fill:url(#radialGradient23377);fill-opacity:1;fill-rule:nonzero;stroke:none;stroke-miterlimit:4;stroke-opacity:1"
       d="M 33.842013,21.491909 C 26.913441,21.491909 21.342013,27.063338 21.342013,33.99191 C 21.342013,40.920482 26.913441,46.491911 33.842013,46.491911 C 40.770585,46.491911 46.342014,40.920482 46.342014,33.99191 C 46.342014,27.063338 40.770585,21.491909 33.842013,21.491909 L 33.842013,21.491909 z M 33.842013,36.99191 C 32.199156,36.99191 30.842013,35.634767 30.842013,33.99191 C 30.842013,32.349053 32.199156,30.99191 33.842013,30.99191 C 35.48487,30.99191 36.842013,32.349053 36.842013,33.99191 C 36.842013,35.634767 35.48487,36.99191 33.842013,36.99191 z"
       id="path3419" />
    <path
       inkscape:r_cy="true"
       inkscape:r_cx="true"
       id="path3431"
       d="M 33.842013,21.491909 C 26.913441,21.491909 21.342013,27.063338 21.342013,33.99191 C 21.342013,40.920482 26.913441,46.491911 33.842013,46.491911 C 40.770585,46.491911 46.342014,40.920482 46.342014,33.99191 C 46.342014,27.063338 40.770585,21.491909 33.842013,21.491909 L 33.842013,21.491909 z M 33.842013,36.99191 C 32.199156,36.99191 30.842013,35.634767 30.842013,33.99191 C 30.842013,32.349053 32.199156,30.99191 33.842013,30.99191 C 35.48487,30.99191 36.842013,32.349053 36.842013,33.99191 C 36.842013,35.634767 35.48487,36.99191 33.842013,36.99191 z"
       style="opacity:0.62285713;fill:url(#radialGradient23374);fill-opacity:1;fill-rule:nonzero;stroke:none;stroke-miterlimit:4;stroke-opacity:1" />
    <path
       inkscape:r_cy="true"
       inkscape:r_cx="true"
       style="opacity:0.37142861;fill:url(#radialGradient23371);fill-opacity:1;fill-rule:nonzero;stroke:none;stroke-miterlimit:4;stroke-opacity:1"
       d="M 33.842013,21.491909 C 26.913441,21.491909 21.342013,27.063338 21.342013,33.99191 C 21.342013,40.920482 26.913441,46.491911 33.842013,46.491911 C 40.770585,46.491911 46.342014,40.920482 46.342014,33.99191 C 46.342014,27.063338 40.770585,21.491909 33.842013,21.491909 L 33.842013,21.491909 z M 33.842013,36.99191 C 32.199156,36.99191 30.842013,35.634767 30.842013,33.99191 C 30.842013,32.349053 32.199156,30.99191 33.842013,30.99191 C 35.48487,30.99191 36.842013,32.349053 36.842013,33.99191 C 36.842013,35.634767 35.48487,36.99191 33.842013,36.99191 z"
       id="path3441" />
    <path
       inkscape:r_cy="true"
       inkscape:r_cx="true"
       id="path3445"
       d="M 33.842013,21.491909 C 26.913441,21.491909 21.342013,27.063338 21.342013,33.99191 C 21.342013,40.920482 26.913441,46.491911 33.842013,46.491911 C 40.770585,46.491911 46.342014,40.920482 46.342014,33.99191 C 46.342014,27.063338 40.770585,21.491909 33.842013,21.491909 L 33.842013,21.491909 z M 33.842013,36.99191 C 32.199156,36.99191 30.842013,35.634767 30.842013,33.99191 C 30.842013,32.349053 32.199156,30.99191 33.842013,30.99191 C 35.48487,30.99191 36.842013,32.349053 36.842013,33.99191 C 36.842013,35.634767 35.48487,36.99191 33.842013,36.99191 z"
       style="opacity:0.23428572;fill:url(#radialGradient23368);fill-opacity:1;fill-rule:nonzero;stroke:none;stroke-miterlimit:4;stroke-opacity:1" />
  </g>
  <g
     inkscape:groupmode="layer"
     id="layer2"
     inkscape:label="Layer 2"
     style="opacity:0.75">
    <g
       id="g2518">
      <path
         style="fill:url(#linearGradient2494);fill-rule:nonzero;stroke:none;stroke-miterlimit:4"
         d="M 14.007489,1.8871363 C 7.078917,1.8871363 1.507489,7.4585643 1.507489,14.387136 C 1.507489,21.315708 7.078917,26.887137 14.007489,26.887137 C 20.936061,26.887137 26.50749,21.315708 26.50749,14.387136 C 26.50749,7.4585643 20.936061,1.8871363 14.007489,1.8871363 L 14.007489,1.8871363 z M 14.007489,17.387136 C 12.364632,17.387136 11.007489,16.029993 11.007489,14.387136 C 11.007489,12.744279 12.364632,11.387136 14.007489,11.387136 C 15.650346,11.387136 17.007489,12.744279 17.007489,14.387136 C 17.007489,16.029993 15.650346,17.387136 14.007489,17.387136 z"
         id="path2466"
         inkscape:r_cx="true"
         inkscape:r_cy="true" />
      <path
         style="fill:url(#linearGradient2496);fill-rule:nonzero;stroke:#808080;stroke-width:0.60000002;stroke-miterlimit:4;stroke-opacity:1"
         d="M 14.007489,1.8871353 C 7.078917,1.8871353 1.507489,7.4585643 1.507489,14.387136 C 1.507489,21.315708 7.078917,26.887137 14.007489,26.887137 C 20.936061,26.887137 26.50749,21.315708 26.50749,14.387136 C 26.50749,7.4585643 20.936061,1.8871353 14.007489,1.8871353 L 14.007489,1.8871353 z M 14.007489,17.387136 C 12.364632,17.387136 11.007489,16.029993 11.007489,14.387136 C 11.007489,12.744279 12.364632,11.387136 14.007489,11.387136 C 15.650346,11.387136 17.007489,12.744279 17.007489,14.387136 C 17.007489,16.029993 15.650346,17.387136 14.007489,17.387136 z"
         id="path2468"
         inkscape:r_cx="true"
         inkscape:r_cy="true" />
      <path
         style="opacity:0.10999995;fill-rule:nonzero;stroke:none;stroke-miterlimit:4"
         d="M 14.007489,8.324637 C 10.621938,8.324637 7.94499,11.080318 7.94499,14.387136 C 7.94499,17.772688 10.700672,20.449635 14.007489,20.449635 C 17.393041,20.449635 20.069989,17.693954 20.069989,14.387136 C 20.069989,11.001584 17.314306,8.324637 14.007489,8.324637 L 14.007489,8.324637 z M 14.007489,17.693954 C 12.196613,17.693954 10.700672,16.198013 10.700672,14.387136 C 10.700672,12.576259 12.196613,11.080318 14.007489,11.080318 C 15.818365,11.080318 17.314306,12.576259 17.314306,14.387136 C 17.314306,16.198013 15.818365,17.693954 14.007489,17.693954 z"
         id="path2470"
         inkscape:r_cx="true"
         inkscape:r_cy="true" />
      <path
         id="path2472"
         d="M 17.352552,2.7886763 L 15.194596,11.185473 C 15.869419,11.365183 16.409082,11.782755 16.775673,12.360598 L 24.211005,7.831027 C 22.689856,5.3531983 20.248479,3.5301873 17.352552,2.7886763 z"
         style="fill:url(#linearGradient2498);fill-opacity:1;fill-rule:nonzero;stroke:none;stroke-miterlimit:4;stroke-opacity:1"
         inkscape:r_cx="true"
         inkscape:r_cy="true" />
      <path
         style="fill:url(#linearGradient2500);fill-opacity:1;fill-rule:nonzero;stroke:none;stroke-miterlimit:4;stroke-opacity:1"
         d="M 9.78398,25.64677 L 12.625133,17.45587 C 11.967375,17.221275 11.463878,16.760739 11.146047,16.154706 L 3.363411,20.057495 C 4.675645,22.652022 6.958839,24.669625 9.78398,25.64677 z"
         id="path2474"
         inkscape:r_cx="true"
         inkscape:r_cy="true" />
      <path
         sodipodi:nodetypes="cccccc"
         id="path2476"
         d="M 14.007487,2.5085553 C 7.42336,2.5085553 2.128908,7.803008 2.128908,14.387134 C 2.128908,20.97126 7.42336,26.265712 14.007487,26.265712 C 20.591613,26.265712 25.886065,20.97126 25.886065,14.387134 C 25.886065,7.803008 20.591613,2.5085553 14.007487,2.5085553 L 14.007487,2.5085553 z"
         style="opacity:0.54644811;fill:none;fill-rule:nonzero;stroke:url(#linearGradient2502);stroke-width:0.60000002;stroke-miterlimit:4;stroke-opacity:1"
         inkscape:r_cx="true"
         inkscape:r_cy="true" />
      <path
         transform="matrix(0.6,0,0,0.6,-0.547681,-0.5598307)"
         d="M 30.405591,24.930641 A 6.0987959,6.0987959 0 1 1 18.207999,24.930641 A 6.0987959,6.0987959 0 1 1 30.405591,24.930641 z"
         sodipodi:ry="6.0987959"
         sodipodi:rx="6.0987959"
         sodipodi:cy="24.930641"
         sodipodi:cx="24.306795"
         id="path2478"
         style="opacity:0.67213111;fill:none;fill-opacity:0.31638417;fill-rule:nonzero;stroke:url(#linearGradient2504);stroke-width:0.93053865;stroke-linecap:butt;stroke-linejoin:miter;marker:none;marker-start:none;marker-mid:none;marker-end:none;stroke-miterlimit:4;stroke-dashoffset:0;stroke-opacity:1;visibility:visible;display:inline;overflow:visible"
         sodipodi:type="arc"
         inkscape:r_cx="true"
         inkscape:r_cy="true" />
      <path
         id="path2480"
         d="M 14.007489,1.8871353 C 7.078917,1.8871353 1.507489,7.4585643 1.507489,14.387136 C 1.507489,21.315708 7.078917,26.887137 14.007489,26.887137 C 20.936061,26.887137 26.50749,21.315708 26.50749,14.387136 C 26.50749,7.4585643 20.936061,1.8871353 14.007489,1.8871353 L 14.007489,1.8871353 z M 14.007489,17.387136 C 12.364632,17.387136 11.007489,16.029993 11.007489,14.387136 C 11.007489,12.744279 12.364632,11.387136 14.007489,11.387136 C 15.650346,11.387136 17.007489,12.744279 17.007489,14.387136 C 17.007489,16.029993 15.650346,17.387136 14.007489,17.387136 z"
         style="opacity:0.1142857;fill:url(#radialGradient2506);fill-opacity:1;fill-rule:nonzero;stroke:none;stroke-miterlimit:4;stroke-opacity:1"
         inkscape:r_cx="true"
         inkscape:r_cy="true" />
      <path
         style="opacity:0.09714284;fill:url(#radialGradient2508);fill-opacity:1;fill-rule:nonzero;stroke:none;stroke-miterlimit:4;stroke-opacity:1"
         d="M 14.007489,1.8871353 C 7.078917,1.8871353 1.507489,7.4585643 1.507489,14.387136 C 1.507489,21.315708 7.078917,26.887137 14.007489,26.887137 C 20.936061,26.887137 26.50749,21.315708 26.50749,14.387136 C 26.50749,7.4585643 20.936061,1.8871353 14.007489,1.8871353 L 14.007489,1.8871353 z M 14.007489,17.387136 C 12.364632,17.387136 11.007489,16.029993 11.007489,14.387136 C 11.007489,12.744279 12.364632,11.387136 14.007489,11.387136 C 15.650346,11.387136 17.007489,12.744279 17.007489,14.387136 C 17.007489,16.029993 15.650346,17.387136 14.007489,17.387136 z"
         id="path2482"
         inkscape:r_cx="true"
         inkscape:r_cy="true" />
      <path
         id="path2484"
         d="M 14.007489,1.8871353 C 7.078917,1.8871353 1.507489,7.4585643 1.507489,14.387136 C 1.507489,21.315708 7.078917,26.887137 14.007489,26.887137 C 20.936061,26.887137 26.50749,21.315708 26.50749,14.387136 C 26.50749,7.4585643 20.936061,1.8871353 14.007489,1.8871353 L 14.007489,1.8871353 z M 14.007489,17.387136 C 12.364632,17.387136 11.007489,16.029993 11.007489,14.387136 C 11.007489,12.744279 12.364632,11.387136 14.007489,11.387136 C 15.650346,11.387136 17.007489,12.744279 17.007489,14.387136 C 17.007489,16.029993 15.650346,17.387136 14.007489,17.387136 z"
         style="opacity:0.71428576;fill:url(#radialGradient2510);fill-opacity:1;fill-rule:nonzero;stroke:none;stroke-miterlimit:4;stroke-opacity:1"
         inkscape:r_cx="true"
         inkscape:r_cy="true" />
      <path
         style="opacity:0.62285713;fill:url(#radialGradient2512);fill-opacity:1;fill-rule:nonzero;stroke:none;stroke-miterlimit:4;stroke-opacity:1"
         d="M 14.007489,1.8871353 C 7.078917,1.8871353 1.507489,7.4585643 1.507489,14.387136 C 1.507489,21.315708 7.078917,26.887137 14.007489,26.887137 C 20.936061,26.887137 26.50749,21.315708 26.50749,14.387136 C 26.50749,7.4585643 20.936061,1.8871353 14.007489,1.8871353 L 14.007489,1.8871353 z M 14.007489,17.387136 C 12.364632,17.387136 11.007489,16.029993 11.007489,14.387136 C 11.007489,12.744279 12.364632,11.387136 14.007489,11.387136 C 15.650346,11.387136 17.007489,12.744279 17.007489,14.387136 C 17.007489,16.029993 15.650346,17.387136 14.007489,17.387136 z"
         id="path2486"
         inkscape:r_cx="true"
         inkscape:r_cy="true" />
      <path
         id="path2488"
         d="M 14.007489,1.8871353 C 7.078917,1.8871353 1.507489,7.4585643 1.507489,14.387136 C 1.507489,21.315708 7.078917,26.887137 14.007489,26.887137 C 20.936061,26.887137 26.50749,21.315708 26.50749,14.387136 C 26.50749,7.4585643 20.936061,1.8871353 14.007489,1.8871353 L 14.007489,1.8871353 z M 14.007489,17.387136 C 12.364632,17.387136 11.007489,16.029993 11.007489,14.387136 C 11.007489,12.744279 12.364632,11.387136 14.007489,11.387136 C 15.650346,11.387136 17.007489,12.744279 17.007489,14.387136 C 17.007489,16.029993 15.650346,17.387136 14.007489,17.387136 z"
         style="opacity:0.37142861;fill:url(#radialGradient2514);fill-opacity:1;fill-rule:nonzero;stroke:none;stroke-miterlimit:4;stroke-opacity:1"
         inkscape:r_cx="true"
         inkscape:r_cy="true" />
      <path
         style="opacity:0.23428572;fill:url(#radialGradient2516);fill-opacity:1;fill-rule:nonzero;stroke:none;stroke-miterlimit:4;stroke-opacity:1"
         d="M 14.007489,1.8871353 C 7.078917,1.8871353 1.507489,7.4585643 1.507489,14.387136 C 1.507489,21.315708 7.078917,26.887137 14.007489,26.887137 C 20.936061,26.887137 26.50749,21.315708 26.50749,14.387136 C 26.50749,7.4585643 20.936061,1.8871353 14.007489,1.8871353 L 14.007489,1.8871353 z M 14.007489,17.387136 C 12.364632,17.387136 11.007489,16.029993 11.007489,14.387136 C 11.007489,12.744279 12.364632,11.387136 14.007489,11.387136 C 15.650346,11.387136 17.007489,12.744279 17.007489,14.387136 C 17.007489,16.029993 15.650346,17.387136 14.007489,17.387136 z"
         id="path2490"
         inkscape:r_cx="true"
         inkscape:r_cy="true" />
    </g>
  </g>
</svg>
